G75*
%MOIN*%
%OFA0B0*%
%FSLAX25Y25*%
%IPPOS*%
%LPD*%
%AMOC8*
5,1,8,0,0,1.08239X$1,22.5*
%
%ADD10C,0.00500*%
%ADD11C,0.00600*%
%ADD12C,0.00800*%
%ADD13R,0.00042X0.00330*%
%ADD14R,0.00041X0.00790*%
%ADD15R,0.00042X0.01080*%
%ADD16R,0.00042X0.01290*%
%ADD17R,0.00041X0.01500*%
%ADD18R,0.00042X0.01620*%
%ADD19R,0.00042X0.01750*%
%ADD20R,0.00041X0.01920*%
%ADD21R,0.00042X0.02040*%
%ADD22R,0.00042X0.02210*%
%ADD23R,0.00041X0.02330*%
%ADD24R,0.00042X0.02460*%
%ADD25R,0.00042X0.02620*%
%ADD26R,0.00041X0.02710*%
%ADD27R,0.00042X0.02880*%
%ADD28R,0.00042X0.01410*%
%ADD29R,0.00042X0.01460*%
%ADD30R,0.00041X0.01250*%
%ADD31R,0.00041X0.01290*%
%ADD32R,0.00042X0.01210*%
%ADD33R,0.00042X0.01250*%
%ADD34R,0.00042X0.01170*%
%ADD35R,0.00041X0.01210*%
%ADD36R,0.00041X0.02210*%
%ADD37R,0.00042X0.02170*%
%ADD38R,0.00042X0.01160*%
%ADD39R,0.00042X0.01170*%
%ADD40R,0.00042X0.02170*%
%ADD41R,0.00042X0.01200*%
%ADD42R,0.00041X0.01160*%
%ADD43R,0.00041X0.02170*%
%ADD44R,0.00041X0.02160*%
%ADD45R,0.00042X0.02200*%
%ADD46R,0.00041X0.02200*%
%ADD47R,0.00042X0.00950*%
%ADD48R,0.00042X0.02160*%
%ADD49R,0.00041X0.01540*%
%ADD50R,0.00042X0.01960*%
%ADD51R,0.00041X0.02290*%
%ADD52R,0.00041X0.04300*%
%ADD53R,0.00042X0.02630*%
%ADD54R,0.00042X0.04800*%
%ADD55R,0.00042X0.02920*%
%ADD56R,0.00042X0.05050*%
%ADD57R,0.00042X0.03170*%
%ADD58R,0.00042X0.05250*%
%ADD59R,0.00041X0.01170*%
%ADD60R,0.00041X0.03330*%
%ADD61R,0.00041X0.05380*%
%ADD62R,0.00042X0.03580*%
%ADD63R,0.00042X0.05550*%
%ADD64R,0.00042X0.03790*%
%ADD65R,0.00042X0.05580*%
%ADD66R,0.00041X0.04000*%
%ADD67R,0.00041X0.05700*%
%ADD68R,0.00042X0.04170*%
%ADD69R,0.00042X0.05790*%
%ADD70R,0.00042X0.04330*%
%ADD71R,0.00042X0.05870*%
%ADD72R,0.00041X0.04540*%
%ADD73R,0.00041X0.05950*%
%ADD74R,0.00041X0.00660*%
%ADD75R,0.00042X0.00290*%
%ADD76R,0.00042X0.04670*%
%ADD77R,0.00042X0.06040*%
%ADD78R,0.00042X0.00540*%
%ADD79R,0.00042X0.00750*%
%ADD80R,0.00042X0.01340*%
%ADD81R,0.00042X0.00790*%
%ADD82R,0.00042X0.04830*%
%ADD83R,0.00042X0.01000*%
%ADD84R,0.00041X0.01040*%
%ADD85R,0.00041X0.05000*%
%ADD86R,0.00041X0.06120*%
%ADD87R,0.00041X0.01330*%
%ADD88R,0.00041X0.01830*%
%ADD89R,0.00041X0.02000*%
%ADD90R,0.00042X0.05130*%
%ADD91R,0.00042X0.06210*%
%ADD92R,0.00042X0.01550*%
%ADD93R,0.00042X0.02130*%
%ADD94R,0.00042X0.02340*%
%ADD95R,0.00042X0.01370*%
%ADD96R,0.00042X0.05290*%
%ADD97R,0.00042X0.06250*%
%ADD98R,0.00042X0.01710*%
%ADD99R,0.00042X0.02250*%
%ADD100R,0.00042X0.02540*%
%ADD101R,0.00041X0.01200*%
%ADD102R,0.00041X0.05410*%
%ADD103R,0.00041X0.06290*%
%ADD104R,0.00041X0.02170*%
%ADD105R,0.00041X0.01910*%
%ADD106R,0.00041X0.02250*%
%ADD107R,0.00041X0.02130*%
%ADD108R,0.00041X0.02750*%
%ADD109R,0.00042X0.06370*%
%ADD110R,0.00042X0.02000*%
%ADD111R,0.00042X0.02420*%
%ADD112R,0.00042X0.02920*%
%ADD113R,0.00042X0.01790*%
%ADD114R,0.00042X0.01130*%
%ADD115R,0.00042X0.05630*%
%ADD116R,0.00042X0.03120*%
%ADD117R,0.00041X0.01960*%
%ADD118R,0.00041X0.01120*%
%ADD119R,0.00041X0.05710*%
%ADD120R,0.00041X0.06420*%
%ADD121R,0.00041X0.02500*%
%ADD122R,0.00041X0.03250*%
%ADD123R,0.00042X0.01040*%
%ADD124R,0.00042X0.05830*%
%ADD125R,0.00042X0.06460*%
%ADD126R,0.00042X0.02370*%
%ADD127R,0.00042X0.02580*%
%ADD128R,0.00042X0.03420*%
%ADD129R,0.00042X0.05910*%
%ADD130R,0.00042X0.06500*%
%ADD131R,0.00042X0.02500*%
%ADD132R,0.00042X0.03540*%
%ADD133R,0.00041X0.01170*%
%ADD134R,0.00041X0.02370*%
%ADD135R,0.00041X0.01000*%
%ADD136R,0.00041X0.06000*%
%ADD137R,0.00041X0.06540*%
%ADD138R,0.00041X0.02580*%
%ADD139R,0.00041X0.02660*%
%ADD140R,0.00041X0.03660*%
%ADD141R,0.00042X0.02540*%
%ADD142R,0.00042X0.00910*%
%ADD143R,0.00042X0.06580*%
%ADD144R,0.00042X0.02710*%
%ADD145R,0.00042X0.02670*%
%ADD146R,0.00042X0.00880*%
%ADD147R,0.00042X0.06080*%
%ADD148R,0.00042X0.02790*%
%ADD149R,0.00042X0.03920*%
%ADD150R,0.00041X0.02790*%
%ADD151R,0.00041X0.00840*%
%ADD152R,0.00041X0.06630*%
%ADD153R,0.00041X0.02840*%
%ADD154R,0.00041X0.02830*%
%ADD155R,0.00041X0.04040*%
%ADD156R,0.00042X0.06670*%
%ADD157R,0.00042X0.02830*%
%ADD158R,0.00042X0.04120*%
%ADD159R,0.00042X0.03080*%
%ADD160R,0.00042X0.03000*%
%ADD161R,0.00042X0.02870*%
%ADD162R,0.00042X0.04250*%
%ADD163R,0.00041X0.00710*%
%ADD164R,0.00041X0.06300*%
%ADD165R,0.00041X0.06710*%
%ADD166R,0.00041X0.03080*%
%ADD167R,0.00041X0.02910*%
%ADD168R,0.00041X0.04330*%
%ADD169R,0.00042X0.03330*%
%ADD170R,0.00042X0.00710*%
%ADD171R,0.00042X0.06340*%
%ADD172R,0.00042X0.06750*%
%ADD173R,0.00042X0.02120*%
%ADD174R,0.00042X0.02960*%
%ADD175R,0.00042X0.04420*%
%ADD176R,0.00042X0.03500*%
%ADD177R,0.00042X0.00670*%
%ADD178R,0.00042X0.06380*%
%ADD179R,0.00042X0.06790*%
%ADD180R,0.00042X0.05410*%
%ADD181R,0.00042X0.04500*%
%ADD182R,0.00041X0.03670*%
%ADD183R,0.00041X0.00670*%
%ADD184R,0.00041X0.06750*%
%ADD185R,0.00041X0.05420*%
%ADD186R,0.00041X0.03000*%
%ADD187R,0.00041X0.04630*%
%ADD188R,0.00042X0.00630*%
%ADD189R,0.00042X0.05460*%
%ADD190R,0.00042X0.04710*%
%ADD191R,0.00042X0.03920*%
%ADD192R,0.00042X0.06540*%
%ADD193R,0.00042X0.06840*%
%ADD194R,0.00042X0.05500*%
%ADD195R,0.00042X0.03050*%
%ADD196R,0.00042X0.04790*%
%ADD197R,0.00041X0.00630*%
%ADD198R,0.00041X0.06540*%
%ADD199R,0.00041X0.06840*%
%ADD200R,0.00041X0.05500*%
%ADD201R,0.00041X0.02120*%
%ADD202R,0.00041X0.03090*%
%ADD203R,0.00041X0.04870*%
%ADD204R,0.00042X0.04210*%
%ADD205R,0.00042X0.06590*%
%ADD206R,0.00042X0.06880*%
%ADD207R,0.00042X0.03090*%
%ADD208R,0.00042X0.04910*%
%ADD209R,0.00042X0.06630*%
%ADD210R,0.00042X0.06920*%
%ADD211R,0.00042X0.05540*%
%ADD212R,0.00042X0.05000*%
%ADD213R,0.00041X0.04460*%
%ADD214R,0.00041X0.06670*%
%ADD215R,0.00041X0.06880*%
%ADD216R,0.00041X0.05580*%
%ADD217R,0.00041X0.03130*%
%ADD218R,0.00041X0.05090*%
%ADD219R,0.00042X0.04620*%
%ADD220R,0.00042X0.06920*%
%ADD221R,0.00042X0.03130*%
%ADD222R,0.00041X0.04750*%
%ADD223R,0.00041X0.06920*%
%ADD224R,0.00041X0.05630*%
%ADD225R,0.00041X0.03170*%
%ADD226R,0.00041X0.05210*%
%ADD227R,0.00042X0.04880*%
%ADD228R,0.00042X0.06960*%
%ADD229R,0.00042X0.03170*%
%ADD230R,0.00042X0.05210*%
%ADD231R,0.00042X0.05040*%
%ADD232R,0.00042X0.05160*%
%ADD233R,0.00042X0.06830*%
%ADD234R,0.00042X0.07000*%
%ADD235R,0.00042X0.05670*%
%ADD236R,0.00042X0.05370*%
%ADD237R,0.00041X0.05290*%
%ADD238R,0.00041X0.03380*%
%ADD239R,0.00041X0.06950*%
%ADD240R,0.00041X0.03210*%
%ADD241R,0.00042X0.02330*%
%ADD242R,0.00042X0.05710*%
%ADD243R,0.00042X0.03210*%
%ADD244R,0.00042X0.03040*%
%ADD245R,0.00042X0.02080*%
%ADD246R,0.00042X0.02840*%
%ADD247R,0.00041X0.05750*%
%ADD248R,0.00041X0.02920*%
%ADD249R,0.00041X0.02080*%
%ADD250R,0.00041X0.02670*%
%ADD251R,0.00041X0.02630*%
%ADD252R,0.00041X0.02460*%
%ADD253R,0.00041X0.02540*%
%ADD254R,0.00042X0.05840*%
%ADD255R,0.00042X0.02590*%
%ADD256R,0.00042X0.02410*%
%ADD257R,0.00042X0.02380*%
%ADD258R,0.00042X0.06000*%
%ADD259R,0.00042X0.02550*%
%ADD260R,0.00042X0.03250*%
%ADD261R,0.00042X0.02290*%
%ADD262R,0.00041X0.02380*%
%ADD263R,0.00041X0.00210*%
%ADD264R,0.00041X0.02300*%
%ADD265R,0.00042X0.02420*%
%ADD266R,0.00041X0.02870*%
%ADD267R,0.00041X0.02540*%
%ADD268R,0.00042X0.02040*%
%ADD269R,0.00042X0.02290*%
%ADD270R,0.00041X0.01130*%
%ADD271R,0.00041X0.02040*%
%ADD272R,0.00042X0.01090*%
%ADD273R,0.00042X0.02660*%
%ADD274R,0.00042X0.01920*%
%ADD275R,0.00042X0.01040*%
%ADD276R,0.00042X0.02750*%
%ADD277R,0.00042X0.01630*%
%ADD278R,0.00041X0.01380*%
%ADD279R,0.00042X0.00920*%
%ADD280R,0.00042X0.02910*%
%ADD281R,0.00041X0.00910*%
%ADD282R,0.00041X0.03300*%
%ADD283R,0.00041X0.02040*%
%ADD284R,0.00041X0.02340*%
%ADD285R,0.00041X0.00540*%
%ADD286R,0.00042X0.00830*%
%ADD287R,0.00042X0.00250*%
%ADD288R,0.00042X0.03460*%
%ADD289R,0.00041X0.00750*%
%ADD290R,0.00041X0.03580*%
%ADD291R,0.00041X0.03340*%
%ADD292R,0.00042X0.00700*%
%ADD293R,0.00042X0.03750*%
%ADD294R,0.00042X0.01380*%
%ADD295R,0.00041X0.00670*%
%ADD296R,0.00041X0.02410*%
%ADD297R,0.00041X0.01420*%
%ADD298R,0.00041X0.03790*%
%ADD299R,0.00041X0.02090*%
%ADD300R,0.00042X0.00670*%
%ADD301R,0.00042X0.01450*%
%ADD302R,0.00042X0.03960*%
%ADD303R,0.00042X0.02090*%
%ADD304R,0.00041X0.02420*%
%ADD305R,0.00041X0.06040*%
%ADD306R,0.00042X0.03590*%
%ADD307R,0.00041X0.02420*%
%ADD308R,0.00041X0.06500*%
%ADD309R,0.00041X0.03590*%
%ADD310R,0.00041X0.02050*%
%ADD311R,0.00042X0.00040*%
%ADD312R,0.00042X0.06420*%
%ADD313R,0.00042X0.03630*%
%ADD314R,0.00042X0.02050*%
%ADD315R,0.00042X0.00120*%
%ADD316R,0.00042X0.06330*%
%ADD317R,0.00041X0.03630*%
%ADD318R,0.00041X0.06250*%
%ADD319R,0.00042X0.06170*%
%ADD320R,0.00041X0.00450*%
%ADD321R,0.00041X0.03120*%
%ADD322R,0.00042X0.00580*%
%ADD323R,0.00042X0.02670*%
%ADD324R,0.00042X0.06290*%
%ADD325R,0.00042X0.00800*%
%ADD326R,0.00042X0.00840*%
%ADD327R,0.00041X0.00920*%
%ADD328R,0.00042X0.02950*%
%ADD329R,0.00042X0.00210*%
%ADD330R,0.00042X0.02300*%
%ADD331R,0.00041X0.00290*%
%ADD332R,0.00041X0.01880*%
%ADD333R,0.00041X0.03620*%
%ADD334R,0.00042X0.00340*%
%ADD335R,0.00042X0.00370*%
%ADD336R,0.00042X0.03620*%
%ADD337R,0.00042X0.00090*%
%ADD338R,0.00042X0.00410*%
%ADD339R,0.00041X0.01460*%
%ADD340R,0.00041X0.06210*%
%ADD341R,0.00042X0.00620*%
%ADD342R,0.00042X0.01800*%
%ADD343R,0.00042X0.06710*%
%ADD344R,0.00042X0.03910*%
%ADD345R,0.00042X0.00660*%
%ADD346R,0.00042X0.01700*%
%ADD347R,0.00042X0.06670*%
%ADD348R,0.00041X0.04050*%
%ADD349R,0.00041X0.01750*%
%ADD350R,0.00041X0.06670*%
%ADD351R,0.00041X0.06170*%
%ADD352R,0.00042X0.04170*%
%ADD353R,0.00042X0.06620*%
%ADD354R,0.00042X0.01790*%
%ADD355R,0.00041X0.01700*%
%ADD356R,0.00041X0.01870*%
%ADD357R,0.00041X0.06130*%
%ADD358R,0.00042X0.06130*%
%ADD359R,0.00041X0.01710*%
%ADD360R,0.00041X0.00380*%
%ADD361R,0.00041X0.00370*%
%ADD362R,0.00041X0.06460*%
%ADD363R,0.00041X0.02550*%
%ADD364R,0.00042X0.00130*%
%ADD365R,0.00042X0.00460*%
%ADD366R,0.00042X0.03660*%
%ADD367R,0.00042X0.00500*%
%ADD368R,0.00041X0.00620*%
%ADD369R,0.00041X0.06340*%
%ADD370R,0.00042X0.01300*%
%ADD371R,0.00041X0.00830*%
%ADD372R,0.00041X0.03040*%
%ADD373R,0.00042X0.03370*%
%ADD374R,0.00042X0.03380*%
%ADD375R,0.00042X0.03670*%
%ADD376R,0.00042X0.03870*%
%ADD377R,0.00042X0.03880*%
%ADD378R,0.00041X0.00800*%
%ADD379R,0.00041X0.03870*%
%ADD380R,0.00041X0.03880*%
%ADD381R,0.00042X0.00550*%
%ADD382R,0.00042X0.06090*%
%ADD383R,0.00042X0.00380*%
%ADD384R,0.00042X0.06050*%
%ADD385R,0.00042X0.03830*%
%ADD386R,0.00042X0.03840*%
%ADD387R,0.00041X0.00130*%
%ADD388R,0.00041X0.00460*%
%ADD389R,0.00041X0.03830*%
%ADD390R,0.00041X0.02290*%
%ADD391R,0.00042X0.05960*%
%ADD392R,0.00042X0.05920*%
%ADD393R,0.00041X0.05830*%
%ADD394R,0.00042X0.05750*%
%ADD395R,0.00042X0.05700*%
%ADD396R,0.00042X0.02450*%
%ADD397R,0.00042X0.05620*%
%ADD398R,0.00041X0.00590*%
%ADD399R,0.00041X0.01790*%
%ADD400R,0.00041X0.05870*%
%ADD401R,0.00041X0.03840*%
%ADD402R,0.00041X0.05620*%
%ADD403R,0.00041X0.03960*%
%ADD404R,0.00042X0.01840*%
%ADD405R,0.00042X0.01880*%
%ADD406R,0.00042X0.04000*%
%ADD407R,0.00042X0.01910*%
%ADD408R,0.00041X0.01790*%
%ADD409R,0.00041X0.05540*%
%ADD410R,0.00041X0.01840*%
%ADD411R,0.00041X0.03950*%
%ADD412R,0.00041X0.01950*%
%ADD413R,0.00042X0.03950*%
%ADD414R,0.00042X0.01870*%
%ADD415R,0.00042X0.01920*%
%ADD416R,0.00042X0.01830*%
%ADD417R,0.00041X0.06040*%
%ADD418R,0.00041X0.05460*%
%ADD419R,0.00041X0.05130*%
%ADD420R,0.00042X0.01420*%
%ADD421R,0.00042X0.06120*%
%ADD422R,0.00041X0.06170*%
%ADD423R,0.00041X0.05420*%
%ADD424R,0.00041X0.04910*%
%ADD425R,0.00042X0.01120*%
%ADD426R,0.00042X0.06170*%
%ADD427R,0.00042X0.05380*%
%ADD428R,0.00042X0.00790*%
%ADD429R,0.00042X0.05340*%
%ADD430R,0.00042X0.04790*%
%ADD431R,0.00041X0.01080*%
%ADD432R,0.00041X0.01800*%
%ADD433R,0.00041X0.03420*%
%ADD434R,0.00041X0.04710*%
%ADD435R,0.00042X0.01950*%
%ADD436R,0.00042X0.03420*%
%ADD437R,0.00042X0.04630*%
%ADD438R,0.00042X0.01670*%
%ADD439R,0.00042X0.04550*%
%ADD440R,0.00042X0.01660*%
%ADD441R,0.00041X0.00950*%
%ADD442R,0.00041X0.01630*%
%ADD443R,0.00041X0.04450*%
%ADD444R,0.00041X0.01920*%
%ADD445R,0.00041X0.01660*%
%ADD446R,0.00042X0.00960*%
%ADD447R,0.00042X0.03300*%
%ADD448R,0.00042X0.01670*%
%ADD449R,0.00042X0.03290*%
%ADD450R,0.00042X0.04410*%
%ADD451R,0.00042X0.00920*%
%ADD452R,0.00042X0.00870*%
%ADD453R,0.00042X0.02700*%
%ADD454R,0.00041X0.00870*%
%ADD455R,0.00041X0.02960*%
%ADD456R,0.00041X0.01580*%
%ADD457R,0.00041X0.04210*%
%ADD458R,0.00042X0.01540*%
%ADD459R,0.00042X0.04130*%
%ADD460R,0.00042X0.01540*%
%ADD461R,0.00041X0.00790*%
%ADD462R,0.00041X0.00920*%
%ADD463R,0.00041X0.02700*%
%ADD464R,0.00042X0.01500*%
%ADD465R,0.00041X0.01050*%
%ADD466R,0.00041X0.01290*%
%ADD467R,0.00041X0.01300*%
%ADD468R,0.00041X0.01550*%
%ADD469R,0.00042X0.01290*%
%ADD470R,0.00042X0.00420*%
%ADD471R,0.00041X0.01040*%
%ADD472R,0.00041X0.02800*%
%ADD473R,0.00041X0.00040*%
%ADD474R,0.00041X0.00500*%
%ADD475R,0.00041X0.03170*%
%ADD476R,0.00042X0.03200*%
%ADD477R,0.00041X0.00700*%
%ADD478R,0.00041X0.03370*%
%ADD479R,0.00042X0.00040*%
%ADD480R,0.00041X0.00200*%
%ADD481R,0.00042X0.03800*%
%ADD482R,0.00041X0.03910*%
%ADD483R,0.00042X0.04080*%
%ADD484R,0.00042X0.00450*%
%ADD485R,0.00042X0.06160*%
%ADD486R,0.00042X0.06800*%
%ADD487R,0.00041X0.00550*%
%ADD488R,0.00041X0.06790*%
%ADD489R,0.00041X0.00580*%
%ADD490R,0.00041X0.00880*%
%ADD491R,0.00041X0.05960*%
%ADD492R,0.00042X0.00540*%
%ADD493R,0.00041X0.06420*%
%ADD494R,0.00042X0.05790*%
%ADD495R,0.00042X0.05670*%
%ADD496R,0.00041X0.02620*%
%ADD497R,0.00041X0.06080*%
%ADD498R,0.00041X0.05670*%
%ADD499R,0.00042X0.06040*%
%ADD500R,0.00041X0.05920*%
%ADD501R,0.00042X0.05420*%
%ADD502R,0.00041X0.00540*%
%ADD503R,0.00042X0.05660*%
%ADD504R,0.00042X0.05290*%
%ADD505R,0.00041X0.01450*%
%ADD506R,0.00042X0.00590*%
%ADD507R,0.00042X0.05170*%
%ADD508R,0.00042X0.05090*%
%ADD509R,0.00041X0.05040*%
%ADD510R,0.00042X0.05200*%
%ADD511R,0.00042X0.04960*%
%ADD512R,0.00042X0.05120*%
%ADD513R,0.00041X0.04840*%
%ADD514R,0.00042X0.04750*%
%ADD515R,0.00041X0.04880*%
%ADD516R,0.00041X0.04670*%
%ADD517R,0.00042X0.04590*%
%ADD518R,0.00042X0.04450*%
%ADD519R,0.00041X0.04500*%
%ADD520R,0.00041X0.04370*%
%ADD521R,0.00042X0.04380*%
%ADD522R,0.00041X0.00960*%
%ADD523R,0.00042X0.01330*%
%ADD524C,0.01000*%
D10*
X0011261Y0028597D02*
X0010810Y0029047D01*
X0011261Y0028597D02*
X0012161Y0028597D01*
X0012612Y0029047D01*
X0012612Y0029498D01*
X0012161Y0029948D01*
X0011711Y0029948D01*
X0012161Y0029948D02*
X0012612Y0030399D01*
X0012612Y0030849D01*
X0012161Y0031299D01*
X0011261Y0031299D01*
X0010810Y0030849D01*
X0013757Y0031299D02*
X0013757Y0029498D01*
X0014658Y0028597D01*
X0015558Y0029498D01*
X0015558Y0031299D01*
X0016703Y0030849D02*
X0017154Y0031299D01*
X0018054Y0031299D01*
X0018505Y0030849D01*
X0018505Y0030399D01*
X0018054Y0029948D01*
X0018505Y0029498D01*
X0018505Y0029047D01*
X0018054Y0028597D01*
X0017154Y0028597D01*
X0016703Y0029047D01*
X0017604Y0029948D02*
X0018054Y0029948D01*
X0015534Y0038597D02*
X0014533Y0038597D01*
X0014033Y0039098D01*
X0014033Y0039598D01*
X0014533Y0040098D01*
X0015534Y0040098D01*
X0016035Y0039598D01*
X0016035Y0039098D01*
X0015534Y0038597D01*
X0015534Y0040098D02*
X0016035Y0040599D01*
X0016035Y0041099D01*
X0015534Y0041600D01*
X0014533Y0041600D01*
X0014033Y0041099D01*
X0014033Y0040599D01*
X0014533Y0040098D01*
X0012812Y0039098D02*
X0012812Y0041099D01*
X0012312Y0041600D01*
X0010810Y0041600D01*
X0010810Y0038597D01*
X0012312Y0038597D01*
X0012812Y0039098D01*
X0012312Y0048597D02*
X0010810Y0048597D01*
X0010810Y0051600D01*
X0012312Y0051600D01*
X0012812Y0051099D01*
X0012812Y0049098D01*
X0012312Y0048597D01*
X0014033Y0048597D02*
X0014033Y0049098D01*
X0016035Y0051099D01*
X0016035Y0051600D01*
X0014033Y0051600D01*
X0014533Y0058597D02*
X0014033Y0059098D01*
X0014033Y0060098D01*
X0015534Y0060098D01*
X0016035Y0059598D01*
X0016035Y0059098D01*
X0015534Y0058597D01*
X0014533Y0058597D01*
X0014033Y0060098D02*
X0015034Y0061099D01*
X0016035Y0061600D01*
X0012812Y0061099D02*
X0012812Y0059098D01*
X0012312Y0058597D01*
X0010810Y0058597D01*
X0010810Y0061600D01*
X0012312Y0061600D01*
X0012812Y0061099D01*
X0012312Y0068597D02*
X0010810Y0068597D01*
X0010810Y0071600D01*
X0012312Y0071600D01*
X0012812Y0071099D01*
X0012812Y0069098D01*
X0012312Y0068597D01*
X0014033Y0069098D02*
X0014533Y0068597D01*
X0015534Y0068597D01*
X0016035Y0069098D01*
X0016035Y0070098D01*
X0015534Y0070599D01*
X0015034Y0070599D01*
X0014033Y0070098D01*
X0014033Y0071600D01*
X0016035Y0071600D01*
X0015534Y0078597D02*
X0014533Y0078597D01*
X0014033Y0079098D01*
X0016035Y0081099D01*
X0016035Y0079098D01*
X0015534Y0078597D01*
X0014033Y0079098D02*
X0014033Y0081099D01*
X0014533Y0081600D01*
X0015534Y0081600D01*
X0016035Y0081099D01*
X0012812Y0081099D02*
X0012812Y0079098D01*
X0012312Y0078597D01*
X0010810Y0078597D01*
X0010810Y0081600D01*
X0012312Y0081600D01*
X0012812Y0081099D01*
X0012812Y0088597D02*
X0012812Y0090599D01*
X0011811Y0091600D01*
X0010810Y0090599D01*
X0010810Y0088597D01*
X0010810Y0090098D02*
X0012812Y0090098D01*
X0014033Y0089098D02*
X0014033Y0091099D01*
X0014533Y0091600D01*
X0015534Y0091600D01*
X0016035Y0091099D01*
X0014033Y0089098D01*
X0014533Y0088597D01*
X0015534Y0088597D01*
X0016035Y0089098D01*
X0016035Y0091099D01*
X0015108Y0098597D02*
X0014207Y0098597D01*
X0013757Y0099047D01*
X0014207Y0099948D02*
X0015108Y0099948D01*
X0015558Y0099498D01*
X0015558Y0099047D01*
X0015108Y0098597D01*
X0014207Y0099948D02*
X0013757Y0100399D01*
X0013757Y0100849D01*
X0014207Y0101299D01*
X0015108Y0101299D01*
X0015558Y0100849D01*
X0016703Y0101299D02*
X0018505Y0101299D01*
X0017604Y0101299D02*
X0017604Y0098597D01*
X0012612Y0098597D02*
X0011711Y0099498D01*
X0012161Y0099498D02*
X0010810Y0099498D01*
X0010810Y0098597D02*
X0010810Y0101299D01*
X0012161Y0101299D01*
X0012612Y0100849D01*
X0012612Y0099948D01*
X0012161Y0099498D01*
X0012112Y0117597D02*
X0011111Y0117597D01*
X0010610Y0118098D01*
X0011611Y0119098D02*
X0012112Y0119098D01*
X0012612Y0118598D01*
X0012612Y0118098D01*
X0012112Y0117597D01*
X0012112Y0119098D02*
X0012612Y0119599D01*
X0012612Y0120099D01*
X0012112Y0120600D01*
X0011111Y0120600D01*
X0010610Y0120099D01*
X0013833Y0120600D02*
X0013833Y0118598D01*
X0014834Y0117597D01*
X0015835Y0118598D01*
X0015835Y0120600D01*
X0014834Y0127597D02*
X0015835Y0128598D01*
X0015835Y0130600D01*
X0013833Y0130600D02*
X0013833Y0128598D01*
X0014834Y0127597D01*
X0012612Y0128098D02*
X0012112Y0127597D01*
X0011111Y0127597D01*
X0010610Y0128098D01*
X0010610Y0129098D02*
X0011611Y0129599D01*
X0012112Y0129599D01*
X0012612Y0129098D01*
X0012612Y0128098D01*
X0010610Y0129098D02*
X0010610Y0130600D01*
X0012612Y0130600D01*
X0012112Y0137597D02*
X0012612Y0138098D01*
X0012612Y0139098D01*
X0011611Y0139098D01*
X0010610Y0138098D02*
X0011111Y0137597D01*
X0012112Y0137597D01*
X0010610Y0138098D02*
X0010610Y0140099D01*
X0011111Y0140600D01*
X0012112Y0140600D01*
X0012612Y0140099D01*
X0013833Y0140600D02*
X0013833Y0137597D01*
X0015835Y0137597D02*
X0013833Y0140600D01*
X0015835Y0140600D02*
X0015835Y0137597D01*
X0017056Y0137597D02*
X0017056Y0140600D01*
X0018557Y0140600D01*
X0019057Y0140099D01*
X0019057Y0138098D01*
X0018557Y0137597D01*
X0017056Y0137597D01*
X0024308Y0134876D02*
X0024308Y0133875D01*
X0024808Y0133374D01*
X0026810Y0133374D01*
X0027310Y0133875D01*
X0027310Y0134876D01*
X0026810Y0135376D01*
X0024808Y0135376D02*
X0024308Y0134876D01*
X0024808Y0132153D02*
X0024308Y0131653D01*
X0024308Y0130652D01*
X0024808Y0130152D01*
X0026810Y0130152D01*
X0027310Y0130652D01*
X0027310Y0131653D01*
X0026810Y0132153D01*
X0026309Y0128931D02*
X0024308Y0128931D01*
X0026309Y0128931D02*
X0027310Y0127930D01*
X0026309Y0126929D01*
X0024308Y0126929D01*
X0034308Y0131726D02*
X0034808Y0131226D01*
X0035309Y0131226D01*
X0035809Y0131726D01*
X0035809Y0132727D01*
X0036309Y0133228D01*
X0036810Y0133228D01*
X0037310Y0132727D01*
X0037310Y0131726D01*
X0036810Y0131226D01*
X0034308Y0131726D02*
X0034308Y0132727D01*
X0034808Y0133228D01*
X0034308Y0134449D02*
X0034308Y0135449D01*
X0034308Y0134949D02*
X0037310Y0134949D01*
X0037310Y0134449D02*
X0037310Y0135449D01*
X0044308Y0134876D02*
X0044308Y0133875D01*
X0044808Y0133374D01*
X0046810Y0133374D01*
X0047310Y0133875D01*
X0047310Y0134876D01*
X0046810Y0135376D01*
X0044808Y0135376D02*
X0044308Y0134876D01*
X0044808Y0132153D02*
X0044308Y0131653D01*
X0044308Y0130652D01*
X0044808Y0130152D01*
X0045309Y0130152D01*
X0045809Y0130652D01*
X0045809Y0131653D01*
X0046309Y0132153D01*
X0046810Y0132153D01*
X0047310Y0131653D01*
X0047310Y0130652D01*
X0046810Y0130152D01*
X0054308Y0130652D02*
X0054808Y0130152D01*
X0055309Y0130152D01*
X0055809Y0130652D01*
X0055809Y0131653D01*
X0056309Y0132153D01*
X0056810Y0132153D01*
X0057310Y0131653D01*
X0057310Y0130652D01*
X0056810Y0130152D01*
X0054308Y0130652D02*
X0054308Y0131653D01*
X0054808Y0132153D01*
X0054808Y0133374D02*
X0056810Y0133374D01*
X0057310Y0133875D01*
X0057310Y0134876D01*
X0056810Y0135376D01*
X0054808Y0135376D01*
X0054308Y0134876D01*
X0054308Y0133875D01*
X0054808Y0133374D01*
X0064308Y0133374D02*
X0064308Y0134876D01*
X0064808Y0135376D01*
X0066810Y0135376D01*
X0067310Y0134876D01*
X0067310Y0133374D01*
X0064308Y0133374D01*
X0064808Y0132153D02*
X0064308Y0131653D01*
X0064308Y0130652D01*
X0064808Y0130152D01*
X0065309Y0130152D01*
X0065809Y0130652D01*
X0065809Y0131653D01*
X0066309Y0132153D01*
X0066810Y0132153D01*
X0067310Y0131653D01*
X0067310Y0130652D01*
X0066810Y0130152D01*
X0074308Y0130152D02*
X0077310Y0132153D01*
X0074308Y0132153D01*
X0074308Y0133374D02*
X0074308Y0134876D01*
X0074808Y0135376D01*
X0076810Y0135376D01*
X0077310Y0134876D01*
X0077310Y0133374D01*
X0074308Y0133374D01*
X0074308Y0130152D02*
X0077310Y0130152D01*
X0076810Y0128931D02*
X0075809Y0128931D01*
X0075809Y0127930D01*
X0076810Y0128931D02*
X0077310Y0128430D01*
X0077310Y0127429D01*
X0076810Y0126929D01*
X0074808Y0126929D01*
X0074308Y0127429D01*
X0074308Y0128430D01*
X0074808Y0128931D01*
X0086310Y0101600D02*
X0088312Y0101600D01*
X0087311Y0101600D02*
X0087311Y0098597D01*
X0089533Y0098597D02*
X0091535Y0101600D01*
X0089533Y0101600D02*
X0091535Y0098597D01*
X0091535Y0091600D02*
X0089533Y0088597D01*
X0088312Y0088597D02*
X0087311Y0089598D01*
X0087812Y0089598D02*
X0086310Y0089598D01*
X0086310Y0088597D02*
X0086310Y0091600D01*
X0087812Y0091600D01*
X0088312Y0091099D01*
X0088312Y0090098D01*
X0087812Y0089598D01*
X0089533Y0091600D02*
X0091535Y0088597D01*
X0090534Y0081600D02*
X0090534Y0078597D01*
X0089533Y0078597D02*
X0091535Y0078597D01*
X0089533Y0080599D02*
X0090534Y0081600D01*
X0088312Y0081099D02*
X0088312Y0079098D01*
X0087812Y0078597D01*
X0086310Y0078597D01*
X0086310Y0081600D01*
X0087812Y0081600D01*
X0088312Y0081099D01*
X0087812Y0071600D02*
X0086310Y0071600D01*
X0086310Y0068597D01*
X0087812Y0068597D01*
X0088312Y0069098D01*
X0088312Y0071099D01*
X0087812Y0071600D01*
X0089533Y0071099D02*
X0090033Y0071600D01*
X0091034Y0071600D01*
X0091535Y0071099D01*
X0091535Y0070599D01*
X0089533Y0068597D01*
X0091535Y0068597D01*
X0091034Y0061600D02*
X0090033Y0061600D01*
X0089533Y0061099D01*
X0088312Y0061099D02*
X0088312Y0059098D01*
X0087812Y0058597D01*
X0086310Y0058597D01*
X0086310Y0061600D01*
X0087812Y0061600D01*
X0088312Y0061099D01*
X0089533Y0059098D02*
X0090033Y0058597D01*
X0091034Y0058597D01*
X0091535Y0059098D01*
X0091535Y0059598D01*
X0091034Y0060098D01*
X0090534Y0060098D01*
X0091034Y0060098D02*
X0091535Y0060599D01*
X0091535Y0061099D01*
X0091034Y0061600D01*
X0091034Y0051600D02*
X0089533Y0050098D01*
X0091535Y0050098D01*
X0091034Y0048597D02*
X0091034Y0051600D01*
X0088312Y0051099D02*
X0088312Y0049098D01*
X0087812Y0048597D01*
X0086310Y0048597D01*
X0086310Y0051600D01*
X0087812Y0051600D01*
X0088312Y0051099D01*
X0089761Y0041299D02*
X0089310Y0040849D01*
X0089310Y0039047D01*
X0089761Y0038597D01*
X0090661Y0038597D01*
X0091112Y0039047D01*
X0091112Y0039948D01*
X0090211Y0039948D01*
X0091112Y0040849D02*
X0090661Y0041299D01*
X0089761Y0041299D01*
X0089257Y0031299D02*
X0089257Y0029498D01*
X0090158Y0028597D01*
X0091058Y0029498D01*
X0091058Y0031299D01*
X0088112Y0031299D02*
X0086310Y0031299D01*
X0086310Y0029948D01*
X0087211Y0030399D01*
X0087661Y0030399D01*
X0088112Y0029948D01*
X0088112Y0029047D01*
X0087661Y0028597D01*
X0086761Y0028597D01*
X0086310Y0029047D01*
X0062310Y0018341D02*
X0062310Y0016990D01*
X0059608Y0016990D01*
X0059608Y0018341D01*
X0060058Y0018792D01*
X0061860Y0018792D01*
X0062310Y0018341D01*
X0062310Y0015845D02*
X0059608Y0015845D01*
X0059608Y0014044D02*
X0062310Y0015845D01*
X0062310Y0014044D02*
X0059608Y0014044D01*
X0060058Y0012899D02*
X0059608Y0012448D01*
X0059608Y0011547D01*
X0060058Y0011097D01*
X0061860Y0011097D01*
X0062310Y0011547D01*
X0062310Y0012448D01*
X0061860Y0012899D01*
X0060959Y0012899D01*
X0060959Y0011998D01*
X0052310Y0011998D02*
X0051409Y0012899D01*
X0049608Y0012899D01*
X0050058Y0014044D02*
X0051860Y0014044D01*
X0052310Y0014494D01*
X0052310Y0015395D01*
X0051860Y0015845D01*
X0051860Y0016990D02*
X0052310Y0017441D01*
X0052310Y0018341D01*
X0051860Y0018792D01*
X0050058Y0018792D02*
X0049608Y0018341D01*
X0049608Y0017441D01*
X0050058Y0016990D01*
X0051860Y0016990D01*
X0050058Y0015845D02*
X0049608Y0015395D01*
X0049608Y0014494D01*
X0050058Y0014044D01*
X0049608Y0011097D02*
X0051409Y0011097D01*
X0052310Y0011998D01*
X0042310Y0012448D02*
X0042310Y0011547D01*
X0041860Y0011097D01*
X0040959Y0011547D02*
X0040959Y0012448D01*
X0041409Y0012899D01*
X0041860Y0012899D01*
X0042310Y0012448D01*
X0040959Y0011547D02*
X0040509Y0011097D01*
X0040058Y0011097D01*
X0039608Y0011547D01*
X0039608Y0012448D01*
X0040058Y0012899D01*
X0040058Y0014044D02*
X0041860Y0014044D01*
X0042310Y0014494D01*
X0042310Y0015395D01*
X0041860Y0015845D01*
X0042310Y0016990D02*
X0042310Y0018792D01*
X0042310Y0016990D02*
X0039608Y0016990D01*
X0040058Y0015845D02*
X0039608Y0015395D01*
X0039608Y0014494D01*
X0040058Y0014044D01*
X0032310Y0014044D02*
X0032310Y0015395D01*
X0031860Y0015845D01*
X0030058Y0015845D01*
X0029608Y0015395D01*
X0029608Y0014044D01*
X0032310Y0014044D01*
X0031860Y0012899D02*
X0032310Y0012448D01*
X0032310Y0011547D01*
X0031860Y0011097D01*
X0030959Y0011547D02*
X0030959Y0012448D01*
X0031409Y0012899D01*
X0031860Y0012899D01*
X0030959Y0011547D02*
X0030509Y0011097D01*
X0030058Y0011097D01*
X0029608Y0011547D01*
X0029608Y0012448D01*
X0030058Y0012899D01*
X0030509Y0016990D02*
X0029608Y0017891D01*
X0030509Y0018792D01*
X0032310Y0018792D01*
X0030959Y0018792D02*
X0030959Y0016990D01*
X0030509Y0016990D02*
X0032310Y0016990D01*
X0114108Y0021047D02*
X0114558Y0020597D01*
X0115009Y0020597D01*
X0115459Y0021047D01*
X0115459Y0021948D01*
X0115909Y0022399D01*
X0116360Y0022399D01*
X0116810Y0021948D01*
X0116810Y0021047D01*
X0116360Y0020597D01*
X0114558Y0022399D02*
X0114108Y0021948D01*
X0114108Y0021047D01*
X0114108Y0023544D02*
X0114108Y0024895D01*
X0114558Y0025345D01*
X0116360Y0025345D01*
X0116810Y0024895D01*
X0116810Y0023544D01*
X0114108Y0023544D01*
X0115009Y0026490D02*
X0114108Y0027391D01*
X0115009Y0028292D01*
X0116810Y0028292D01*
X0115459Y0028292D02*
X0115459Y0026490D01*
X0115009Y0026490D02*
X0116810Y0026490D01*
X0124108Y0026490D02*
X0126810Y0026490D01*
X0126810Y0028292D01*
X0126360Y0025345D02*
X0126810Y0024895D01*
X0126810Y0023994D01*
X0126360Y0023544D01*
X0124558Y0023544D01*
X0124108Y0023994D01*
X0124108Y0024895D01*
X0124558Y0025345D01*
X0124558Y0022399D02*
X0124108Y0021948D01*
X0124108Y0021047D01*
X0124558Y0020597D01*
X0125009Y0020597D01*
X0125459Y0021047D01*
X0125459Y0021948D01*
X0125909Y0022399D01*
X0126360Y0022399D01*
X0126810Y0021948D01*
X0126810Y0021047D01*
X0126360Y0020597D01*
X0134108Y0020597D02*
X0135909Y0020597D01*
X0136810Y0021498D01*
X0135909Y0022399D01*
X0134108Y0022399D01*
X0134558Y0023544D02*
X0136360Y0023544D01*
X0136810Y0023994D01*
X0136810Y0024895D01*
X0136360Y0025345D01*
X0136360Y0026490D02*
X0136810Y0026941D01*
X0136810Y0027841D01*
X0136360Y0028292D01*
X0136360Y0026490D02*
X0134558Y0026490D01*
X0134108Y0026941D01*
X0134108Y0027841D01*
X0134558Y0028292D01*
X0134558Y0025345D02*
X0134108Y0024895D01*
X0134108Y0023994D01*
X0134558Y0023544D01*
X0144108Y0023544D02*
X0146810Y0025345D01*
X0144108Y0025345D01*
X0144108Y0026490D02*
X0144108Y0027841D01*
X0144558Y0028292D01*
X0146360Y0028292D01*
X0146810Y0027841D01*
X0146810Y0026490D01*
X0144108Y0026490D01*
X0144108Y0023544D02*
X0146810Y0023544D01*
X0146360Y0022399D02*
X0145459Y0022399D01*
X0145459Y0021498D01*
X0144558Y0022399D02*
X0144108Y0021948D01*
X0144108Y0021047D01*
X0144558Y0020597D01*
X0146360Y0020597D01*
X0146810Y0021047D01*
X0146810Y0021948D01*
X0146360Y0022399D01*
X0015835Y0148098D02*
X0015334Y0147597D01*
X0014333Y0147597D01*
X0013833Y0148098D01*
X0012612Y0148098D02*
X0012112Y0147597D01*
X0010610Y0147597D01*
X0010610Y0150600D01*
X0012112Y0150600D01*
X0012612Y0150099D01*
X0012612Y0148098D01*
X0013833Y0150099D02*
X0014333Y0150600D01*
X0015334Y0150600D01*
X0015835Y0150099D01*
X0015835Y0149599D01*
X0015334Y0149098D01*
X0015835Y0148598D01*
X0015835Y0148098D01*
X0015334Y0149098D02*
X0014834Y0149098D01*
X0015334Y0157597D02*
X0014333Y0157597D01*
X0013833Y0158098D01*
X0015835Y0160099D01*
X0015835Y0158098D01*
X0015334Y0157597D01*
X0013833Y0158098D02*
X0013833Y0160099D01*
X0014333Y0160600D01*
X0015334Y0160600D01*
X0015835Y0160099D01*
X0012612Y0160099D02*
X0012612Y0158098D01*
X0012112Y0157597D01*
X0010610Y0157597D01*
X0010610Y0160600D01*
X0012112Y0160600D01*
X0012612Y0160099D01*
D11*
X0041060Y0153347D02*
X0046060Y0148347D01*
X0056060Y0148347D01*
X0061060Y0153347D01*
X0086560Y0145347D02*
X0089560Y0145347D01*
X0082060Y0154847D02*
X0082062Y0154999D01*
X0082068Y0155150D01*
X0082077Y0155301D01*
X0082091Y0155453D01*
X0082108Y0155603D01*
X0082129Y0155753D01*
X0082154Y0155903D01*
X0082182Y0156052D01*
X0082215Y0156200D01*
X0082251Y0156347D01*
X0082290Y0156494D01*
X0082334Y0156639D01*
X0082381Y0156783D01*
X0082432Y0156926D01*
X0082486Y0157067D01*
X0082544Y0157208D01*
X0082605Y0157346D01*
X0082670Y0157483D01*
X0082739Y0157619D01*
X0082810Y0157752D01*
X0082885Y0157884D01*
X0082964Y0158014D01*
X0083045Y0158141D01*
X0083130Y0158267D01*
X0083218Y0158391D01*
X0083309Y0158512D01*
X0083403Y0158631D01*
X0083501Y0158747D01*
X0083601Y0158861D01*
X0083703Y0158973D01*
X0083809Y0159081D01*
X0083917Y0159187D01*
X0084028Y0159291D01*
X0084142Y0159391D01*
X0084258Y0159489D01*
X0084377Y0159583D01*
X0088060Y0162847D02*
X0088060Y0165847D01*
X0086560Y0164347D02*
X0089560Y0164347D01*
X0094060Y0154847D02*
X0094058Y0154693D01*
X0094052Y0154539D01*
X0094042Y0154385D01*
X0094028Y0154231D01*
X0094011Y0154078D01*
X0093989Y0153926D01*
X0093963Y0153774D01*
X0093934Y0153622D01*
X0093900Y0153472D01*
X0093863Y0153322D01*
X0093822Y0153174D01*
X0093777Y0153026D01*
X0093728Y0152880D01*
X0093676Y0152735D01*
X0093620Y0152592D01*
X0093560Y0152449D01*
X0093497Y0152309D01*
X0093430Y0152170D01*
X0093359Y0152033D01*
X0093285Y0151898D01*
X0093208Y0151765D01*
X0093127Y0151633D01*
X0093043Y0151504D01*
X0092955Y0151377D01*
X0092864Y0151253D01*
X0092771Y0151131D01*
X0092673Y0151011D01*
X0092573Y0150894D01*
X0092470Y0150779D01*
X0092364Y0150667D01*
X0092256Y0150558D01*
X0092144Y0150452D01*
X0092030Y0150348D01*
X0091913Y0150248D01*
X0091794Y0150150D01*
X0091672Y0150056D01*
X0091547Y0149965D01*
X0094060Y0154847D02*
X0094058Y0154997D01*
X0094052Y0155148D01*
X0094043Y0155298D01*
X0094030Y0155447D01*
X0094013Y0155597D01*
X0093992Y0155746D01*
X0093968Y0155894D01*
X0093940Y0156042D01*
X0093908Y0156189D01*
X0093873Y0156335D01*
X0093833Y0156480D01*
X0093791Y0156624D01*
X0093744Y0156767D01*
X0093694Y0156909D01*
X0093641Y0157050D01*
X0093584Y0157189D01*
X0093524Y0157327D01*
X0093460Y0157463D01*
X0093393Y0157597D01*
X0093322Y0157730D01*
X0093248Y0157861D01*
X0093171Y0157990D01*
X0093090Y0158117D01*
X0093007Y0158242D01*
X0092920Y0158365D01*
X0092831Y0158486D01*
X0092738Y0158604D01*
X0092642Y0158720D01*
X0092544Y0158834D01*
X0092443Y0158945D01*
X0092338Y0159054D01*
X0092232Y0159159D01*
X0092122Y0159263D01*
X0092010Y0159363D01*
X0091896Y0159461D01*
X0091779Y0159555D01*
X0091660Y0159647D01*
X0082060Y0154847D02*
X0082062Y0154695D01*
X0082068Y0154544D01*
X0082077Y0154393D01*
X0082091Y0154241D01*
X0082108Y0154091D01*
X0082129Y0153941D01*
X0082154Y0153791D01*
X0082182Y0153642D01*
X0082215Y0153494D01*
X0082251Y0153347D01*
X0082290Y0153200D01*
X0082334Y0153055D01*
X0082381Y0152911D01*
X0082432Y0152768D01*
X0082486Y0152627D01*
X0082544Y0152486D01*
X0082605Y0152348D01*
X0082670Y0152211D01*
X0082739Y0152075D01*
X0082810Y0151942D01*
X0082885Y0151810D01*
X0082964Y0151680D01*
X0083045Y0151553D01*
X0083130Y0151427D01*
X0083218Y0151303D01*
X0083309Y0151182D01*
X0083403Y0151063D01*
X0083501Y0150947D01*
X0083601Y0150833D01*
X0083703Y0150721D01*
X0083809Y0150613D01*
X0083917Y0150507D01*
X0084028Y0150403D01*
X0084142Y0150303D01*
X0084258Y0150205D01*
X0084377Y0150111D01*
D12*
X0030279Y0147416D02*
X0030279Y0146882D01*
X0029745Y0146348D01*
X0028143Y0146348D01*
X0026595Y0146348D02*
X0026595Y0145281D01*
X0026062Y0144747D01*
X0024994Y0144747D01*
X0024460Y0145281D01*
X0024460Y0147416D01*
X0024994Y0147950D01*
X0026062Y0147950D01*
X0026595Y0147416D01*
X0026595Y0146348D02*
X0025528Y0146348D01*
X0028143Y0144747D02*
X0029745Y0144747D01*
X0030279Y0145281D01*
X0030279Y0145815D01*
X0029745Y0146348D01*
X0030279Y0147416D02*
X0029745Y0147950D01*
X0028143Y0147950D01*
X0028143Y0144747D01*
D13*
X0079132Y0100948D03*
X0085590Y0065738D03*
X0080340Y0064158D03*
X0074465Y0063948D03*
D14*
X0075674Y0065258D03*
X0075799Y0065348D03*
X0073174Y0066598D03*
X0078049Y0061138D03*
X0085549Y0065758D03*
D15*
X0085507Y0065743D03*
X0078007Y0058863D03*
X0076965Y0066113D03*
X0073257Y0066743D03*
X0081132Y0118993D03*
D16*
X0077424Y0125098D03*
X0079132Y0067508D03*
X0079215Y0067388D03*
X0079382Y0067098D03*
X0079757Y0066508D03*
X0085465Y0065758D03*
X0078215Y0058848D03*
X0073340Y0066848D03*
D17*
X0072049Y0066823D03*
X0078299Y0058903D03*
X0085424Y0065743D03*
X0077716Y0100573D03*
X0077174Y0108743D03*
X0077716Y0124903D03*
D18*
X0077840Y0124843D03*
X0077882Y0124843D03*
X0077840Y0100513D03*
X0073507Y0067013D03*
X0079840Y0066513D03*
X0085382Y0065763D03*
D19*
X0085340Y0065738D03*
X0079465Y0063198D03*
X0079340Y0063408D03*
X0079215Y0063618D03*
X0079090Y0063828D03*
X0079007Y0063948D03*
X0078882Y0064158D03*
X0078757Y0064368D03*
X0078632Y0064578D03*
X0078507Y0064778D03*
X0078382Y0064988D03*
X0078340Y0065028D03*
X0078257Y0065198D03*
X0078215Y0065238D03*
X0078090Y0065448D03*
X0077424Y0066528D03*
X0074757Y0063908D03*
X0077257Y0059948D03*
X0078465Y0059028D03*
X0078090Y0100408D03*
X0083090Y0117278D03*
X0078132Y0124738D03*
X0078090Y0124738D03*
D20*
X0077591Y0122863D03*
X0077466Y0122863D03*
X0078174Y0122743D03*
X0077716Y0098493D03*
X0078299Y0098363D03*
X0085299Y0065743D03*
X0078549Y0059113D03*
D21*
X0074840Y0063883D03*
X0079965Y0066513D03*
X0079882Y0069973D03*
X0079215Y0074633D03*
X0079132Y0074633D03*
X0079090Y0074633D03*
X0080465Y0074723D03*
X0081132Y0080093D03*
X0080882Y0080133D03*
X0080840Y0080133D03*
X0081007Y0083343D03*
X0080757Y0083383D03*
X0080257Y0083473D03*
X0080215Y0083473D03*
X0080007Y0083513D03*
X0079965Y0083513D03*
X0077757Y0083883D03*
X0077674Y0083883D03*
X0077632Y0083883D03*
X0077257Y0083973D03*
X0077215Y0083973D03*
X0077132Y0083973D03*
X0077090Y0083973D03*
X0076882Y0084013D03*
X0076840Y0084013D03*
X0077215Y0088343D03*
X0077257Y0088343D03*
X0077132Y0088383D03*
X0080632Y0088383D03*
X0080715Y0088383D03*
X0077882Y0091973D03*
X0077674Y0092013D03*
X0077299Y0092093D03*
X0077257Y0092093D03*
X0077382Y0094633D03*
X0078007Y0105843D03*
X0077882Y0105883D03*
X0077840Y0105883D03*
X0077424Y0105973D03*
X0077257Y0106013D03*
X0077299Y0108723D03*
X0078715Y0119633D03*
X0078757Y0119633D03*
X0079007Y0119723D03*
X0079090Y0119723D03*
X0079132Y0119723D03*
X0085257Y0065763D03*
D22*
X0085215Y0065758D03*
X0077507Y0060008D03*
X0078090Y0074888D03*
X0078007Y0074928D03*
X0077965Y0074928D03*
X0080882Y0074888D03*
X0080965Y0074928D03*
X0081715Y0079928D03*
X0081215Y0088258D03*
X0080132Y0088258D03*
X0080090Y0088218D03*
X0082382Y0091098D03*
X0082465Y0091098D03*
X0082757Y0091008D03*
X0082840Y0091008D03*
X0082965Y0090968D03*
X0083007Y0090968D03*
X0083215Y0090928D03*
X0083257Y0090928D03*
X0083340Y0090888D03*
X0083382Y0090888D03*
X0083465Y0090888D03*
X0083549Y0090848D03*
X0083632Y0090848D03*
X0083965Y0090758D03*
X0084007Y0090758D03*
X0084090Y0090758D03*
X0084132Y0090718D03*
X0084215Y0090718D03*
X0084257Y0090718D03*
X0084340Y0090678D03*
X0084382Y0090678D03*
X0084465Y0090678D03*
X0084590Y0090638D03*
X0084632Y0090638D03*
X0084757Y0090598D03*
X0084840Y0090598D03*
X0080882Y0091428D03*
X0080840Y0091428D03*
X0080757Y0091428D03*
X0080715Y0091468D03*
X0080632Y0091468D03*
X0080590Y0091468D03*
X0080465Y0091508D03*
X0080382Y0091508D03*
X0080007Y0091598D03*
X0079965Y0091598D03*
X0079840Y0091638D03*
X0079757Y0091638D03*
X0079632Y0091678D03*
X0079590Y0091678D03*
X0079465Y0091718D03*
X0079382Y0091718D03*
X0079257Y0091758D03*
X0079215Y0091758D03*
X0077424Y0094638D03*
X0080132Y0098138D03*
X0080257Y0098098D03*
X0080340Y0098098D03*
X0080590Y0098008D03*
X0080632Y0098008D03*
X0080715Y0098008D03*
X0080840Y0097968D03*
X0080882Y0097968D03*
X0080965Y0097928D03*
X0081007Y0097928D03*
X0081090Y0097928D03*
X0081215Y0097888D03*
X0081257Y0097888D03*
X0081382Y0097848D03*
X0081465Y0097848D03*
X0081507Y0097848D03*
X0081840Y0097758D03*
X0081882Y0097758D03*
X0081924Y0097758D03*
X0082007Y0097718D03*
X0082090Y0097718D03*
X0082215Y0097678D03*
X0082257Y0097678D03*
X0082382Y0097638D03*
X0082465Y0097638D03*
X0082507Y0097638D03*
X0082590Y0097598D03*
X0082632Y0097598D03*
X0082715Y0097598D03*
X0083007Y0097508D03*
X0082215Y0101968D03*
X0081215Y0102178D03*
X0080215Y0102388D03*
X0079215Y0102598D03*
X0077424Y0102968D03*
X0079090Y0105718D03*
X0079132Y0105718D03*
X0079215Y0105678D03*
X0080007Y0108968D03*
X0080090Y0108968D03*
X0080132Y0108968D03*
X0080215Y0108928D03*
X0080257Y0108928D03*
X0080340Y0108928D03*
X0080465Y0108888D03*
X0080507Y0108888D03*
X0080590Y0108848D03*
X0080632Y0108848D03*
X0080715Y0108848D03*
X0081007Y0108758D03*
X0081090Y0108758D03*
X0081132Y0108758D03*
X0081215Y0108718D03*
X0081257Y0108718D03*
X0081340Y0108718D03*
X0081465Y0108678D03*
X0081507Y0108678D03*
X0081590Y0108638D03*
X0081632Y0108638D03*
X0081715Y0108638D03*
X0081840Y0108598D03*
X0081882Y0108598D03*
X0081924Y0108598D03*
X0082215Y0108508D03*
X0082257Y0108508D03*
X0082340Y0108508D03*
X0082382Y0108468D03*
X0082465Y0108468D03*
X0082507Y0108468D03*
X0082590Y0108428D03*
X0082632Y0108428D03*
X0082715Y0108428D03*
X0082840Y0108388D03*
X0082882Y0108388D03*
X0083007Y0108348D03*
X0079882Y0109008D03*
X0079840Y0109008D03*
X0079507Y0109098D03*
X0079465Y0109098D03*
X0079340Y0109138D03*
X0079257Y0109138D03*
X0079215Y0109138D03*
X0079132Y0109178D03*
X0079090Y0109178D03*
X0079007Y0109178D03*
X0081340Y0111968D03*
X0081382Y0111968D03*
X0080840Y0115598D03*
X0080757Y0115598D03*
X0080715Y0115598D03*
X0080632Y0115598D03*
X0080590Y0115598D03*
X0081340Y0115678D03*
X0081382Y0115678D03*
X0079090Y0115928D03*
X0079007Y0115968D03*
X0081507Y0119218D03*
X0082215Y0122008D03*
X0082257Y0122008D03*
X0082340Y0122008D03*
X0082465Y0121968D03*
X0082507Y0121968D03*
X0082632Y0121928D03*
X0082715Y0121928D03*
X0082840Y0121888D03*
X0082882Y0121888D03*
X0083007Y0121848D03*
X0081924Y0122098D03*
X0081882Y0122098D03*
X0081840Y0122098D03*
X0081715Y0122138D03*
X0081632Y0122138D03*
X0081507Y0122178D03*
X0081465Y0122178D03*
X0081340Y0122218D03*
X0081257Y0122218D03*
X0081215Y0122218D03*
X0081132Y0122258D03*
X0081090Y0122258D03*
X0081007Y0122258D03*
X0080715Y0122348D03*
X0080632Y0122348D03*
X0080507Y0122388D03*
X0080465Y0122388D03*
X0080382Y0122428D03*
X0080340Y0122428D03*
X0080257Y0122428D03*
X0080132Y0122468D03*
X0076465Y0088388D03*
X0077549Y0088178D03*
D23*
X0078799Y0091908D03*
X0080299Y0095238D03*
X0080674Y0095158D03*
X0080799Y0095118D03*
X0081299Y0094908D03*
X0079799Y0098238D03*
X0078799Y0105868D03*
X0078799Y0109158D03*
X0082924Y0112658D03*
X0077591Y0075118D03*
X0085174Y0065738D03*
X0080299Y0061868D03*
D24*
X0078882Y0059383D03*
X0080090Y0066513D03*
X0077632Y0066553D03*
X0080090Y0069803D03*
X0077299Y0075303D03*
X0077257Y0075303D03*
X0077215Y0075343D03*
X0085132Y0065763D03*
X0079882Y0088053D03*
X0077549Y0094633D03*
X0078632Y0095223D03*
X0079465Y0098383D03*
X0079507Y0098383D03*
X0082840Y0112593D03*
X0081632Y0115883D03*
X0079507Y0122723D03*
D25*
X0082715Y0112553D03*
X0078632Y0109053D03*
X0081465Y0075303D03*
X0085090Y0065763D03*
D26*
X0085049Y0065758D03*
X0080174Y0066508D03*
X0076799Y0075678D03*
X0077341Y0118008D03*
D27*
X0076632Y0075843D03*
X0081632Y0075513D03*
X0080215Y0066513D03*
X0077757Y0066553D03*
X0081507Y0064093D03*
X0081465Y0064013D03*
X0085007Y0065763D03*
X0079132Y0059593D03*
D28*
X0077132Y0059948D03*
X0084965Y0064948D03*
X0077549Y0100658D03*
X0083090Y0112658D03*
D29*
X0077215Y0094633D03*
X0084965Y0066553D03*
D30*
X0084799Y0066948D03*
X0084674Y0067158D03*
X0084549Y0067368D03*
X0084424Y0067578D03*
X0084299Y0067778D03*
X0084174Y0067988D03*
X0084049Y0068198D03*
X0083924Y0068408D03*
X0083799Y0068618D03*
X0083591Y0068988D03*
X0083424Y0069278D03*
X0083299Y0069488D03*
X0083174Y0069698D03*
X0083049Y0069908D03*
X0079299Y0067238D03*
X0079424Y0067028D03*
X0079549Y0066828D03*
X0079674Y0066618D03*
X0079174Y0067448D03*
X0074924Y0066828D03*
X0078174Y0058828D03*
X0084924Y0064828D03*
D31*
X0084924Y0066678D03*
D32*
X0084632Y0067218D03*
X0084507Y0067428D03*
X0084090Y0068138D03*
X0083007Y0069968D03*
X0083007Y0065718D03*
X0084882Y0064718D03*
X0084757Y0064508D03*
X0084590Y0064258D03*
X0084382Y0063928D03*
X0084340Y0063848D03*
X0084257Y0063718D03*
X0084215Y0063638D03*
X0084132Y0063508D03*
X0083882Y0063098D03*
X0083715Y0062848D03*
X0083632Y0062718D03*
X0083507Y0062508D03*
X0083465Y0062428D03*
X0083257Y0062098D03*
X0083132Y0061888D03*
X0083090Y0061848D03*
X0082965Y0061638D03*
X0082882Y0061508D03*
X0082840Y0061428D03*
X0082715Y0061218D03*
X0082632Y0061098D03*
X0082590Y0061008D03*
X0082507Y0060888D03*
X0082382Y0060678D03*
X0082340Y0060638D03*
X0082215Y0060428D03*
X0082090Y0060218D03*
X0082007Y0060098D03*
X0081882Y0059888D03*
X0081757Y0059678D03*
X0081632Y0059468D03*
X0081590Y0059428D03*
X0081465Y0059218D03*
X0077007Y0060008D03*
X0076715Y0060468D03*
X0076590Y0060678D03*
X0076382Y0061008D03*
X0076215Y0061258D03*
X0076090Y0061468D03*
X0076007Y0061598D03*
X0075965Y0061678D03*
X0075757Y0062008D03*
X0075590Y0062258D03*
X0075465Y0062468D03*
X0075382Y0062598D03*
X0075340Y0062678D03*
X0071965Y0066678D03*
X0079632Y0066678D03*
X0077132Y0108758D03*
D33*
X0077382Y0100778D03*
X0077424Y0100738D03*
X0077382Y0125118D03*
X0082965Y0070028D03*
X0083090Y0069828D03*
X0083132Y0069778D03*
X0083215Y0069618D03*
X0083340Y0069408D03*
X0083382Y0069328D03*
X0083465Y0069198D03*
X0083507Y0069118D03*
X0083549Y0069078D03*
X0083632Y0068908D03*
X0083715Y0068778D03*
X0083757Y0068698D03*
X0083840Y0068578D03*
X0083882Y0068488D03*
X0083965Y0068368D03*
X0084007Y0068278D03*
X0084132Y0068078D03*
X0084215Y0067908D03*
X0084257Y0067868D03*
X0084340Y0067698D03*
X0084382Y0067658D03*
X0084465Y0067488D03*
X0084590Y0067278D03*
X0084715Y0067078D03*
X0084757Y0066988D03*
X0084840Y0066868D03*
X0084882Y0066778D03*
X0079715Y0066528D03*
X0079590Y0066738D03*
X0079507Y0066868D03*
X0079465Y0066948D03*
X0079340Y0067158D03*
X0077090Y0066238D03*
X0073632Y0067408D03*
X0072465Y0067868D03*
X0075215Y0062908D03*
X0075257Y0062828D03*
D34*
X0075507Y0062408D03*
X0075632Y0062198D03*
X0076132Y0061408D03*
X0076257Y0061198D03*
X0076757Y0060408D03*
X0076882Y0060198D03*
X0081924Y0059948D03*
X0083007Y0061698D03*
X0083757Y0062908D03*
X0084090Y0063448D03*
X0084715Y0064448D03*
X0084840Y0064658D03*
X0082882Y0070158D03*
X0077007Y0066158D03*
X0072507Y0067948D03*
D35*
X0075299Y0062758D03*
X0075549Y0062348D03*
X0075674Y0062138D03*
X0075799Y0061928D03*
X0076174Y0061348D03*
X0076299Y0061138D03*
X0076799Y0060348D03*
X0076924Y0060138D03*
X0081549Y0059348D03*
X0081799Y0059758D03*
X0081966Y0060008D03*
X0082174Y0060348D03*
X0082424Y0060758D03*
X0082549Y0060968D03*
X0083049Y0061758D03*
X0083174Y0061968D03*
X0083299Y0062178D03*
X0083591Y0062638D03*
X0083674Y0062758D03*
X0083799Y0062968D03*
X0083924Y0063178D03*
X0084049Y0063388D03*
X0084174Y0063598D03*
X0084424Y0063968D03*
X0084549Y0064178D03*
X0084674Y0064388D03*
X0084799Y0064598D03*
X0083674Y0068848D03*
X0082924Y0070098D03*
D36*
X0081299Y0088218D03*
X0080174Y0088258D03*
X0082424Y0091098D03*
X0082799Y0091008D03*
X0083049Y0090968D03*
X0083174Y0090928D03*
X0083424Y0090888D03*
X0083591Y0090848D03*
X0083674Y0090848D03*
X0084049Y0090758D03*
X0084174Y0090718D03*
X0084424Y0090678D03*
X0084549Y0090638D03*
X0084674Y0090638D03*
X0084799Y0090598D03*
X0080924Y0091428D03*
X0080799Y0091428D03*
X0080674Y0091468D03*
X0080549Y0091468D03*
X0080424Y0091508D03*
X0080049Y0091598D03*
X0079799Y0091638D03*
X0079549Y0091678D03*
X0079424Y0091718D03*
X0077591Y0088138D03*
X0080299Y0098098D03*
X0080674Y0098008D03*
X0080799Y0097968D03*
X0080924Y0097968D03*
X0081049Y0097928D03*
X0081174Y0097888D03*
X0081299Y0097888D03*
X0081424Y0097848D03*
X0081799Y0097758D03*
X0082049Y0097718D03*
X0082174Y0097678D03*
X0082299Y0097678D03*
X0082424Y0097638D03*
X0082674Y0097598D03*
X0078424Y0102758D03*
X0076424Y0103178D03*
X0075424Y0103388D03*
X0077341Y0108718D03*
X0079049Y0109178D03*
X0079174Y0109138D03*
X0079299Y0109138D03*
X0079424Y0109098D03*
X0079799Y0109008D03*
X0079924Y0109008D03*
X0080049Y0108968D03*
X0080299Y0108928D03*
X0080424Y0108888D03*
X0080674Y0108848D03*
X0081049Y0108758D03*
X0081299Y0108718D03*
X0081424Y0108678D03*
X0081674Y0108638D03*
X0081799Y0108598D03*
X0082299Y0108508D03*
X0082424Y0108468D03*
X0082674Y0108428D03*
X0082799Y0108388D03*
X0082924Y0108388D03*
X0081424Y0115718D03*
X0080799Y0115598D03*
X0080674Y0115598D03*
X0080549Y0115598D03*
X0079299Y0115848D03*
X0079174Y0115888D03*
X0078924Y0116008D03*
X0078799Y0116098D03*
X0080424Y0122388D03*
X0080549Y0122388D03*
X0080674Y0122348D03*
X0080299Y0122428D03*
X0080174Y0122468D03*
X0081049Y0122258D03*
X0081299Y0122218D03*
X0081424Y0122178D03*
X0081549Y0122178D03*
X0081674Y0122138D03*
X0081799Y0122098D03*
X0082299Y0122008D03*
X0082424Y0121968D03*
X0082549Y0121968D03*
X0082674Y0121928D03*
X0082799Y0121888D03*
X0082924Y0121888D03*
D37*
X0082965Y0121868D03*
X0082382Y0121988D03*
X0081757Y0122118D03*
X0080590Y0122368D03*
X0078507Y0119488D03*
X0081090Y0115618D03*
X0081132Y0115618D03*
X0081215Y0115618D03*
X0079382Y0109118D03*
X0079965Y0108988D03*
X0081757Y0108618D03*
X0082965Y0108368D03*
X0082507Y0104988D03*
X0082465Y0104988D03*
X0083007Y0104868D03*
X0081882Y0105118D03*
X0081840Y0105118D03*
X0081257Y0105238D03*
X0081215Y0105238D03*
X0080715Y0105368D03*
X0080632Y0105368D03*
X0080090Y0105488D03*
X0080007Y0105488D03*
X0079507Y0105618D03*
X0079465Y0105618D03*
X0080757Y0097988D03*
X0081340Y0097868D03*
X0079882Y0091618D03*
X0079340Y0091738D03*
X0080507Y0091488D03*
X0082882Y0090988D03*
X0083507Y0090868D03*
X0084715Y0090618D03*
X0081257Y0088238D03*
X0080840Y0074868D03*
X0078132Y0074868D03*
X0078715Y0059238D03*
D38*
X0076965Y0060073D03*
X0076840Y0060283D03*
X0076340Y0061073D03*
X0075715Y0062073D03*
X0074882Y0066783D03*
X0082132Y0060283D03*
X0082465Y0060823D03*
X0083215Y0062033D03*
X0083549Y0062573D03*
X0084632Y0064323D03*
X0081507Y0059283D03*
X0081382Y0059073D03*
X0081340Y0059033D03*
D39*
X0081715Y0059618D03*
X0082257Y0060488D03*
X0083340Y0062238D03*
X0083965Y0063238D03*
X0084507Y0064118D03*
X0076632Y0060618D03*
X0076465Y0060868D03*
X0075840Y0061868D03*
X0075090Y0064618D03*
D40*
X0077507Y0088198D03*
X0076507Y0088408D03*
X0079507Y0091698D03*
X0079715Y0091658D03*
X0083090Y0090948D03*
X0083132Y0090948D03*
X0084507Y0090658D03*
X0082840Y0093698D03*
X0082340Y0097658D03*
X0082132Y0097698D03*
X0081132Y0097908D03*
X0082632Y0104948D03*
X0082840Y0104908D03*
X0082882Y0104908D03*
X0081632Y0105158D03*
X0081507Y0105198D03*
X0081465Y0105198D03*
X0080507Y0105408D03*
X0080465Y0105408D03*
X0080257Y0105448D03*
X0080215Y0105448D03*
X0079340Y0105658D03*
X0079257Y0105658D03*
X0080382Y0108908D03*
X0081382Y0108698D03*
X0082757Y0108408D03*
X0081257Y0115658D03*
X0078465Y0119448D03*
X0081382Y0122198D03*
X0081590Y0122158D03*
X0082590Y0121948D03*
X0082757Y0121908D03*
D41*
X0083257Y0069553D03*
X0084465Y0064053D03*
X0084007Y0063303D03*
X0083840Y0063053D03*
X0083382Y0062303D03*
X0082757Y0061303D03*
X0081840Y0059803D03*
X0076507Y0060803D03*
X0075882Y0061803D03*
D42*
X0076049Y0061533D03*
X0076674Y0060533D03*
X0084299Y0063783D03*
X0077341Y0100823D03*
D43*
X0080299Y0105448D03*
X0080424Y0105408D03*
X0081424Y0105198D03*
X0081674Y0105158D03*
X0082674Y0104948D03*
X0082799Y0104908D03*
X0082549Y0108448D03*
X0081549Y0108658D03*
X0080174Y0108948D03*
X0079174Y0105698D03*
X0079299Y0105658D03*
X0081299Y0115658D03*
X0079674Y0091658D03*
X0083299Y0090908D03*
X0084299Y0090698D03*
X0076549Y0088408D03*
X0078049Y0074908D03*
D44*
X0078299Y0074823D03*
X0080799Y0074823D03*
X0081174Y0088283D03*
X0080299Y0088323D03*
X0080299Y0091533D03*
X0083924Y0090783D03*
X0081549Y0097823D03*
X0080549Y0098033D03*
X0082049Y0105073D03*
X0082299Y0105033D03*
X0081049Y0105283D03*
X0080799Y0105323D03*
X0079924Y0105533D03*
X0079799Y0105533D03*
X0079674Y0105573D03*
X0081966Y0108573D03*
X0082174Y0108533D03*
X0079549Y0109073D03*
X0080924Y0115573D03*
X0081424Y0119323D03*
X0081966Y0122073D03*
X0082174Y0122033D03*
D45*
X0082132Y0122053D03*
X0082090Y0122053D03*
X0082007Y0122053D03*
X0080882Y0122303D03*
X0080840Y0122303D03*
X0079715Y0109053D03*
X0079632Y0109053D03*
X0080840Y0108803D03*
X0080882Y0108803D03*
X0082007Y0108553D03*
X0082090Y0108553D03*
X0082132Y0108553D03*
X0078215Y0102803D03*
X0083007Y0101803D03*
X0081715Y0097803D03*
X0081632Y0097803D03*
X0081590Y0097803D03*
X0080507Y0098053D03*
X0080465Y0098053D03*
X0080382Y0098053D03*
X0082840Y0097553D03*
X0082882Y0097553D03*
X0080257Y0091553D03*
X0080215Y0091553D03*
X0079132Y0091803D03*
X0079090Y0091803D03*
X0082590Y0091053D03*
X0082632Y0091053D03*
X0083757Y0090803D03*
X0083840Y0090803D03*
X0083882Y0090803D03*
D46*
X0083799Y0090803D03*
X0082674Y0091053D03*
X0082549Y0091053D03*
X0080174Y0091553D03*
X0081674Y0097803D03*
X0082799Y0097553D03*
X0082924Y0097553D03*
X0080424Y0098053D03*
X0082049Y0108553D03*
X0080924Y0108803D03*
X0080799Y0108803D03*
X0079674Y0109053D03*
X0082049Y0122053D03*
X0080924Y0122303D03*
X0080799Y0122303D03*
D47*
X0077215Y0100928D03*
X0083715Y0077928D03*
X0078632Y0066678D03*
X0074715Y0066678D03*
X0073215Y0066678D03*
D48*
X0077549Y0066533D03*
X0080007Y0066533D03*
X0080757Y0074823D03*
X0078257Y0074823D03*
X0080215Y0088283D03*
X0080340Y0091533D03*
X0080132Y0091573D03*
X0080090Y0091573D03*
X0082507Y0091073D03*
X0082715Y0091033D03*
X0083715Y0090823D03*
X0082965Y0097533D03*
X0082757Y0097573D03*
X0081757Y0097783D03*
X0082215Y0105033D03*
X0082257Y0105033D03*
X0082090Y0105073D03*
X0082007Y0105073D03*
X0081090Y0105283D03*
X0081007Y0105283D03*
X0080882Y0105323D03*
X0080840Y0105323D03*
X0079882Y0105533D03*
X0079840Y0105533D03*
X0079715Y0105573D03*
X0079632Y0105573D03*
X0080757Y0108823D03*
X0080965Y0108783D03*
X0079757Y0109033D03*
X0079590Y0109073D03*
X0080882Y0115573D03*
X0080965Y0115573D03*
X0081465Y0119283D03*
X0080965Y0122283D03*
X0080757Y0122323D03*
D49*
X0083674Y0077883D03*
X0082924Y0065723D03*
D50*
X0079340Y0069593D03*
X0079215Y0069383D03*
X0083632Y0077883D03*
X0077382Y0059973D03*
X0078590Y0059133D03*
X0078382Y0098343D03*
X0078215Y0098383D03*
X0077424Y0098553D03*
X0077382Y0098553D03*
X0078215Y0122723D03*
X0078257Y0122723D03*
X0078007Y0122763D03*
X0077840Y0122803D03*
X0077632Y0122843D03*
X0077424Y0122883D03*
D51*
X0078424Y0119388D03*
X0078924Y0095348D03*
X0079049Y0095348D03*
X0079549Y0095348D03*
X0079674Y0095348D03*
X0077466Y0094638D03*
X0081174Y0091388D03*
X0081299Y0091388D03*
X0081424Y0088138D03*
X0082799Y0093718D03*
X0083591Y0077888D03*
X0081049Y0074968D03*
X0077799Y0075008D03*
X0080049Y0066508D03*
X0074924Y0063888D03*
D52*
X0083591Y0084053D03*
D53*
X0081632Y0087928D03*
X0076090Y0088138D03*
X0077632Y0094638D03*
X0083549Y0077888D03*
X0078965Y0059468D03*
D54*
X0083549Y0084303D03*
D55*
X0083507Y0077863D03*
X0082507Y0065743D03*
D56*
X0083507Y0084428D03*
D57*
X0083465Y0077868D03*
X0081757Y0075738D03*
X0081132Y0063618D03*
X0078007Y0094618D03*
D58*
X0074715Y0085988D03*
X0083465Y0084528D03*
D59*
X0083424Y0062368D03*
X0082799Y0061368D03*
X0076549Y0060738D03*
X0075924Y0061738D03*
D60*
X0083424Y0077868D03*
X0077924Y0108618D03*
D61*
X0074799Y0086013D03*
X0083424Y0084593D03*
D62*
X0080007Y0079493D03*
X0079965Y0079493D03*
X0083382Y0077863D03*
X0080840Y0068283D03*
D63*
X0082882Y0077928D03*
X0083382Y0084678D03*
D64*
X0083340Y0077888D03*
X0082257Y0065758D03*
X0082632Y0117348D03*
X0077632Y0117968D03*
D65*
X0078215Y0107573D03*
X0078257Y0107573D03*
X0078340Y0107573D03*
X0078382Y0107573D03*
X0078465Y0093613D03*
X0078507Y0093613D03*
X0082007Y0092863D03*
X0083340Y0084743D03*
X0075007Y0086113D03*
X0074715Y0079323D03*
X0081715Y0065783D03*
D66*
X0083299Y0077863D03*
X0078674Y0112613D03*
X0077466Y0112863D03*
X0077716Y0117953D03*
D67*
X0083299Y0084803D03*
D68*
X0083257Y0077868D03*
D69*
X0083257Y0084848D03*
X0078632Y0085598D03*
D70*
X0083215Y0077868D03*
X0082090Y0065738D03*
X0079590Y0061698D03*
X0077840Y0117948D03*
D71*
X0078590Y0085638D03*
X0083215Y0084888D03*
X0074882Y0079178D03*
D72*
X0075799Y0077343D03*
X0083174Y0077883D03*
D73*
X0083174Y0084928D03*
D74*
X0073424Y0069283D03*
X0074424Y0068533D03*
X0078799Y0066573D03*
X0080174Y0064283D03*
X0079299Y0061783D03*
X0083174Y0117283D03*
D75*
X0076007Y0081758D03*
X0079465Y0065638D03*
X0080382Y0064138D03*
X0083132Y0065718D03*
D76*
X0083132Y0077908D03*
D77*
X0082632Y0077883D03*
X0083132Y0084973D03*
X0083090Y0085013D03*
X0078382Y0085763D03*
D78*
X0083132Y0093633D03*
X0075007Y0070263D03*
X0074882Y0070223D03*
X0074715Y0070133D03*
X0074632Y0070093D03*
X0074590Y0070093D03*
X0074465Y0070013D03*
X0075132Y0068973D03*
X0075215Y0069013D03*
X0075257Y0069013D03*
X0075465Y0069093D03*
X0075632Y0069133D03*
X0074965Y0068883D03*
X0074882Y0068843D03*
X0075715Y0067723D03*
X0075757Y0067723D03*
X0075840Y0067763D03*
X0075590Y0067633D03*
X0075507Y0067593D03*
X0080257Y0064223D03*
D79*
X0079215Y0065828D03*
X0078757Y0066578D03*
X0076715Y0065868D03*
X0075965Y0065448D03*
X0075882Y0065408D03*
X0075840Y0065368D03*
X0075757Y0065328D03*
X0075715Y0065278D03*
X0075132Y0067238D03*
X0074090Y0068198D03*
X0073215Y0069078D03*
X0073257Y0069118D03*
X0078382Y0061368D03*
X0078257Y0061278D03*
X0078132Y0061198D03*
X0077757Y0059158D03*
X0082465Y0070618D03*
X0075882Y0081578D03*
X0083132Y0112618D03*
D80*
X0083132Y0117283D03*
X0077507Y0125033D03*
X0077132Y0066283D03*
D81*
X0075632Y0065218D03*
X0074632Y0066598D03*
X0074007Y0068098D03*
X0072965Y0068758D03*
X0073132Y0068968D03*
X0071882Y0066468D03*
X0078007Y0061098D03*
X0078215Y0061258D03*
X0077674Y0059218D03*
X0080965Y0058598D03*
X0079965Y0064258D03*
X0083090Y0065718D03*
X0082507Y0070598D03*
X0077090Y0108758D03*
X0081090Y0118888D03*
X0077132Y0125388D03*
D82*
X0078132Y0117908D03*
X0083090Y0077908D03*
D83*
X0082715Y0070363D03*
X0079090Y0065903D03*
X0080007Y0064403D03*
X0076882Y0066033D03*
X0074757Y0066703D03*
X0073757Y0067703D03*
X0077549Y0059363D03*
X0081132Y0058783D03*
X0083090Y0093653D03*
D84*
X0083049Y0065723D03*
X0071924Y0066593D03*
D85*
X0083049Y0077903D03*
D86*
X0082549Y0077843D03*
X0083049Y0085053D03*
X0075674Y0086263D03*
D87*
X0083049Y0093658D03*
X0072424Y0067738D03*
D88*
X0072174Y0066988D03*
X0083049Y0112698D03*
X0078299Y0124658D03*
D89*
X0078924Y0119703D03*
X0078799Y0119653D03*
X0083049Y0117283D03*
X0077924Y0105863D03*
X0077799Y0105903D03*
X0077716Y0105903D03*
X0077591Y0105953D03*
X0077341Y0105993D03*
X0077049Y0088403D03*
X0076424Y0084073D03*
X0076299Y0084073D03*
X0076174Y0084113D03*
X0076049Y0084113D03*
X0076674Y0084033D03*
X0079299Y0074613D03*
X0079424Y0074613D03*
X0079549Y0074613D03*
X0079674Y0074613D03*
X0079799Y0074613D03*
X0079924Y0074613D03*
X0080049Y0074613D03*
X0080174Y0074653D03*
X0079299Y0069533D03*
X0079174Y0069323D03*
D90*
X0083007Y0077928D03*
X0082007Y0117428D03*
D91*
X0080507Y0117598D03*
X0079882Y0117678D03*
X0079840Y0117678D03*
X0079757Y0117678D03*
X0075840Y0086258D03*
X0078007Y0085928D03*
X0078090Y0085888D03*
X0079090Y0085718D03*
X0079132Y0085718D03*
X0083007Y0085098D03*
X0082507Y0077848D03*
X0075132Y0078968D03*
X0080382Y0067928D03*
D92*
X0077299Y0066428D03*
X0078340Y0058928D03*
X0083007Y0093678D03*
D93*
X0076632Y0088428D03*
X0076590Y0088428D03*
X0080132Y0105468D03*
X0080340Y0105428D03*
X0080382Y0105428D03*
X0080590Y0105388D03*
X0081340Y0105218D03*
X0081382Y0105218D03*
X0081590Y0105178D03*
X0081715Y0105138D03*
X0081757Y0105138D03*
X0082590Y0104968D03*
X0082715Y0104928D03*
X0082757Y0104928D03*
X0082965Y0104888D03*
X0079382Y0105638D03*
X0081132Y0111968D03*
X0081215Y0111968D03*
X0081257Y0111968D03*
X0080382Y0112138D03*
X0080340Y0112138D03*
X0080215Y0112178D03*
X0080132Y0112178D03*
X0080090Y0112178D03*
X0080007Y0112218D03*
X0079965Y0112218D03*
X0079882Y0112218D03*
X0079257Y0112388D03*
X0079215Y0112388D03*
X0079132Y0112388D03*
X0079090Y0112388D03*
X0079007Y0112428D03*
X0078965Y0112428D03*
X0078882Y0112428D03*
X0078840Y0112468D03*
X0078757Y0112468D03*
X0078715Y0112468D03*
X0076840Y0112888D03*
X0076757Y0112888D03*
X0076632Y0112928D03*
X0076590Y0112928D03*
X0076465Y0112968D03*
X0076382Y0112968D03*
X0075632Y0113138D03*
X0079382Y0119718D03*
X0081340Y0119388D03*
X0083007Y0112718D03*
X0082757Y0065718D03*
X0074882Y0063888D03*
D94*
X0077674Y0075073D03*
X0081132Y0075033D03*
X0081465Y0094823D03*
X0081007Y0095033D03*
X0080882Y0095073D03*
X0080132Y0095283D03*
X0080090Y0095283D03*
X0080007Y0095283D03*
X0079882Y0095323D03*
X0079840Y0095323D03*
X0078882Y0095323D03*
X0078840Y0095323D03*
X0078757Y0095283D03*
X0079715Y0098283D03*
X0078840Y0105823D03*
X0078590Y0116283D03*
X0083007Y0117283D03*
D95*
X0077507Y0100678D03*
X0073382Y0066888D03*
X0075090Y0063178D03*
X0082965Y0065718D03*
D96*
X0082965Y0077928D03*
X0081882Y0117428D03*
D97*
X0080465Y0117618D03*
X0080382Y0117618D03*
X0080340Y0117618D03*
X0080257Y0117618D03*
X0080132Y0117658D03*
X0080090Y0117658D03*
X0080007Y0117658D03*
X0079965Y0117658D03*
X0076007Y0086278D03*
X0075965Y0086278D03*
X0075882Y0086278D03*
X0077965Y0085948D03*
X0082965Y0085118D03*
X0082465Y0077828D03*
D98*
X0079882Y0066508D03*
X0078132Y0065388D03*
X0078007Y0065598D03*
X0078465Y0064848D03*
X0078590Y0064638D03*
X0078715Y0064428D03*
X0078840Y0064218D03*
X0078965Y0064008D03*
X0079132Y0063758D03*
X0079382Y0063348D03*
X0079507Y0063138D03*
X0077382Y0066508D03*
X0072132Y0066928D03*
X0082882Y0065718D03*
X0082965Y0093678D03*
X0078007Y0100428D03*
X0077215Y0108718D03*
X0078007Y0124758D03*
D99*
X0079965Y0122528D03*
X0080090Y0122488D03*
X0080215Y0122448D03*
X0078715Y0116158D03*
X0078757Y0116118D03*
X0078840Y0116078D03*
X0078882Y0116028D03*
X0078965Y0115988D03*
X0079132Y0115908D03*
X0079215Y0115868D03*
X0079257Y0115868D03*
X0079340Y0115828D03*
X0079382Y0115828D03*
X0081465Y0115738D03*
X0082965Y0112698D03*
X0078965Y0109158D03*
X0078965Y0105778D03*
X0079007Y0105738D03*
X0078382Y0102778D03*
X0078340Y0102778D03*
X0078257Y0102778D03*
X0078132Y0102828D03*
X0078090Y0102828D03*
X0078007Y0102868D03*
X0077965Y0102868D03*
X0077882Y0102868D03*
X0077840Y0102868D03*
X0077757Y0102908D03*
X0077674Y0102908D03*
X0077632Y0102908D03*
X0077549Y0102948D03*
X0077507Y0102948D03*
X0077382Y0102988D03*
X0077299Y0102988D03*
X0077257Y0102988D03*
X0076632Y0103118D03*
X0076590Y0103158D03*
X0076507Y0103158D03*
X0076465Y0103158D03*
X0076382Y0103198D03*
X0076340Y0103198D03*
X0076257Y0103198D03*
X0076215Y0103238D03*
X0076132Y0103238D03*
X0076090Y0103238D03*
X0076007Y0103278D03*
X0075965Y0103278D03*
X0075882Y0103278D03*
X0075840Y0103278D03*
X0075757Y0103328D03*
X0075715Y0103328D03*
X0075632Y0103328D03*
X0075590Y0103368D03*
X0075507Y0103368D03*
X0075465Y0103368D03*
X0075382Y0103408D03*
X0075340Y0103408D03*
X0075257Y0103408D03*
X0075215Y0103448D03*
X0075132Y0103448D03*
X0075090Y0103448D03*
X0078465Y0102738D03*
X0078507Y0102738D03*
X0078590Y0102738D03*
X0078632Y0102698D03*
X0078715Y0102698D03*
X0078757Y0102698D03*
X0078840Y0102658D03*
X0078882Y0102658D03*
X0078965Y0102658D03*
X0079007Y0102658D03*
X0079090Y0102618D03*
X0079132Y0102618D03*
X0079257Y0102578D03*
X0079340Y0102578D03*
X0079382Y0102578D03*
X0079465Y0102528D03*
X0079507Y0102528D03*
X0079590Y0102528D03*
X0079632Y0102488D03*
X0079715Y0102488D03*
X0079757Y0102488D03*
X0079840Y0102448D03*
X0079882Y0102448D03*
X0079965Y0102448D03*
X0080007Y0102448D03*
X0080090Y0102408D03*
X0080132Y0102408D03*
X0080257Y0102368D03*
X0080340Y0102368D03*
X0080382Y0102368D03*
X0080465Y0102328D03*
X0080507Y0102328D03*
X0080590Y0102328D03*
X0080632Y0102278D03*
X0080715Y0102278D03*
X0080757Y0102278D03*
X0080840Y0102238D03*
X0080882Y0102238D03*
X0080965Y0102238D03*
X0081007Y0102238D03*
X0081090Y0102198D03*
X0081132Y0102198D03*
X0081257Y0102158D03*
X0081340Y0102158D03*
X0081382Y0102158D03*
X0081465Y0102118D03*
X0081507Y0102118D03*
X0081590Y0102118D03*
X0081632Y0102078D03*
X0081715Y0102078D03*
X0081757Y0102078D03*
X0081840Y0102028D03*
X0081882Y0102028D03*
X0081924Y0102028D03*
X0082007Y0102028D03*
X0082090Y0101988D03*
X0082132Y0101988D03*
X0082257Y0101948D03*
X0082340Y0101948D03*
X0082382Y0101948D03*
X0082465Y0101908D03*
X0082507Y0101908D03*
X0082590Y0101908D03*
X0082632Y0101868D03*
X0082715Y0101868D03*
X0082757Y0101868D03*
X0082840Y0101828D03*
X0082882Y0101828D03*
X0082965Y0101828D03*
X0080215Y0098118D03*
X0080090Y0098158D03*
X0080007Y0098158D03*
X0079465Y0095368D03*
X0079382Y0095368D03*
X0079340Y0095368D03*
X0079257Y0095368D03*
X0079215Y0095368D03*
X0079132Y0095368D03*
X0079007Y0091828D03*
X0080965Y0091408D03*
X0081007Y0091408D03*
X0081090Y0091408D03*
X0081132Y0091408D03*
X0081340Y0088198D03*
X0076382Y0088368D03*
X0077757Y0075028D03*
X0077840Y0074988D03*
X0077882Y0074988D03*
X0081007Y0074948D03*
X0079965Y0069908D03*
X0082715Y0065738D03*
X0079340Y0060278D03*
X0079257Y0060118D03*
X0079215Y0060078D03*
X0078757Y0059278D03*
D100*
X0077674Y0066553D03*
X0078882Y0068553D03*
X0078590Y0092053D03*
X0082965Y0117303D03*
X0079382Y0122803D03*
D101*
X0073299Y0066803D03*
X0075424Y0062553D03*
X0081674Y0059553D03*
X0082299Y0060553D03*
X0082924Y0061553D03*
D102*
X0082924Y0077948D03*
X0081799Y0117448D03*
D103*
X0082924Y0085138D03*
X0080424Y0067888D03*
D104*
X0078174Y0074868D03*
X0077466Y0088238D03*
X0079299Y0091738D03*
X0079924Y0091618D03*
X0082924Y0090988D03*
X0082549Y0097618D03*
X0081966Y0097738D03*
X0082424Y0104988D03*
X0081799Y0105118D03*
X0081299Y0105238D03*
X0080674Y0105368D03*
X0080049Y0105488D03*
X0079424Y0105618D03*
X0080549Y0108868D03*
X0081174Y0108738D03*
X0081299Y0111988D03*
X0081174Y0115618D03*
X0081049Y0115618D03*
X0081174Y0122238D03*
X0077466Y0059988D03*
D105*
X0077341Y0059948D03*
X0074799Y0063908D03*
X0082924Y0093698D03*
X0078049Y0098408D03*
X0077924Y0098448D03*
X0078299Y0122698D03*
X0077341Y0122908D03*
D106*
X0079924Y0122528D03*
X0080049Y0122488D03*
X0081549Y0119198D03*
X0079424Y0115828D03*
X0079049Y0115948D03*
X0081424Y0111988D03*
X0079049Y0105738D03*
X0078924Y0105778D03*
X0078174Y0102828D03*
X0078049Y0102828D03*
X0077924Y0102868D03*
X0077799Y0102908D03*
X0077716Y0102908D03*
X0077591Y0102948D03*
X0077466Y0102948D03*
X0077341Y0102988D03*
X0076674Y0103118D03*
X0076549Y0103158D03*
X0076299Y0103198D03*
X0076174Y0103238D03*
X0076049Y0103238D03*
X0075924Y0103278D03*
X0075799Y0103328D03*
X0075674Y0103328D03*
X0075549Y0103368D03*
X0075299Y0103408D03*
X0075174Y0103448D03*
X0075049Y0103448D03*
X0078299Y0102778D03*
X0078549Y0102738D03*
X0078674Y0102698D03*
X0078799Y0102698D03*
X0078924Y0102658D03*
X0079049Y0102618D03*
X0079174Y0102618D03*
X0079299Y0102578D03*
X0079424Y0102528D03*
X0079549Y0102528D03*
X0079674Y0102488D03*
X0079799Y0102488D03*
X0079924Y0102448D03*
X0080049Y0102408D03*
X0080174Y0102408D03*
X0080299Y0102368D03*
X0080424Y0102328D03*
X0080549Y0102328D03*
X0080674Y0102278D03*
X0080799Y0102278D03*
X0080924Y0102238D03*
X0081049Y0102198D03*
X0081174Y0102198D03*
X0081299Y0102158D03*
X0081424Y0102118D03*
X0081549Y0102118D03*
X0081674Y0102078D03*
X0081799Y0102078D03*
X0081966Y0102028D03*
X0082049Y0101988D03*
X0082174Y0101988D03*
X0082299Y0101948D03*
X0082424Y0101908D03*
X0082549Y0101908D03*
X0082674Y0101868D03*
X0082799Y0101868D03*
X0082924Y0101828D03*
X0080174Y0098118D03*
X0080049Y0098158D03*
X0079924Y0098198D03*
X0079424Y0095368D03*
X0079299Y0095368D03*
X0079174Y0095368D03*
X0078924Y0091868D03*
X0079049Y0091828D03*
X0079174Y0091778D03*
X0081049Y0091408D03*
X0080049Y0088198D03*
X0076424Y0088368D03*
X0077924Y0074948D03*
X0080924Y0074908D03*
X0078799Y0068578D03*
X0079299Y0060198D03*
X0079174Y0059988D03*
D107*
X0078674Y0059218D03*
X0079924Y0069928D03*
X0081674Y0079968D03*
X0082924Y0104888D03*
X0082549Y0104968D03*
X0081549Y0105178D03*
X0080549Y0105388D03*
X0080174Y0105468D03*
X0081174Y0111968D03*
X0080424Y0112138D03*
X0080299Y0112138D03*
X0080174Y0112178D03*
X0080049Y0112218D03*
X0079924Y0112218D03*
X0079174Y0112388D03*
X0079049Y0112428D03*
X0078924Y0112428D03*
X0078799Y0112468D03*
X0076799Y0112888D03*
X0076674Y0112928D03*
X0076549Y0112928D03*
X0076424Y0112968D03*
X0075674Y0113138D03*
X0079424Y0119718D03*
X0081299Y0119388D03*
D108*
X0082924Y0117278D03*
X0076049Y0088078D03*
X0081549Y0075408D03*
X0081174Y0068118D03*
X0079049Y0059528D03*
D109*
X0082882Y0085178D03*
X0082840Y0085218D03*
D110*
X0077007Y0083993D03*
X0076965Y0083993D03*
X0076757Y0084033D03*
X0076715Y0084033D03*
X0076632Y0084033D03*
X0076507Y0084073D03*
X0076465Y0084073D03*
X0076382Y0084073D03*
X0076340Y0084073D03*
X0076257Y0084113D03*
X0076215Y0084113D03*
X0076132Y0084113D03*
X0076090Y0084113D03*
X0077090Y0088403D03*
X0082882Y0093703D03*
X0077965Y0105863D03*
X0077757Y0105903D03*
X0077549Y0105953D03*
X0077507Y0105953D03*
X0077382Y0105993D03*
X0077299Y0105993D03*
X0077215Y0118033D03*
X0078965Y0119703D03*
X0079007Y0074653D03*
X0079257Y0074613D03*
X0079340Y0074613D03*
X0079382Y0074613D03*
X0079465Y0074613D03*
X0079507Y0074613D03*
X0079590Y0074613D03*
X0079632Y0074613D03*
X0079715Y0074613D03*
X0079757Y0074613D03*
X0079840Y0074613D03*
X0079882Y0074613D03*
X0079965Y0074613D03*
X0080007Y0074613D03*
X0080090Y0074613D03*
X0080132Y0074653D03*
X0080215Y0074653D03*
X0080257Y0074653D03*
X0079840Y0069993D03*
X0079382Y0069653D03*
X0079257Y0069453D03*
X0079132Y0069243D03*
X0078715Y0068573D03*
X0072257Y0067073D03*
D111*
X0077382Y0075243D03*
X0081257Y0075113D03*
X0076215Y0088243D03*
X0081590Y0094743D03*
X0078715Y0109113D03*
X0082882Y0112613D03*
X0078507Y0116363D03*
D112*
X0082882Y0117283D03*
X0082507Y0093783D03*
X0081340Y0063823D03*
D113*
X0082840Y0065718D03*
X0079632Y0069968D03*
X0078632Y0068508D03*
X0078590Y0068468D03*
X0078465Y0068258D03*
X0078382Y0068098D03*
X0078257Y0067888D03*
X0078007Y0067468D03*
X0077299Y0094638D03*
X0078215Y0100348D03*
X0078257Y0100348D03*
X0078132Y0100388D03*
D114*
X0073840Y0080178D03*
X0082840Y0070218D03*
X0074965Y0066928D03*
X0074590Y0063928D03*
X0077299Y0125178D03*
D115*
X0081882Y0092928D03*
X0081924Y0092928D03*
X0082840Y0077928D03*
D116*
X0077840Y0066553D03*
X0082382Y0093803D03*
X0082840Y0117303D03*
D117*
X0078049Y0122763D03*
X0077799Y0122803D03*
X0077591Y0098513D03*
X0077799Y0098473D03*
X0078174Y0098383D03*
X0078424Y0098343D03*
X0077341Y0094633D03*
X0079424Y0069723D03*
X0082799Y0065723D03*
D118*
X0082799Y0070263D03*
X0073674Y0067513D03*
X0072549Y0068053D03*
D119*
X0082799Y0077928D03*
X0081799Y0092968D03*
D120*
X0082799Y0085243D03*
X0082299Y0077743D03*
D121*
X0077174Y0075363D03*
X0081549Y0091403D03*
X0082799Y0112573D03*
D122*
X0082799Y0117328D03*
X0077466Y0117988D03*
X0082424Y0065738D03*
X0079924Y0061698D03*
D123*
X0082757Y0070303D03*
D124*
X0082757Y0077908D03*
X0074840Y0079198D03*
D125*
X0075340Y0078803D03*
X0082257Y0077723D03*
X0082757Y0085263D03*
X0079382Y0085803D03*
D126*
X0081382Y0091388D03*
X0078757Y0091928D03*
X0078715Y0091968D03*
X0077507Y0094638D03*
X0080382Y0095218D03*
X0080715Y0095138D03*
X0082757Y0093718D03*
X0078757Y0105888D03*
X0078757Y0109138D03*
X0079632Y0122638D03*
X0079590Y0122678D03*
X0077424Y0075218D03*
X0077549Y0075138D03*
X0074965Y0063888D03*
X0080340Y0061928D03*
X0080465Y0062138D03*
X0080507Y0062218D03*
X0080632Y0062428D03*
X0080757Y0062638D03*
D127*
X0080132Y0066533D03*
X0077007Y0075493D03*
X0076965Y0075533D03*
X0079340Y0098493D03*
X0082757Y0112573D03*
X0079340Y0122823D03*
D128*
X0082757Y0117323D03*
X0081007Y0063533D03*
D129*
X0082715Y0077908D03*
X0078507Y0085698D03*
X0075382Y0086198D03*
X0075340Y0086198D03*
D130*
X0079465Y0085823D03*
X0082715Y0085283D03*
X0075382Y0078783D03*
D131*
X0077132Y0075403D03*
X0081340Y0075203D03*
X0075007Y0063863D03*
X0077757Y0087953D03*
X0078632Y0092033D03*
X0078590Y0095203D03*
X0082715Y0093743D03*
X0079465Y0122743D03*
D132*
X0082715Y0117303D03*
X0077965Y0066553D03*
D133*
X0077049Y0066198D03*
X0076424Y0060948D03*
X0077049Y0059948D03*
X0081424Y0059158D03*
X0082049Y0060158D03*
X0082674Y0061158D03*
X0077341Y0125158D03*
D134*
X0079674Y0122638D03*
X0080424Y0095218D03*
X0080549Y0095178D03*
X0081174Y0094968D03*
X0081424Y0091388D03*
X0077466Y0075178D03*
X0082674Y0065718D03*
D135*
X0079549Y0065153D03*
X0075174Y0064783D03*
X0081174Y0058823D03*
X0082674Y0070403D03*
D136*
X0082674Y0077903D03*
X0078924Y0085653D03*
X0078424Y0085743D03*
D137*
X0082674Y0085303D03*
D138*
X0081799Y0079743D03*
X0080174Y0069743D03*
X0082674Y0093743D03*
X0078549Y0095113D03*
D139*
X0079299Y0098533D03*
X0082674Y0112533D03*
X0076924Y0075573D03*
X0078924Y0068573D03*
X0081549Y0067533D03*
X0079549Y0060823D03*
D140*
X0082674Y0117323D03*
D141*
X0077299Y0118013D03*
X0081715Y0094593D03*
X0081590Y0087973D03*
X0079840Y0087973D03*
X0081382Y0075223D03*
X0080132Y0069763D03*
X0081382Y0067883D03*
X0081465Y0067723D03*
X0081507Y0067633D03*
X0082632Y0065723D03*
D142*
X0082632Y0070448D03*
X0072757Y0068448D03*
D143*
X0082632Y0085323D03*
X0082590Y0085363D03*
D144*
X0078965Y0079178D03*
X0076757Y0075718D03*
X0076840Y0075638D03*
X0081715Y0091508D03*
X0082632Y0093758D03*
X0077674Y0094638D03*
X0082632Y0112508D03*
D145*
X0076882Y0075618D03*
X0081507Y0075368D03*
X0082590Y0065738D03*
X0079007Y0059488D03*
D146*
X0077632Y0059263D03*
X0075382Y0065013D03*
X0072840Y0068593D03*
X0082590Y0070513D03*
D147*
X0082590Y0077863D03*
X0078340Y0085783D03*
X0078257Y0085823D03*
X0075632Y0086243D03*
X0075590Y0086243D03*
D148*
X0077757Y0094638D03*
X0082590Y0093758D03*
X0082590Y0112508D03*
X0076715Y0075758D03*
X0081590Y0075468D03*
D149*
X0074090Y0080073D03*
X0082590Y0117323D03*
D150*
X0077716Y0094638D03*
X0080299Y0069638D03*
X0082549Y0065718D03*
D151*
X0082549Y0070533D03*
X0077924Y0061033D03*
X0077799Y0059073D03*
D152*
X0082549Y0085388D03*
D153*
X0082549Y0093783D03*
D154*
X0077591Y0108658D03*
X0082549Y0112488D03*
X0080049Y0061698D03*
D155*
X0082174Y0065763D03*
X0082549Y0117343D03*
D156*
X0082507Y0085408D03*
X0082465Y0085408D03*
X0082007Y0077658D03*
D157*
X0081132Y0068158D03*
X0079465Y0060738D03*
X0082507Y0112488D03*
D158*
X0082507Y0117343D03*
X0074132Y0085513D03*
D159*
X0076382Y0076113D03*
X0081007Y0068243D03*
X0082465Y0065743D03*
X0077424Y0117993D03*
D160*
X0082257Y0112453D03*
X0077674Y0108653D03*
X0082465Y0093783D03*
X0076465Y0076033D03*
X0080257Y0066533D03*
D161*
X0081382Y0063888D03*
X0076590Y0075888D03*
X0079215Y0098638D03*
X0082465Y0112468D03*
X0079215Y0122968D03*
D162*
X0082465Y0117368D03*
X0074174Y0085578D03*
X0074132Y0080078D03*
X0075840Y0077158D03*
D163*
X0073299Y0069138D03*
X0074216Y0068348D03*
X0076299Y0065638D03*
X0076424Y0065678D03*
X0078799Y0061598D03*
X0078924Y0061638D03*
X0078674Y0061508D03*
X0078549Y0061468D03*
X0078424Y0061388D03*
X0082424Y0070638D03*
D164*
X0082424Y0077803D03*
D165*
X0081966Y0077638D03*
X0082424Y0085428D03*
X0079799Y0085888D03*
D166*
X0082424Y0093783D03*
X0079049Y0068573D03*
D167*
X0076549Y0075948D03*
X0082424Y0112448D03*
D168*
X0082424Y0117368D03*
D169*
X0077965Y0108618D03*
X0082382Y0065738D03*
X0079882Y0061698D03*
D170*
X0079132Y0061718D03*
X0078840Y0061598D03*
X0078632Y0061508D03*
X0078590Y0061468D03*
X0078507Y0061428D03*
X0078465Y0061428D03*
X0078340Y0061348D03*
X0080840Y0058508D03*
X0076590Y0065758D03*
X0076507Y0065718D03*
X0076382Y0065678D03*
X0076340Y0065638D03*
X0076257Y0065598D03*
X0076215Y0065598D03*
X0076090Y0065508D03*
X0076007Y0065468D03*
X0075215Y0067348D03*
X0074132Y0068258D03*
X0082382Y0070678D03*
D171*
X0082382Y0077783D03*
X0079257Y0085783D03*
D172*
X0082382Y0085448D03*
X0075632Y0078618D03*
D173*
X0078215Y0074843D03*
X0078340Y0074803D03*
X0078382Y0074803D03*
X0078465Y0074763D03*
X0078507Y0074763D03*
X0080590Y0074763D03*
X0080632Y0074763D03*
X0080715Y0074803D03*
X0081632Y0080013D03*
X0081132Y0088303D03*
X0081090Y0088303D03*
X0081007Y0088343D03*
X0080965Y0088343D03*
X0080382Y0088343D03*
X0080340Y0088343D03*
X0080257Y0088303D03*
X0077424Y0088263D03*
X0081132Y0105263D03*
X0080965Y0105303D03*
X0080757Y0105343D03*
X0079965Y0105513D03*
X0079757Y0105553D03*
X0079590Y0105593D03*
X0081924Y0105093D03*
X0082132Y0105053D03*
X0082340Y0105013D03*
X0082382Y0105013D03*
X0081007Y0112013D03*
X0080965Y0112013D03*
X0080840Y0112053D03*
X0080757Y0112053D03*
X0080715Y0112053D03*
X0080632Y0112093D03*
X0080590Y0112093D03*
X0080507Y0112093D03*
X0079840Y0112263D03*
X0079757Y0112263D03*
X0079715Y0112263D03*
X0079632Y0112303D03*
X0079590Y0112303D03*
X0079507Y0112303D03*
X0079382Y0112343D03*
X0079340Y0112343D03*
X0077215Y0112803D03*
X0077132Y0112803D03*
X0077007Y0112843D03*
X0076965Y0112843D03*
X0076257Y0113013D03*
X0076215Y0113013D03*
X0076007Y0113053D03*
X0075882Y0113093D03*
X0075840Y0113093D03*
X0081007Y0115593D03*
X0081382Y0119343D03*
X0078757Y0068553D03*
D174*
X0079007Y0068553D03*
X0081257Y0063723D03*
X0076507Y0075973D03*
X0077840Y0094633D03*
X0082340Y0112473D03*
X0082382Y0112473D03*
X0077382Y0118013D03*
D175*
X0082382Y0117363D03*
D176*
X0077549Y0117993D03*
X0076090Y0076573D03*
X0082340Y0065743D03*
X0079840Y0061703D03*
D177*
X0079090Y0061698D03*
X0079007Y0061658D03*
X0078965Y0061658D03*
X0076465Y0065698D03*
X0075257Y0067408D03*
X0074299Y0068408D03*
X0073340Y0069198D03*
X0074507Y0063948D03*
X0082340Y0070698D03*
D178*
X0082340Y0077763D03*
D179*
X0081924Y0077638D03*
X0081882Y0077638D03*
X0082340Y0085468D03*
X0082257Y0085508D03*
D180*
X0082340Y0092698D03*
X0074590Y0079448D03*
D181*
X0082340Y0117363D03*
D182*
X0077591Y0117988D03*
X0079049Y0079618D03*
X0082299Y0065738D03*
D183*
X0079049Y0061698D03*
X0075299Y0067448D03*
X0074341Y0068448D03*
X0073549Y0069408D03*
X0082299Y0070698D03*
D184*
X0082299Y0085488D03*
D185*
X0082299Y0092743D03*
D186*
X0082299Y0112453D03*
X0079174Y0123073D03*
X0081049Y0068203D03*
X0081549Y0064203D03*
D187*
X0082299Y0117388D03*
D188*
X0077090Y0125468D03*
X0077090Y0101138D03*
X0077090Y0094638D03*
X0080715Y0070718D03*
X0080757Y0070718D03*
X0080840Y0070718D03*
X0080882Y0070718D03*
X0080965Y0070718D03*
X0081007Y0070718D03*
X0081090Y0070718D03*
X0081132Y0070718D03*
X0081215Y0070718D03*
X0081257Y0070718D03*
X0081340Y0070718D03*
X0081382Y0070718D03*
X0081465Y0070718D03*
X0081507Y0070718D03*
X0081590Y0070718D03*
X0081632Y0070718D03*
X0081715Y0070718D03*
X0081757Y0070718D03*
X0081840Y0070718D03*
X0081882Y0070718D03*
X0081924Y0070718D03*
X0082007Y0070718D03*
X0082090Y0070718D03*
X0082132Y0070718D03*
X0082215Y0070718D03*
X0082257Y0070718D03*
X0079465Y0064928D03*
X0075340Y0067468D03*
X0073590Y0069428D03*
X0073632Y0069468D03*
X0073840Y0069638D03*
X0073882Y0069678D03*
X0073965Y0069718D03*
X0079215Y0058468D03*
X0079257Y0058468D03*
X0079340Y0058468D03*
X0079382Y0058468D03*
X0079465Y0058468D03*
X0079507Y0058468D03*
X0079590Y0058468D03*
X0079632Y0058468D03*
X0079715Y0058468D03*
X0079757Y0058468D03*
X0079840Y0058468D03*
X0079882Y0058468D03*
X0079965Y0058468D03*
X0080007Y0058468D03*
X0080090Y0058468D03*
X0080132Y0058468D03*
X0080215Y0058468D03*
X0080257Y0058468D03*
X0080340Y0058468D03*
X0080382Y0058468D03*
X0080465Y0058468D03*
X0080507Y0058468D03*
X0080590Y0058468D03*
X0080632Y0058468D03*
X0080715Y0058468D03*
D189*
X0081757Y0065763D03*
X0074882Y0086053D03*
X0082257Y0092763D03*
X0078257Y0093593D03*
X0078215Y0093593D03*
X0081757Y0117473D03*
D190*
X0082257Y0117388D03*
D191*
X0082215Y0065743D03*
D192*
X0080590Y0067763D03*
X0082215Y0077723D03*
X0075465Y0078723D03*
X0079507Y0085843D03*
D193*
X0082215Y0085533D03*
X0075757Y0078533D03*
D194*
X0074632Y0079403D03*
X0082132Y0092823D03*
X0082215Y0092783D03*
X0078340Y0093613D03*
X0078132Y0107573D03*
X0078090Y0107573D03*
X0081715Y0117453D03*
D195*
X0082215Y0112428D03*
X0081215Y0063678D03*
D196*
X0082215Y0117388D03*
D197*
X0082174Y0070718D03*
X0082049Y0070718D03*
X0081966Y0070718D03*
X0081799Y0070718D03*
X0081674Y0070718D03*
X0081549Y0070718D03*
X0081424Y0070718D03*
X0081299Y0070718D03*
X0081174Y0070718D03*
X0081049Y0070718D03*
X0080924Y0070718D03*
X0080799Y0070718D03*
X0080674Y0070718D03*
X0074674Y0068718D03*
X0074549Y0068638D03*
X0079174Y0058468D03*
X0079299Y0058468D03*
X0079424Y0058468D03*
X0079549Y0058468D03*
X0079674Y0058468D03*
X0079799Y0058468D03*
X0079924Y0058468D03*
X0080049Y0058468D03*
X0080174Y0058468D03*
X0080299Y0058468D03*
X0080424Y0058468D03*
X0080549Y0058468D03*
X0080674Y0058468D03*
D198*
X0082174Y0077723D03*
X0079549Y0085843D03*
D199*
X0082174Y0085533D03*
D200*
X0082174Y0092783D03*
X0074924Y0086073D03*
X0074674Y0079363D03*
X0078174Y0107573D03*
D201*
X0079549Y0105593D03*
X0080924Y0105303D03*
X0081174Y0105263D03*
X0081966Y0105093D03*
X0082174Y0105053D03*
X0081049Y0112013D03*
X0080924Y0112013D03*
X0080799Y0112053D03*
X0080549Y0112093D03*
X0079799Y0112263D03*
X0079674Y0112263D03*
X0079549Y0112303D03*
X0079424Y0112343D03*
X0079299Y0112343D03*
X0077174Y0112803D03*
X0077049Y0112843D03*
X0076924Y0112843D03*
X0076049Y0113053D03*
X0078549Y0119513D03*
X0080674Y0074803D03*
D202*
X0081174Y0063658D03*
X0082174Y0112448D03*
D203*
X0082174Y0117388D03*
D204*
X0082132Y0065758D03*
D205*
X0082132Y0077698D03*
D206*
X0082132Y0085553D03*
D207*
X0079965Y0061698D03*
X0082090Y0112448D03*
X0082132Y0112448D03*
D208*
X0082132Y0117408D03*
D209*
X0075507Y0078678D03*
X0082090Y0077678D03*
X0080632Y0067718D03*
D210*
X0082090Y0085573D03*
D211*
X0074965Y0086093D03*
X0082090Y0092843D03*
X0078382Y0093593D03*
D212*
X0082090Y0117403D03*
X0078215Y0117903D03*
D213*
X0082049Y0065763D03*
D214*
X0082049Y0077658D03*
X0075549Y0078658D03*
D215*
X0082049Y0085593D03*
D216*
X0082049Y0092863D03*
X0078299Y0107573D03*
D217*
X0082049Y0112428D03*
D218*
X0082049Y0117408D03*
D219*
X0082007Y0065763D03*
D220*
X0082007Y0085613D03*
D221*
X0077965Y0094638D03*
X0077757Y0108638D03*
X0082007Y0112428D03*
X0076340Y0076178D03*
D222*
X0081966Y0065778D03*
D223*
X0081966Y0085613D03*
D224*
X0081966Y0092888D03*
D225*
X0081966Y0112448D03*
D226*
X0081966Y0117428D03*
X0074674Y0085968D03*
D227*
X0074465Y0085843D03*
X0081924Y0065763D03*
D228*
X0081924Y0085633D03*
X0081882Y0085633D03*
D229*
X0081882Y0112448D03*
X0081840Y0112448D03*
X0081924Y0112448D03*
D230*
X0081924Y0117428D03*
X0078382Y0117888D03*
X0078340Y0117888D03*
D231*
X0078257Y0117883D03*
X0081882Y0065763D03*
D232*
X0081840Y0065783D03*
D233*
X0081840Y0077618D03*
D234*
X0081840Y0085653D03*
X0081757Y0085703D03*
D235*
X0081840Y0092948D03*
D236*
X0081840Y0117428D03*
D237*
X0074549Y0079508D03*
X0081799Y0065758D03*
D238*
X0077924Y0066553D03*
X0081799Y0075843D03*
D239*
X0081799Y0085678D03*
D240*
X0078049Y0094638D03*
X0077799Y0108638D03*
X0081674Y0112468D03*
X0081799Y0112468D03*
D241*
X0077382Y0108698D03*
X0080257Y0095238D03*
X0080340Y0095238D03*
X0080465Y0095198D03*
X0080507Y0095198D03*
X0080590Y0095158D03*
X0080632Y0095158D03*
X0080757Y0095118D03*
X0081090Y0094988D03*
X0081132Y0094988D03*
X0081215Y0094948D03*
X0081257Y0094948D03*
X0081340Y0094908D03*
X0081382Y0094868D03*
X0081340Y0091368D03*
X0079965Y0088118D03*
X0078840Y0091908D03*
X0081757Y0079868D03*
X0077507Y0075158D03*
X0080215Y0061738D03*
X0079715Y0122618D03*
D242*
X0081757Y0092968D03*
X0075132Y0086138D03*
D243*
X0080965Y0068258D03*
X0081090Y0063598D03*
X0077840Y0108638D03*
X0081632Y0112468D03*
X0081715Y0112468D03*
X0081757Y0112468D03*
D244*
X0077882Y0094633D03*
X0081715Y0075633D03*
D245*
X0080507Y0074743D03*
X0078632Y0074743D03*
X0078590Y0074743D03*
X0080965Y0080113D03*
X0081007Y0080113D03*
X0081090Y0080113D03*
X0081215Y0080073D03*
X0081257Y0080073D03*
X0081340Y0080073D03*
X0081465Y0080033D03*
X0081507Y0080033D03*
X0081590Y0080033D03*
X0081590Y0083243D03*
X0081632Y0083243D03*
X0081715Y0083243D03*
X0081507Y0083283D03*
X0081465Y0083283D03*
X0081382Y0083283D03*
X0081340Y0083283D03*
X0081257Y0083323D03*
X0081215Y0083323D03*
X0081132Y0083323D03*
X0081090Y0083323D03*
X0080965Y0083363D03*
X0080882Y0083363D03*
X0080840Y0083363D03*
X0080132Y0083493D03*
X0080090Y0083493D03*
X0079882Y0083533D03*
X0079840Y0083533D03*
X0077840Y0083863D03*
X0077382Y0088283D03*
X0077299Y0088323D03*
X0080465Y0088363D03*
X0080507Y0088363D03*
X0080590Y0088363D03*
X0080757Y0088363D03*
X0080840Y0088363D03*
X0080882Y0088363D03*
X0077840Y0091993D03*
X0077757Y0091993D03*
X0077632Y0092033D03*
X0077549Y0092033D03*
X0077424Y0092073D03*
X0077382Y0092073D03*
X0081090Y0111993D03*
X0080882Y0112033D03*
X0080465Y0112113D03*
X0079465Y0112323D03*
X0077090Y0112823D03*
X0076882Y0112863D03*
X0076340Y0112993D03*
X0076132Y0113033D03*
X0076090Y0113033D03*
X0075965Y0113073D03*
X0075757Y0113113D03*
X0075715Y0113113D03*
X0078590Y0119533D03*
X0078632Y0119573D03*
X0079215Y0119743D03*
X0079257Y0119743D03*
X0079340Y0119743D03*
X0077424Y0059993D03*
D246*
X0079090Y0059573D03*
X0078965Y0068573D03*
X0073965Y0080073D03*
X0081715Y0087783D03*
D247*
X0078674Y0085578D03*
X0075174Y0086158D03*
X0074799Y0079238D03*
X0081674Y0065778D03*
D248*
X0081299Y0063783D03*
X0081674Y0075573D03*
D249*
X0080549Y0074743D03*
X0078549Y0074743D03*
X0078424Y0074783D03*
X0080924Y0080113D03*
X0081049Y0080113D03*
X0081174Y0080073D03*
X0081299Y0080073D03*
X0081424Y0080033D03*
X0081549Y0080033D03*
X0081674Y0083243D03*
X0081549Y0083283D03*
X0081424Y0083283D03*
X0081174Y0083323D03*
X0080924Y0083363D03*
X0077799Y0083863D03*
X0077341Y0088323D03*
X0080424Y0088363D03*
X0080549Y0088363D03*
X0080799Y0088363D03*
X0080924Y0088363D03*
X0081049Y0088323D03*
X0077799Y0091993D03*
X0077591Y0092033D03*
X0080674Y0112073D03*
X0076299Y0112993D03*
X0076174Y0113033D03*
X0075924Y0113073D03*
X0075799Y0113113D03*
X0079299Y0119743D03*
X0072299Y0067113D03*
D250*
X0081674Y0087868D03*
X0078549Y0092118D03*
X0079299Y0122868D03*
D251*
X0081674Y0091468D03*
X0081299Y0067968D03*
D252*
X0081299Y0075133D03*
X0081549Y0088013D03*
X0076174Y0088223D03*
X0081674Y0094633D03*
X0078674Y0109093D03*
X0081549Y0112093D03*
X0081674Y0119013D03*
D253*
X0081674Y0115973D03*
X0078424Y0116513D03*
X0079424Y0122763D03*
X0078674Y0105973D03*
X0077591Y0094633D03*
X0077799Y0087883D03*
X0077049Y0075473D03*
X0081424Y0075263D03*
D254*
X0081632Y0065783D03*
D255*
X0081632Y0091448D03*
X0079382Y0098448D03*
D256*
X0081632Y0094698D03*
X0081507Y0091408D03*
X0081465Y0091408D03*
D257*
X0081465Y0088093D03*
X0076257Y0088303D03*
X0081507Y0094803D03*
X0080965Y0095053D03*
X0080840Y0095093D03*
X0080215Y0095263D03*
X0078715Y0095263D03*
X0079632Y0098303D03*
X0081507Y0112053D03*
X0081590Y0115843D03*
X0081632Y0119093D03*
X0081215Y0075093D03*
X0080840Y0062763D03*
X0080715Y0062553D03*
X0080590Y0062343D03*
X0080382Y0062013D03*
X0080257Y0061803D03*
X0078840Y0059343D03*
D258*
X0081590Y0065783D03*
X0080715Y0067283D03*
X0075507Y0086243D03*
D259*
X0076132Y0088178D03*
X0081590Y0091428D03*
X0077090Y0075428D03*
X0081340Y0067928D03*
X0080132Y0061678D03*
D260*
X0079090Y0068578D03*
X0074007Y0080078D03*
X0081590Y0112488D03*
D261*
X0081465Y0112008D03*
X0081507Y0115758D03*
X0078632Y0116218D03*
X0077257Y0118008D03*
X0079757Y0122598D03*
X0080007Y0122508D03*
X0081590Y0119138D03*
X0079757Y0098258D03*
X0079840Y0098218D03*
X0079882Y0098218D03*
X0079757Y0095348D03*
X0079715Y0095348D03*
X0079632Y0095348D03*
X0079590Y0095348D03*
X0079507Y0095348D03*
X0079090Y0095348D03*
X0079007Y0095348D03*
X0078965Y0095348D03*
X0078882Y0091888D03*
X0078965Y0091848D03*
X0081215Y0091388D03*
X0081257Y0091388D03*
X0077632Y0088098D03*
X0076340Y0088348D03*
X0077632Y0075098D03*
X0081090Y0075008D03*
X0080007Y0069888D03*
D262*
X0080049Y0069843D03*
X0081174Y0075053D03*
X0073924Y0080093D03*
X0077716Y0088013D03*
X0079924Y0088093D03*
X0081549Y0094763D03*
X0081424Y0094843D03*
X0078549Y0116303D03*
D263*
X0081549Y0114008D03*
X0079049Y0066388D03*
X0080424Y0064098D03*
D264*
X0077591Y0066553D03*
X0077716Y0075053D03*
X0081549Y0115803D03*
D265*
X0079590Y0098323D03*
X0081507Y0088073D03*
X0078840Y0068573D03*
D266*
X0081424Y0063928D03*
X0079424Y0060718D03*
X0077799Y0094638D03*
D267*
X0081424Y0067803D03*
D268*
X0077507Y0066553D03*
X0081382Y0080053D03*
X0076590Y0084053D03*
X0077507Y0092053D03*
D269*
X0080007Y0088178D03*
X0081382Y0088178D03*
X0079965Y0098178D03*
X0078882Y0109178D03*
X0078840Y0109178D03*
D270*
X0081299Y0058968D03*
D271*
X0081299Y0083303D03*
X0076549Y0084053D03*
X0077466Y0092053D03*
D272*
X0075132Y0064698D03*
X0081257Y0058948D03*
D273*
X0081257Y0068033D03*
X0078632Y0106033D03*
D274*
X0077549Y0098533D03*
X0077507Y0098533D03*
X0077299Y0098573D03*
X0077257Y0098573D03*
X0078465Y0098323D03*
X0081257Y0119323D03*
X0077965Y0122783D03*
X0077882Y0122783D03*
X0077757Y0122823D03*
X0077674Y0122823D03*
X0079507Y0069823D03*
X0079465Y0069783D03*
X0072215Y0067033D03*
D275*
X0072590Y0068133D03*
X0072632Y0068223D03*
X0073715Y0067633D03*
X0077965Y0058883D03*
X0081215Y0058883D03*
X0077132Y0094633D03*
X0077257Y0100883D03*
X0077257Y0125223D03*
D276*
X0079257Y0122908D03*
X0077549Y0108658D03*
X0079257Y0098578D03*
X0080257Y0069658D03*
X0081215Y0068078D03*
X0079507Y0060778D03*
D277*
X0078382Y0058968D03*
X0074715Y0063928D03*
X0072090Y0066888D03*
X0072340Y0067428D03*
X0081215Y0119218D03*
D278*
X0081174Y0119093D03*
X0075799Y0081263D03*
X0077174Y0066303D03*
D279*
X0076840Y0065993D03*
X0075257Y0064863D03*
X0073840Y0067863D03*
X0079132Y0065863D03*
X0079590Y0065113D03*
X0081090Y0058743D03*
D280*
X0079382Y0060658D03*
X0081090Y0068198D03*
X0077632Y0108658D03*
D281*
X0078674Y0066658D03*
X0081049Y0058698D03*
D282*
X0081049Y0063553D03*
D283*
X0080424Y0074723D03*
X0079174Y0074633D03*
X0079049Y0074633D03*
X0078674Y0074723D03*
X0080174Y0083473D03*
X0080299Y0083473D03*
X0080049Y0083513D03*
X0079924Y0083513D03*
X0080799Y0083383D03*
X0081049Y0083343D03*
X0077716Y0083883D03*
X0077174Y0083973D03*
X0077049Y0083973D03*
X0076924Y0084013D03*
X0076799Y0084013D03*
X0077174Y0088383D03*
X0080674Y0088383D03*
X0077924Y0091973D03*
X0077716Y0092013D03*
X0077341Y0092093D03*
X0078049Y0105843D03*
X0077466Y0105973D03*
X0078674Y0119593D03*
X0079049Y0119723D03*
X0079174Y0119723D03*
D284*
X0079799Y0122573D03*
X0079674Y0098283D03*
X0079799Y0095323D03*
X0079924Y0095323D03*
X0080049Y0095283D03*
X0080174Y0095283D03*
X0080924Y0095073D03*
X0081049Y0095033D03*
X0078799Y0095283D03*
X0076299Y0088323D03*
X0080424Y0062073D03*
X0078799Y0059323D03*
D285*
X0079924Y0064133D03*
X0079799Y0064973D03*
X0074549Y0066473D03*
X0074216Y0069883D03*
X0074341Y0069973D03*
X0074424Y0070013D03*
X0074674Y0070133D03*
X0074924Y0070223D03*
X0081049Y0118763D03*
D286*
X0075090Y0067198D03*
X0076757Y0065908D03*
X0075507Y0065118D03*
X0078715Y0066618D03*
X0077882Y0060988D03*
X0081007Y0058658D03*
D287*
X0079507Y0065618D03*
X0079007Y0066408D03*
X0073090Y0066328D03*
X0081007Y0118618D03*
D288*
X0080882Y0068263D03*
X0080965Y0063513D03*
D289*
X0079674Y0065078D03*
X0076674Y0065828D03*
X0076049Y0065488D03*
X0075924Y0065408D03*
X0074049Y0068158D03*
X0073049Y0068868D03*
X0073174Y0069028D03*
X0078299Y0061328D03*
X0078174Y0061238D03*
X0080924Y0058578D03*
D290*
X0080924Y0063493D03*
X0079674Y0079533D03*
X0074049Y0080073D03*
D291*
X0080924Y0068283D03*
D292*
X0076132Y0065553D03*
X0074174Y0068303D03*
X0078715Y0061553D03*
X0078757Y0061553D03*
X0080882Y0058553D03*
D293*
X0079757Y0061698D03*
X0080882Y0063488D03*
D294*
X0080840Y0064763D03*
D295*
X0079174Y0061738D03*
X0080799Y0058488D03*
X0076549Y0065738D03*
D296*
X0080799Y0062698D03*
X0080174Y0061698D03*
X0079549Y0122698D03*
D297*
X0080799Y0064823D03*
D298*
X0080799Y0068258D03*
D299*
X0078799Y0074698D03*
X0080674Y0080158D03*
X0080799Y0080158D03*
X0080674Y0083408D03*
X0080424Y0083448D03*
X0077591Y0083908D03*
X0076674Y0088448D03*
X0075549Y0113158D03*
D300*
X0073507Y0069368D03*
X0073382Y0069238D03*
X0074257Y0068368D03*
X0074382Y0068488D03*
X0078882Y0061618D03*
X0079215Y0061738D03*
X0079257Y0061738D03*
X0080757Y0058488D03*
D301*
X0080757Y0064928D03*
D302*
X0080757Y0068223D03*
X0078632Y0112633D03*
X0078590Y0112633D03*
X0078507Y0112633D03*
X0078215Y0112723D03*
X0078132Y0112723D03*
X0078007Y0112763D03*
X0077965Y0112763D03*
X0077840Y0112803D03*
X0077757Y0112803D03*
X0077632Y0112843D03*
X0077549Y0112843D03*
X0077507Y0112843D03*
X0077424Y0112883D03*
X0077382Y0112883D03*
D303*
X0076715Y0112908D03*
X0076507Y0112948D03*
X0075590Y0113158D03*
X0080257Y0112158D03*
X0078007Y0091948D03*
X0077965Y0091948D03*
X0076757Y0088448D03*
X0076715Y0088448D03*
X0077549Y0083908D03*
X0080340Y0083448D03*
X0080382Y0083448D03*
X0080590Y0083408D03*
X0080632Y0083408D03*
X0080715Y0083408D03*
X0080715Y0080158D03*
X0080757Y0080158D03*
X0078757Y0074698D03*
X0078715Y0074698D03*
D304*
X0080674Y0062493D03*
X0078674Y0091993D03*
X0078674Y0095243D03*
X0079549Y0098363D03*
D305*
X0075549Y0086223D03*
X0080674Y0067343D03*
D306*
X0080632Y0079408D03*
X0080590Y0079408D03*
X0080257Y0079448D03*
D307*
X0077341Y0075283D03*
X0080549Y0062283D03*
D308*
X0080549Y0067783D03*
X0075424Y0078743D03*
D309*
X0076049Y0076658D03*
X0080299Y0079448D03*
X0080549Y0079408D03*
D310*
X0080549Y0083428D03*
X0077466Y0083928D03*
X0077341Y0083928D03*
X0076924Y0088428D03*
X0076799Y0088428D03*
X0078049Y0091928D03*
X0078924Y0074678D03*
X0080299Y0074678D03*
D311*
X0080507Y0064053D03*
D312*
X0080507Y0067823D03*
X0079340Y0085783D03*
D313*
X0079007Y0079638D03*
X0080090Y0079468D03*
X0080132Y0079468D03*
X0080215Y0079468D03*
X0080340Y0079428D03*
X0080382Y0079428D03*
X0080465Y0079428D03*
X0080507Y0079428D03*
D314*
X0080507Y0083428D03*
X0080465Y0083428D03*
X0077507Y0083928D03*
X0077424Y0083928D03*
X0077382Y0083928D03*
X0077299Y0083928D03*
X0077007Y0088428D03*
X0076965Y0088428D03*
X0076882Y0088428D03*
X0076840Y0088428D03*
X0078840Y0074678D03*
X0078882Y0074678D03*
X0078965Y0074678D03*
X0080340Y0074678D03*
X0080382Y0074678D03*
X0078632Y0059178D03*
X0077674Y0105928D03*
X0077632Y0105928D03*
X0078840Y0119678D03*
X0078882Y0119678D03*
D315*
X0076090Y0081843D03*
X0080465Y0064053D03*
D316*
X0080465Y0067868D03*
X0075257Y0078868D03*
D317*
X0080049Y0079468D03*
X0080174Y0079468D03*
X0080424Y0079428D03*
X0079799Y0061678D03*
D318*
X0075174Y0078908D03*
X0077924Y0085948D03*
X0078049Y0085908D03*
X0079174Y0085738D03*
X0075924Y0086278D03*
X0079924Y0117658D03*
X0080049Y0117658D03*
X0080174Y0117658D03*
X0080299Y0117618D03*
X0080424Y0117618D03*
D319*
X0079715Y0117698D03*
X0079632Y0117698D03*
X0079590Y0117698D03*
X0080340Y0067948D03*
D320*
X0080299Y0064178D03*
D321*
X0080299Y0066513D03*
D322*
X0078840Y0066533D03*
X0080215Y0064243D03*
X0075465Y0067573D03*
X0074715Y0068743D03*
X0074757Y0068783D03*
X0074840Y0068823D03*
X0074132Y0069823D03*
X0074090Y0069823D03*
X0074174Y0069863D03*
X0074007Y0069743D03*
X0074382Y0069993D03*
X0073132Y0066493D03*
D323*
X0080215Y0069698D03*
X0080090Y0061698D03*
X0077507Y0108658D03*
D324*
X0080215Y0117638D03*
X0077882Y0085968D03*
X0079215Y0085758D03*
X0075215Y0078888D03*
D325*
X0073007Y0068803D03*
X0073965Y0068053D03*
X0079507Y0065053D03*
X0080132Y0064303D03*
X0077132Y0101053D03*
D326*
X0078590Y0066573D03*
X0079632Y0065073D03*
X0080090Y0064323D03*
X0077965Y0061073D03*
X0075465Y0065073D03*
D327*
X0080049Y0064363D03*
D328*
X0080007Y0061678D03*
D329*
X0079965Y0064848D03*
D330*
X0077674Y0088053D03*
X0079965Y0095303D03*
X0078882Y0105803D03*
X0079840Y0122553D03*
X0079882Y0122553D03*
D331*
X0079924Y0064888D03*
D332*
X0079924Y0066513D03*
X0078674Y0068553D03*
X0079799Y0070013D03*
X0077466Y0066553D03*
D333*
X0079424Y0079553D03*
X0079549Y0079553D03*
X0079799Y0079513D03*
X0079924Y0079513D03*
X0079299Y0079593D03*
X0079174Y0079593D03*
D334*
X0079882Y0064033D03*
X0079132Y0125283D03*
D335*
X0078965Y0066428D03*
X0079882Y0064928D03*
D336*
X0079882Y0079513D03*
X0079840Y0079513D03*
X0079757Y0079513D03*
X0079715Y0079513D03*
X0079632Y0079553D03*
X0079590Y0079553D03*
X0079507Y0079553D03*
X0079465Y0079553D03*
X0079340Y0079593D03*
X0079257Y0079593D03*
X0079215Y0079593D03*
X0079132Y0079593D03*
D337*
X0079840Y0063908D03*
D338*
X0079840Y0064948D03*
X0074507Y0066408D03*
X0075965Y0081698D03*
D339*
X0079799Y0066513D03*
X0077591Y0100633D03*
X0077591Y0124973D03*
D340*
X0079799Y0117678D03*
X0075799Y0086258D03*
D341*
X0073757Y0069553D03*
X0073715Y0069553D03*
X0074507Y0068593D03*
X0074465Y0068553D03*
X0075382Y0067513D03*
X0079757Y0065013D03*
D342*
X0078507Y0068303D03*
X0079757Y0070053D03*
D343*
X0075590Y0078638D03*
X0079757Y0085888D03*
D344*
X0079715Y0061698D03*
D345*
X0079340Y0061783D03*
X0079715Y0065033D03*
X0079257Y0065783D03*
X0076632Y0065783D03*
X0074590Y0066533D03*
X0073465Y0069323D03*
D346*
X0079715Y0070053D03*
X0079257Y0063553D03*
D347*
X0079715Y0085868D03*
D348*
X0079674Y0061678D03*
D349*
X0078674Y0064488D03*
X0078549Y0064698D03*
X0078424Y0064908D03*
X0078299Y0065118D03*
X0078174Y0065328D03*
X0078049Y0065528D03*
X0079674Y0070028D03*
X0078174Y0100368D03*
D350*
X0079674Y0085868D03*
D351*
X0079674Y0117698D03*
D352*
X0079632Y0061698D03*
D353*
X0079632Y0085843D03*
X0079590Y0085843D03*
D354*
X0079590Y0069928D03*
X0078132Y0067678D03*
X0078215Y0124678D03*
X0078257Y0124678D03*
D355*
X0077174Y0118053D03*
X0073549Y0067053D03*
X0078799Y0064303D03*
X0079549Y0063053D03*
D356*
X0079549Y0069888D03*
X0078424Y0124638D03*
D357*
X0079549Y0117718D03*
X0079049Y0085718D03*
D358*
X0079465Y0117718D03*
X0079507Y0117718D03*
D359*
X0078049Y0124758D03*
X0078049Y0100428D03*
X0078924Y0064098D03*
X0079049Y0063888D03*
X0079174Y0063678D03*
X0079299Y0063468D03*
X0079424Y0063258D03*
X0078424Y0059008D03*
D360*
X0079424Y0064803D03*
D361*
X0079424Y0065678D03*
D362*
X0079424Y0085803D03*
D363*
X0079424Y0098428D03*
X0077466Y0108678D03*
X0078924Y0059428D03*
D364*
X0079382Y0064678D03*
X0078465Y0066218D03*
D365*
X0079382Y0065723D03*
X0075882Y0070473D03*
D366*
X0079382Y0079573D03*
D367*
X0076382Y0070493D03*
X0076340Y0070493D03*
X0076257Y0070493D03*
X0076215Y0070493D03*
X0076132Y0070493D03*
X0076090Y0070493D03*
X0076007Y0070493D03*
X0075965Y0070493D03*
X0075840Y0070453D03*
X0075757Y0070453D03*
X0075715Y0070453D03*
X0075590Y0070403D03*
X0075507Y0070403D03*
X0075465Y0070403D03*
X0075382Y0070363D03*
X0075340Y0070363D03*
X0075257Y0070323D03*
X0075215Y0070323D03*
X0075090Y0070283D03*
X0074965Y0070243D03*
X0074840Y0070203D03*
X0075382Y0069073D03*
X0075507Y0069113D03*
X0075590Y0069113D03*
X0075715Y0069153D03*
X0075757Y0069153D03*
X0075882Y0069203D03*
X0075965Y0069203D03*
X0076007Y0069203D03*
X0076090Y0069203D03*
X0076132Y0069203D03*
X0076215Y0069203D03*
X0076257Y0069203D03*
X0075090Y0068953D03*
X0075882Y0067783D03*
X0075965Y0067783D03*
X0076007Y0067783D03*
X0076090Y0067823D03*
X0076132Y0067823D03*
X0076215Y0067823D03*
X0076257Y0067823D03*
X0078882Y0066493D03*
X0079340Y0065743D03*
X0071840Y0066323D03*
D368*
X0073674Y0069513D03*
X0073799Y0069593D03*
X0079299Y0065763D03*
D369*
X0079299Y0085783D03*
D370*
X0079257Y0067303D03*
X0075132Y0063053D03*
X0077132Y0118053D03*
D371*
X0072924Y0068698D03*
X0073924Y0067988D03*
X0075549Y0065158D03*
X0079174Y0065868D03*
D372*
X0076424Y0076093D03*
X0077924Y0094633D03*
X0079174Y0098723D03*
X0077716Y0108633D03*
D373*
X0079132Y0098928D03*
D374*
X0079132Y0123263D03*
D375*
X0079090Y0079618D03*
X0076007Y0076738D03*
D376*
X0079007Y0099178D03*
X0079090Y0099178D03*
X0078882Y0099218D03*
X0078840Y0099218D03*
X0077674Y0117968D03*
D377*
X0079007Y0123513D03*
X0079090Y0123513D03*
X0078882Y0123553D03*
X0078840Y0123553D03*
X0078632Y0123593D03*
X0078632Y0099263D03*
X0078590Y0099263D03*
D378*
X0079049Y0065803D03*
D379*
X0079049Y0099178D03*
X0078799Y0099218D03*
D380*
X0079049Y0123513D03*
X0078924Y0123553D03*
X0078799Y0123553D03*
X0078674Y0123593D03*
D381*
X0074757Y0070178D03*
X0074299Y0069928D03*
X0075007Y0068928D03*
X0075632Y0067678D03*
X0079007Y0065678D03*
D382*
X0079007Y0085698D03*
D383*
X0078507Y0066343D03*
X0078965Y0065553D03*
D384*
X0078965Y0085678D03*
D385*
X0078965Y0099198D03*
X0078757Y0099238D03*
X0078715Y0099238D03*
X0078590Y0123618D03*
X0078507Y0123618D03*
D386*
X0078715Y0123573D03*
X0078757Y0123573D03*
X0078965Y0123533D03*
X0078507Y0099283D03*
D387*
X0078924Y0065428D03*
D388*
X0078924Y0066473D03*
D389*
X0078924Y0099198D03*
X0078674Y0099238D03*
X0078549Y0123618D03*
D390*
X0078674Y0116178D03*
X0078924Y0109178D03*
D391*
X0075465Y0086223D03*
X0078465Y0085723D03*
X0078882Y0085633D03*
X0074965Y0079093D03*
D392*
X0078840Y0085613D03*
D393*
X0078799Y0085618D03*
D394*
X0078757Y0085578D03*
D395*
X0078715Y0085553D03*
D396*
X0078715Y0105928D03*
X0077424Y0108678D03*
X0078465Y0116428D03*
D397*
X0078465Y0107553D03*
X0078507Y0107553D03*
X0078590Y0107553D03*
D398*
X0075924Y0081658D03*
X0073924Y0069698D03*
X0078549Y0066448D03*
D399*
X0078174Y0067758D03*
X0078299Y0067968D03*
X0078549Y0068388D03*
X0078174Y0124718D03*
D400*
X0075299Y0086178D03*
X0078549Y0085678D03*
D401*
X0078549Y0099283D03*
D402*
X0078549Y0107553D03*
X0078424Y0107553D03*
D403*
X0078549Y0112633D03*
X0078174Y0112723D03*
X0078049Y0112763D03*
X0077924Y0112763D03*
X0077799Y0112803D03*
X0077716Y0112803D03*
X0077591Y0112843D03*
X0077341Y0112883D03*
D404*
X0078340Y0100323D03*
X0078340Y0068033D03*
X0078215Y0067823D03*
X0078507Y0059073D03*
D405*
X0078465Y0100263D03*
X0078382Y0100303D03*
X0078465Y0124593D03*
D406*
X0077299Y0112903D03*
X0077257Y0112903D03*
X0077674Y0112823D03*
X0077882Y0112783D03*
X0078090Y0112743D03*
X0078257Y0112703D03*
X0078465Y0112653D03*
D407*
X0078465Y0122658D03*
X0078382Y0122698D03*
X0078340Y0122698D03*
X0077382Y0122908D03*
X0077299Y0122908D03*
X0077257Y0122908D03*
X0077840Y0098448D03*
X0077882Y0098448D03*
X0077965Y0098448D03*
X0078090Y0098408D03*
X0078132Y0098408D03*
D408*
X0078424Y0068178D03*
D409*
X0078424Y0093593D03*
D410*
X0078424Y0100283D03*
X0078299Y0100323D03*
D411*
X0078299Y0112678D03*
X0078424Y0112678D03*
D412*
X0078424Y0122678D03*
D413*
X0078382Y0112678D03*
X0078340Y0112678D03*
D414*
X0077257Y0108718D03*
X0078382Y0124638D03*
X0073882Y0080138D03*
D415*
X0078257Y0098363D03*
X0078340Y0098363D03*
X0077757Y0098493D03*
X0077674Y0098493D03*
X0077632Y0098493D03*
X0078090Y0122743D03*
X0078132Y0122743D03*
X0077549Y0122863D03*
X0077507Y0122863D03*
D416*
X0078340Y0124658D03*
X0078090Y0067618D03*
X0077299Y0059948D03*
D417*
X0078299Y0085803D03*
D418*
X0078299Y0093593D03*
D419*
X0078299Y0117888D03*
D420*
X0077549Y0124993D03*
X0072382Y0067613D03*
X0073590Y0067243D03*
X0077215Y0066363D03*
X0078257Y0058863D03*
D421*
X0078215Y0085843D03*
X0075715Y0086263D03*
D422*
X0078174Y0085868D03*
D423*
X0078174Y0093573D03*
D424*
X0078174Y0117908D03*
D425*
X0077299Y0100843D03*
X0074840Y0066763D03*
X0077549Y0060593D03*
X0078090Y0058803D03*
X0078132Y0058803D03*
D426*
X0075090Y0078988D03*
X0078132Y0085868D03*
D427*
X0078132Y0093593D03*
D428*
X0073090Y0068928D03*
X0075590Y0065178D03*
X0078090Y0061178D03*
D429*
X0078090Y0093573D03*
D430*
X0078090Y0117928D03*
D431*
X0074799Y0066743D03*
X0078049Y0058823D03*
D432*
X0078049Y0067553D03*
D433*
X0078049Y0108613D03*
D434*
X0078049Y0117928D03*
D435*
X0078007Y0098428D03*
D436*
X0078007Y0108613D03*
X0077507Y0117993D03*
X0076132Y0076493D03*
D437*
X0074257Y0079888D03*
X0078007Y0117928D03*
D438*
X0077965Y0100448D03*
X0077215Y0059948D03*
D439*
X0077965Y0117928D03*
D440*
X0077965Y0124783D03*
D441*
X0074549Y0063928D03*
X0077924Y0058928D03*
D442*
X0077341Y0066468D03*
X0077924Y0100468D03*
D443*
X0077924Y0117928D03*
D444*
X0077924Y0122783D03*
X0077716Y0122823D03*
X0077341Y0098573D03*
X0077466Y0098533D03*
D445*
X0077924Y0124823D03*
D446*
X0077215Y0125263D03*
X0075840Y0081473D03*
X0072715Y0068383D03*
X0075007Y0067053D03*
X0075215Y0064843D03*
X0077632Y0060723D03*
X0077882Y0058973D03*
D447*
X0077882Y0066553D03*
D448*
X0077257Y0094618D03*
X0077882Y0100488D03*
X0075507Y0113368D03*
D449*
X0077882Y0108638D03*
X0076215Y0076348D03*
D450*
X0077882Y0117948D03*
D451*
X0077674Y0060783D03*
X0077840Y0059033D03*
D452*
X0077757Y0060888D03*
X0077840Y0060968D03*
X0075340Y0064968D03*
X0073882Y0067928D03*
X0072882Y0068638D03*
D453*
X0077840Y0087803D03*
D454*
X0077174Y0100968D03*
X0075049Y0067138D03*
X0074674Y0066638D03*
X0075299Y0064928D03*
X0076799Y0065928D03*
X0077799Y0060928D03*
D455*
X0077799Y0066553D03*
D456*
X0077799Y0100533D03*
X0077799Y0124863D03*
D457*
X0077799Y0117968D03*
D458*
X0077757Y0100553D03*
D459*
X0077757Y0117968D03*
D460*
X0077757Y0124883D03*
X0073465Y0066973D03*
D461*
X0077716Y0059178D03*
D462*
X0077591Y0059283D03*
X0077716Y0060823D03*
X0073799Y0067783D03*
X0077174Y0125323D03*
D463*
X0077716Y0066553D03*
D464*
X0077257Y0066403D03*
X0077674Y0100573D03*
X0077632Y0100613D03*
X0077632Y0124953D03*
X0077674Y0124953D03*
D465*
X0077591Y0060678D03*
D466*
X0075174Y0062968D03*
X0077174Y0094638D03*
X0077466Y0100718D03*
D467*
X0077466Y0125053D03*
D468*
X0077174Y0059928D03*
D469*
X0077090Y0059928D03*
X0074632Y0063928D03*
D470*
X0077090Y0118073D03*
D471*
X0076924Y0066053D03*
D472*
X0076674Y0075803D03*
D473*
X0076424Y0070263D03*
D474*
X0076299Y0070493D03*
X0076174Y0070493D03*
X0076049Y0070493D03*
X0075924Y0070493D03*
X0075799Y0070453D03*
X0075674Y0070453D03*
X0075549Y0070403D03*
X0075424Y0070363D03*
X0075299Y0070363D03*
X0075174Y0070323D03*
X0075049Y0070283D03*
X0075424Y0069073D03*
X0075549Y0069113D03*
X0075674Y0069153D03*
X0075799Y0069153D03*
X0075924Y0069203D03*
X0076049Y0069203D03*
X0076174Y0069203D03*
X0075299Y0069033D03*
X0075174Y0068993D03*
X0075799Y0067743D03*
X0075924Y0067783D03*
X0076049Y0067823D03*
X0076174Y0067823D03*
X0076299Y0067823D03*
D475*
X0076299Y0076238D03*
D476*
X0076257Y0076303D03*
D477*
X0075174Y0067303D03*
X0076174Y0065553D03*
D478*
X0076174Y0076428D03*
D479*
X0076132Y0081883D03*
D480*
X0076049Y0081803D03*
D481*
X0075965Y0076803D03*
D482*
X0075924Y0076908D03*
D483*
X0075882Y0077033D03*
D484*
X0075632Y0070428D03*
X0075840Y0069178D03*
D485*
X0075757Y0086283D03*
D486*
X0075715Y0078553D03*
D487*
X0074799Y0070178D03*
X0075049Y0068928D03*
X0075674Y0067678D03*
D488*
X0075674Y0078598D03*
D489*
X0074049Y0069783D03*
X0074924Y0068863D03*
X0075549Y0067613D03*
X0075424Y0067533D03*
D490*
X0075424Y0065053D03*
X0072799Y0068513D03*
D491*
X0075424Y0086223D03*
D492*
X0075132Y0070303D03*
X0074507Y0070053D03*
X0075340Y0069053D03*
D493*
X0075299Y0078823D03*
D494*
X0075257Y0086178D03*
X0075215Y0086178D03*
D495*
X0075090Y0086118D03*
D496*
X0075049Y0063843D03*
D497*
X0075049Y0079033D03*
D498*
X0075049Y0086118D03*
D499*
X0075007Y0079053D03*
D500*
X0074924Y0079113D03*
D501*
X0074840Y0086033D03*
D502*
X0074549Y0070053D03*
X0074799Y0068803D03*
D503*
X0074757Y0079283D03*
D504*
X0074757Y0086008D03*
D505*
X0073424Y0066928D03*
X0074674Y0063928D03*
D506*
X0074590Y0068658D03*
X0074632Y0068698D03*
X0074257Y0069908D03*
D507*
X0074632Y0085948D03*
D508*
X0074590Y0085908D03*
D509*
X0074549Y0085883D03*
X0074424Y0079633D03*
D510*
X0074507Y0079553D03*
D511*
X0074382Y0079723D03*
X0074507Y0085883D03*
D512*
X0074465Y0079593D03*
D513*
X0074424Y0085823D03*
D514*
X0074382Y0085778D03*
X0074299Y0079828D03*
D515*
X0074341Y0079763D03*
D516*
X0074341Y0085738D03*
D517*
X0074299Y0085698D03*
D518*
X0074257Y0085678D03*
D519*
X0074216Y0079953D03*
D520*
X0074216Y0085638D03*
D521*
X0074174Y0080013D03*
D522*
X0072674Y0068303D03*
D523*
X0072007Y0066738D03*
D524*
X0096060Y0154847D02*
X0096058Y0155039D01*
X0096051Y0155231D01*
X0096039Y0155423D01*
X0096023Y0155615D01*
X0096002Y0155806D01*
X0095977Y0155996D01*
X0095947Y0156186D01*
X0095913Y0156375D01*
X0095874Y0156563D01*
X0095830Y0156750D01*
X0095782Y0156936D01*
X0095730Y0157121D01*
X0095673Y0157305D01*
X0095612Y0157487D01*
X0095546Y0157667D01*
X0095476Y0157846D01*
X0095402Y0158024D01*
X0095324Y0158199D01*
X0095241Y0158373D01*
X0095154Y0158544D01*
X0095064Y0158713D01*
X0094969Y0158880D01*
X0094870Y0159045D01*
X0094767Y0159208D01*
X0094660Y0159367D01*
X0094550Y0159525D01*
X0094436Y0159679D01*
X0094318Y0159831D01*
X0094196Y0159980D01*
X0094071Y0160126D01*
X0093943Y0160268D01*
X0093811Y0160408D01*
X0093676Y0160545D01*
X0093537Y0160678D01*
X0093396Y0160808D01*
X0093251Y0160934D01*
X0093103Y0161057D01*
X0092953Y0161176D01*
X0092799Y0161292D01*
X0092643Y0161404D01*
X0092484Y0161512D01*
X0092323Y0161617D01*
X0092159Y0161717D01*
X0091993Y0161813D01*
X0091825Y0161906D01*
X0084091Y0161793D02*
X0083922Y0161694D01*
X0083756Y0161590D01*
X0083592Y0161483D01*
X0083431Y0161372D01*
X0083273Y0161257D01*
X0083118Y0161138D01*
X0082965Y0161015D01*
X0082816Y0160889D01*
X0082670Y0160759D01*
X0082527Y0160625D01*
X0082387Y0160488D01*
X0082251Y0160348D01*
X0082118Y0160204D01*
X0081989Y0160057D01*
X0081863Y0159907D01*
X0081742Y0159754D01*
X0081623Y0159598D01*
X0081509Y0159439D01*
X0081399Y0159278D01*
X0081293Y0159113D01*
X0081190Y0158947D01*
X0081092Y0158777D01*
X0080998Y0158606D01*
X0080908Y0158432D01*
X0080823Y0158256D01*
X0080741Y0158078D01*
X0080665Y0157898D01*
X0080592Y0157716D01*
X0080524Y0157533D01*
X0080461Y0157348D01*
X0080402Y0157161D01*
X0080348Y0156973D01*
X0080298Y0156784D01*
X0080253Y0156594D01*
X0080213Y0156402D01*
X0080177Y0156210D01*
X0080146Y0156017D01*
X0080120Y0155823D01*
X0080098Y0155628D01*
X0080082Y0155433D01*
X0080070Y0155238D01*
X0080062Y0155042D01*
X0080060Y0154847D01*
X0080062Y0154654D01*
X0080069Y0154461D01*
X0080081Y0154269D01*
X0080097Y0154076D01*
X0080118Y0153884D01*
X0080144Y0153693D01*
X0080174Y0153503D01*
X0080209Y0153313D01*
X0080248Y0153124D01*
X0080292Y0152936D01*
X0080340Y0152749D01*
X0080393Y0152563D01*
X0080450Y0152379D01*
X0080512Y0152196D01*
X0080578Y0152015D01*
X0080649Y0151835D01*
X0080723Y0151657D01*
X0080802Y0151481D01*
X0080886Y0151307D01*
X0080973Y0151135D01*
X0081065Y0150965D01*
X0081161Y0150798D01*
X0081260Y0150632D01*
X0081364Y0150469D01*
X0081471Y0150309D01*
X0081583Y0150152D01*
X0081698Y0149997D01*
X0081817Y0149845D01*
X0081939Y0149696D01*
X0082065Y0149549D01*
X0082195Y0149406D01*
X0082328Y0149266D01*
X0082464Y0149130D01*
X0082604Y0148996D01*
X0082746Y0148867D01*
X0082892Y0148740D01*
X0093182Y0148701D02*
X0093330Y0148828D01*
X0093475Y0148958D01*
X0093616Y0149091D01*
X0093755Y0149228D01*
X0093890Y0149368D01*
X0094021Y0149512D01*
X0094149Y0149659D01*
X0094274Y0149808D01*
X0094395Y0149961D01*
X0094512Y0150116D01*
X0094625Y0150275D01*
X0094734Y0150436D01*
X0094839Y0150600D01*
X0094941Y0150766D01*
X0095038Y0150935D01*
X0095131Y0151105D01*
X0095220Y0151279D01*
X0095305Y0151454D01*
X0095385Y0151631D01*
X0095461Y0151810D01*
X0095533Y0151991D01*
X0095600Y0152174D01*
X0095663Y0152358D01*
X0095721Y0152544D01*
X0095775Y0152731D01*
X0095824Y0152919D01*
X0095869Y0153109D01*
X0095909Y0153299D01*
X0095944Y0153491D01*
X0095975Y0153683D01*
X0096001Y0153876D01*
X0096022Y0154070D01*
X0096039Y0154264D01*
X0096051Y0154458D01*
X0096058Y0154652D01*
X0096060Y0154847D01*
M02*
