G75*
%MOIN*%
%OFA0B0*%
%FSLAX25Y25*%
%IPPOS*%
%LPD*%
%AMOC8*
5,1,8,0,0,1.08239X$1,22.5*
%
%ADD10C,0.02769*%
%ADD11OC8,0.06000*%
%ADD12R,0.04737X0.18517*%
%ADD13OC8,0.06800*%
D10*
X0101477Y0033347D03*
X0101477Y0038847D03*
X0101477Y0043847D03*
X0101477Y0066347D03*
X0101477Y0072347D03*
X0101477Y0077847D03*
X0101477Y0083847D03*
X0101477Y0112347D03*
X0101477Y0117847D03*
X0101477Y0123347D03*
X0101477Y0151847D03*
X0101477Y0157847D03*
X0101477Y0163347D03*
D11*
X0088060Y0159847D03*
X0088060Y0149847D03*
X0059060Y0045347D03*
X0019060Y0045347D03*
D12*
X0043186Y0164347D03*
X0051060Y0164347D03*
X0058934Y0164347D03*
D13*
X0006060Y0030147D03*
X0006060Y0040147D03*
X0006060Y0050147D03*
X0006060Y0060147D03*
X0006060Y0070147D03*
X0006060Y0080147D03*
X0006060Y0090147D03*
X0006060Y0100147D03*
X0006060Y0118847D03*
X0006060Y0128847D03*
X0006060Y0138847D03*
X0006060Y0148847D03*
X0006060Y0158847D03*
X0026060Y0140347D03*
X0036060Y0140347D03*
X0046060Y0140347D03*
X0056060Y0140347D03*
X0066060Y0140347D03*
X0076060Y0140347D03*
X0096060Y0100147D03*
X0096060Y0090147D03*
X0096060Y0080147D03*
X0096060Y0070147D03*
X0096060Y0060147D03*
X0096060Y0050147D03*
X0096060Y0040147D03*
X0096060Y0030147D03*
X0115560Y0015847D03*
X0125560Y0015847D03*
X0135560Y0015847D03*
X0145560Y0015847D03*
X0061060Y0006347D03*
X0051060Y0006347D03*
X0041060Y0006347D03*
X0031060Y0006347D03*
M02*
