G75*
%MOIN*%
%OFA0B0*%
%FSLAX25Y25*%
%IPPOS*%
%LPD*%
%AMOC8*
5,1,8,0,0,1.08239X$1,22.5*
%
%ADD10OC8,0.05200*%
%ADD11R,0.03937X0.17717*%
%ADD12OC8,0.06000*%
%ADD13C,0.00800*%
%ADD14C,0.02600*%
D10*
X0019060Y0045347D03*
X0059060Y0045347D03*
X0088060Y0149847D03*
X0088060Y0159847D03*
D11*
X0058934Y0164347D03*
X0051060Y0164347D03*
X0043186Y0164347D03*
D12*
X0006060Y0030147D03*
X0006060Y0040147D03*
X0006060Y0050147D03*
X0006060Y0060147D03*
X0006060Y0070147D03*
X0006060Y0080147D03*
X0006060Y0090147D03*
X0006060Y0100147D03*
X0006060Y0118847D03*
X0006060Y0128847D03*
X0006060Y0138847D03*
X0006060Y0148847D03*
X0006060Y0158847D03*
X0026060Y0140347D03*
X0036060Y0140347D03*
X0046060Y0140347D03*
X0056060Y0140347D03*
X0066060Y0140347D03*
X0076060Y0140347D03*
X0096060Y0100147D03*
X0096060Y0090147D03*
X0096060Y0080147D03*
X0096060Y0070147D03*
X0096060Y0060147D03*
X0096060Y0050147D03*
X0096060Y0040147D03*
X0096060Y0030147D03*
X0115560Y0015847D03*
X0125560Y0015847D03*
X0135560Y0015847D03*
X0145560Y0015847D03*
X0061060Y0006347D03*
X0051060Y0006347D03*
X0041060Y0006347D03*
X0031060Y0006347D03*
D13*
X0040061Y0007347D02*
X0041060Y0006347D01*
X0040061Y0007347D02*
X0040061Y0020097D01*
X0047318Y0027605D02*
X0053902Y0021021D01*
X0053900Y0021019D01*
X0051060Y0015988D02*
X0051060Y0006347D01*
X0051060Y0015988D02*
X0036901Y0030147D01*
X0021060Y0030147D01*
X0026560Y0035647D01*
X0026560Y0095847D01*
X0006060Y0116347D01*
X0006060Y0118847D01*
X0011060Y0126347D02*
X0011060Y0146347D01*
X0008560Y0148847D01*
X0006060Y0148847D01*
X0015060Y0138847D02*
X0015060Y0136429D01*
X0023432Y0128057D01*
X0061686Y0128057D01*
X0066148Y0140259D02*
X0066148Y0052435D01*
X0059060Y0045347D01*
X0051060Y0027847D02*
X0093760Y0027847D01*
X0096060Y0030147D01*
X0096060Y0040147D02*
X0092260Y0040147D01*
X0076060Y0056347D01*
X0076060Y0140347D01*
X0076060Y0146347D01*
X0071560Y0150847D01*
X0061560Y0150847D01*
X0058934Y0153473D01*
X0058934Y0164347D01*
X0051060Y0164347D02*
X0051060Y0153847D01*
X0056560Y0148347D01*
X0062060Y0148347D01*
X0066060Y0144347D01*
X0066060Y0140347D01*
X0066148Y0140259D01*
X0056060Y0140347D02*
X0056060Y0145847D01*
X0053560Y0148347D01*
X0048560Y0148347D01*
X0043186Y0153721D01*
X0043186Y0164347D01*
X0015060Y0128847D02*
X0019060Y0124847D01*
X0019060Y0111847D01*
X0031560Y0099347D01*
X0031560Y0047347D01*
X0051060Y0027847D01*
X0047318Y0027605D02*
X0047150Y0027772D01*
X0029060Y0045862D01*
X0029060Y0046347D01*
X0029060Y0097847D01*
X0016060Y0110847D01*
X0016060Y0121347D01*
X0011060Y0126347D01*
X0018060Y0073847D02*
X0018060Y0058347D01*
X0009860Y0050147D01*
X0006060Y0050147D01*
X0006060Y0040147D02*
X0013860Y0040147D01*
X0019060Y0045347D01*
X0029060Y0045847D02*
X0029060Y0045862D01*
X0021060Y0030147D02*
X0006060Y0030147D01*
X0079560Y0033347D02*
X0079560Y0033647D01*
X0086060Y0040147D01*
X0096060Y0040147D01*
X0096060Y0050147D02*
X0092260Y0050147D01*
X0088060Y0054347D01*
X0088060Y0149847D01*
X0096645Y0080732D02*
X0096060Y0080147D01*
X0096645Y0080732D02*
X0104685Y0080732D01*
X0125560Y0059857D01*
X0125560Y0015847D01*
X0115560Y0015847D02*
X0115560Y0059195D01*
X0105269Y0069487D01*
X0096721Y0069487D01*
X0096060Y0070147D01*
D14*
X0079560Y0033347D03*
X0053900Y0021019D03*
X0040061Y0020097D03*
X0018060Y0073847D03*
X0061686Y0128057D03*
X0015060Y0128847D03*
X0015060Y0138847D03*
M02*
