G75*
%MOIN*%
%OFA0B0*%
%FSLAX25Y25*%
%IPPOS*%
%LPD*%
%AMOC8*
5,1,8,0,0,1.08239X$1,22.5*
%
%ADD10C,0.00039*%
%ADD11C,0.00000*%
%ADD12C,0.07874*%
D10*
X0003725Y0024786D02*
X0005449Y0024438D01*
X0020858Y0024438D01*
X0022582Y0024090D01*
X0023990Y0023141D01*
X0024939Y0021733D01*
X0025288Y0020009D01*
X0025288Y0003556D01*
X0025487Y0002569D01*
X0026030Y0001763D01*
X0026837Y0001219D01*
X0027824Y0001020D01*
X0064373Y0001020D01*
X0065360Y0001219D01*
X0066167Y0001763D01*
X0066710Y0002569D01*
X0066909Y0003556D01*
X0066909Y0020009D01*
X0067257Y0021733D01*
X0068207Y0023141D01*
X0069615Y0024090D01*
X0071339Y0024438D01*
X0096591Y0024438D01*
X0098315Y0024786D01*
X0099722Y0025736D01*
X0100672Y0027143D01*
X0101020Y0028868D01*
X0101020Y0028599D01*
X0101329Y0030131D01*
X0102173Y0031383D01*
X0103424Y0032226D01*
X0104957Y0032536D01*
X0106489Y0032226D01*
X0107741Y0031383D01*
X0108584Y0030131D01*
X0108894Y0028599D01*
X0108894Y0003556D01*
X0109093Y0002569D01*
X0109637Y0001763D01*
X0110443Y0001219D01*
X0111430Y0001020D01*
X0154956Y0001020D01*
X0155943Y0001219D01*
X0156749Y0001763D01*
X0157293Y0002569D01*
X0157492Y0003556D01*
X0157492Y0167824D01*
X0157144Y0169548D01*
X0156195Y0170956D01*
X0154787Y0171905D01*
X0153063Y0172253D01*
X0113323Y0172253D01*
X0111599Y0171905D01*
X0110191Y0170956D01*
X0109242Y0169548D01*
X0108894Y0167824D01*
X0108894Y0168097D01*
X0108584Y0166565D01*
X0107741Y0165314D01*
X0106489Y0164470D01*
X0104957Y0164160D01*
X0103424Y0164470D01*
X0102173Y0165314D01*
X0101329Y0166565D01*
X0101020Y0168097D01*
X0101020Y0167824D01*
X0100672Y0169548D01*
X0099722Y0170956D01*
X0098315Y0171905D01*
X0096591Y0172253D01*
X0074566Y0172253D01*
X0072842Y0171905D01*
X0071434Y0170956D01*
X0070485Y0169548D01*
X0070137Y0167824D01*
X0070137Y0155664D01*
X0069937Y0154677D01*
X0069394Y0153870D01*
X0068588Y0153327D01*
X0067600Y0153128D01*
X0065382Y0153128D01*
X0064395Y0153327D01*
X0063588Y0153870D01*
X0063045Y0154677D01*
X0062846Y0155664D01*
X0062846Y0172253D01*
X0062646Y0173241D01*
X0062103Y0174047D01*
X0061297Y0174590D01*
X0060309Y0174790D01*
X0041752Y0174790D01*
X0040765Y0174590D01*
X0039959Y0174047D01*
X0039415Y0173241D01*
X0039216Y0172253D01*
X0039216Y0155664D01*
X0039017Y0154677D01*
X0038473Y0153870D01*
X0037667Y0153327D01*
X0036680Y0153128D01*
X0034461Y0153128D01*
X0033474Y0153327D01*
X0032668Y0153870D01*
X0032124Y0154677D01*
X0031925Y0155664D01*
X0031925Y0167824D01*
X0031577Y0169548D01*
X0030628Y0170956D01*
X0029220Y0171905D01*
X0027496Y0172253D01*
X0005449Y0172253D01*
X0003725Y0171905D01*
X0002317Y0170956D01*
X0001368Y0169548D01*
X0001020Y0167824D01*
X0001020Y0028868D01*
X0001368Y0027143D01*
X0002317Y0025736D01*
X0003725Y0024786D01*
D11*
X0100493Y0033347D02*
X0100495Y0033409D01*
X0100501Y0033472D01*
X0100511Y0033533D01*
X0100525Y0033594D01*
X0100542Y0033654D01*
X0100563Y0033713D01*
X0100589Y0033770D01*
X0100617Y0033825D01*
X0100649Y0033879D01*
X0100685Y0033930D01*
X0100723Y0033980D01*
X0100765Y0034026D01*
X0100809Y0034070D01*
X0100857Y0034111D01*
X0100906Y0034149D01*
X0100958Y0034183D01*
X0101012Y0034214D01*
X0101068Y0034242D01*
X0101126Y0034266D01*
X0101185Y0034287D01*
X0101245Y0034303D01*
X0101306Y0034316D01*
X0101368Y0034325D01*
X0101430Y0034330D01*
X0101493Y0034331D01*
X0101555Y0034328D01*
X0101617Y0034321D01*
X0101679Y0034310D01*
X0101739Y0034295D01*
X0101799Y0034277D01*
X0101857Y0034255D01*
X0101914Y0034229D01*
X0101969Y0034199D01*
X0102022Y0034166D01*
X0102073Y0034130D01*
X0102121Y0034091D01*
X0102167Y0034048D01*
X0102210Y0034003D01*
X0102250Y0033955D01*
X0102287Y0033905D01*
X0102321Y0033852D01*
X0102352Y0033798D01*
X0102378Y0033742D01*
X0102402Y0033684D01*
X0102421Y0033624D01*
X0102437Y0033564D01*
X0102449Y0033502D01*
X0102457Y0033441D01*
X0102461Y0033378D01*
X0102461Y0033316D01*
X0102457Y0033253D01*
X0102449Y0033192D01*
X0102437Y0033130D01*
X0102421Y0033070D01*
X0102402Y0033010D01*
X0102378Y0032952D01*
X0102352Y0032896D01*
X0102321Y0032842D01*
X0102287Y0032789D01*
X0102250Y0032739D01*
X0102210Y0032691D01*
X0102167Y0032646D01*
X0102121Y0032603D01*
X0102073Y0032564D01*
X0102022Y0032528D01*
X0101969Y0032495D01*
X0101914Y0032465D01*
X0101857Y0032439D01*
X0101799Y0032417D01*
X0101739Y0032399D01*
X0101679Y0032384D01*
X0101617Y0032373D01*
X0101555Y0032366D01*
X0101493Y0032363D01*
X0101430Y0032364D01*
X0101368Y0032369D01*
X0101306Y0032378D01*
X0101245Y0032391D01*
X0101185Y0032407D01*
X0101126Y0032428D01*
X0101068Y0032452D01*
X0101012Y0032480D01*
X0100958Y0032511D01*
X0100906Y0032545D01*
X0100857Y0032583D01*
X0100809Y0032624D01*
X0100765Y0032668D01*
X0100723Y0032714D01*
X0100685Y0032764D01*
X0100649Y0032815D01*
X0100617Y0032869D01*
X0100589Y0032924D01*
X0100563Y0032981D01*
X0100542Y0033040D01*
X0100525Y0033100D01*
X0100511Y0033161D01*
X0100501Y0033222D01*
X0100495Y0033285D01*
X0100493Y0033347D01*
X0100493Y0038847D02*
X0100495Y0038909D01*
X0100501Y0038972D01*
X0100511Y0039033D01*
X0100525Y0039094D01*
X0100542Y0039154D01*
X0100563Y0039213D01*
X0100589Y0039270D01*
X0100617Y0039325D01*
X0100649Y0039379D01*
X0100685Y0039430D01*
X0100723Y0039480D01*
X0100765Y0039526D01*
X0100809Y0039570D01*
X0100857Y0039611D01*
X0100906Y0039649D01*
X0100958Y0039683D01*
X0101012Y0039714D01*
X0101068Y0039742D01*
X0101126Y0039766D01*
X0101185Y0039787D01*
X0101245Y0039803D01*
X0101306Y0039816D01*
X0101368Y0039825D01*
X0101430Y0039830D01*
X0101493Y0039831D01*
X0101555Y0039828D01*
X0101617Y0039821D01*
X0101679Y0039810D01*
X0101739Y0039795D01*
X0101799Y0039777D01*
X0101857Y0039755D01*
X0101914Y0039729D01*
X0101969Y0039699D01*
X0102022Y0039666D01*
X0102073Y0039630D01*
X0102121Y0039591D01*
X0102167Y0039548D01*
X0102210Y0039503D01*
X0102250Y0039455D01*
X0102287Y0039405D01*
X0102321Y0039352D01*
X0102352Y0039298D01*
X0102378Y0039242D01*
X0102402Y0039184D01*
X0102421Y0039124D01*
X0102437Y0039064D01*
X0102449Y0039002D01*
X0102457Y0038941D01*
X0102461Y0038878D01*
X0102461Y0038816D01*
X0102457Y0038753D01*
X0102449Y0038692D01*
X0102437Y0038630D01*
X0102421Y0038570D01*
X0102402Y0038510D01*
X0102378Y0038452D01*
X0102352Y0038396D01*
X0102321Y0038342D01*
X0102287Y0038289D01*
X0102250Y0038239D01*
X0102210Y0038191D01*
X0102167Y0038146D01*
X0102121Y0038103D01*
X0102073Y0038064D01*
X0102022Y0038028D01*
X0101969Y0037995D01*
X0101914Y0037965D01*
X0101857Y0037939D01*
X0101799Y0037917D01*
X0101739Y0037899D01*
X0101679Y0037884D01*
X0101617Y0037873D01*
X0101555Y0037866D01*
X0101493Y0037863D01*
X0101430Y0037864D01*
X0101368Y0037869D01*
X0101306Y0037878D01*
X0101245Y0037891D01*
X0101185Y0037907D01*
X0101126Y0037928D01*
X0101068Y0037952D01*
X0101012Y0037980D01*
X0100958Y0038011D01*
X0100906Y0038045D01*
X0100857Y0038083D01*
X0100809Y0038124D01*
X0100765Y0038168D01*
X0100723Y0038214D01*
X0100685Y0038264D01*
X0100649Y0038315D01*
X0100617Y0038369D01*
X0100589Y0038424D01*
X0100563Y0038481D01*
X0100542Y0038540D01*
X0100525Y0038600D01*
X0100511Y0038661D01*
X0100501Y0038722D01*
X0100495Y0038785D01*
X0100493Y0038847D01*
X0100493Y0043847D02*
X0100495Y0043909D01*
X0100501Y0043972D01*
X0100511Y0044033D01*
X0100525Y0044094D01*
X0100542Y0044154D01*
X0100563Y0044213D01*
X0100589Y0044270D01*
X0100617Y0044325D01*
X0100649Y0044379D01*
X0100685Y0044430D01*
X0100723Y0044480D01*
X0100765Y0044526D01*
X0100809Y0044570D01*
X0100857Y0044611D01*
X0100906Y0044649D01*
X0100958Y0044683D01*
X0101012Y0044714D01*
X0101068Y0044742D01*
X0101126Y0044766D01*
X0101185Y0044787D01*
X0101245Y0044803D01*
X0101306Y0044816D01*
X0101368Y0044825D01*
X0101430Y0044830D01*
X0101493Y0044831D01*
X0101555Y0044828D01*
X0101617Y0044821D01*
X0101679Y0044810D01*
X0101739Y0044795D01*
X0101799Y0044777D01*
X0101857Y0044755D01*
X0101914Y0044729D01*
X0101969Y0044699D01*
X0102022Y0044666D01*
X0102073Y0044630D01*
X0102121Y0044591D01*
X0102167Y0044548D01*
X0102210Y0044503D01*
X0102250Y0044455D01*
X0102287Y0044405D01*
X0102321Y0044352D01*
X0102352Y0044298D01*
X0102378Y0044242D01*
X0102402Y0044184D01*
X0102421Y0044124D01*
X0102437Y0044064D01*
X0102449Y0044002D01*
X0102457Y0043941D01*
X0102461Y0043878D01*
X0102461Y0043816D01*
X0102457Y0043753D01*
X0102449Y0043692D01*
X0102437Y0043630D01*
X0102421Y0043570D01*
X0102402Y0043510D01*
X0102378Y0043452D01*
X0102352Y0043396D01*
X0102321Y0043342D01*
X0102287Y0043289D01*
X0102250Y0043239D01*
X0102210Y0043191D01*
X0102167Y0043146D01*
X0102121Y0043103D01*
X0102073Y0043064D01*
X0102022Y0043028D01*
X0101969Y0042995D01*
X0101914Y0042965D01*
X0101857Y0042939D01*
X0101799Y0042917D01*
X0101739Y0042899D01*
X0101679Y0042884D01*
X0101617Y0042873D01*
X0101555Y0042866D01*
X0101493Y0042863D01*
X0101430Y0042864D01*
X0101368Y0042869D01*
X0101306Y0042878D01*
X0101245Y0042891D01*
X0101185Y0042907D01*
X0101126Y0042928D01*
X0101068Y0042952D01*
X0101012Y0042980D01*
X0100958Y0043011D01*
X0100906Y0043045D01*
X0100857Y0043083D01*
X0100809Y0043124D01*
X0100765Y0043168D01*
X0100723Y0043214D01*
X0100685Y0043264D01*
X0100649Y0043315D01*
X0100617Y0043369D01*
X0100589Y0043424D01*
X0100563Y0043481D01*
X0100542Y0043540D01*
X0100525Y0043600D01*
X0100511Y0043661D01*
X0100501Y0043722D01*
X0100495Y0043785D01*
X0100493Y0043847D01*
X0100493Y0066347D02*
X0100495Y0066409D01*
X0100501Y0066472D01*
X0100511Y0066533D01*
X0100525Y0066594D01*
X0100542Y0066654D01*
X0100563Y0066713D01*
X0100589Y0066770D01*
X0100617Y0066825D01*
X0100649Y0066879D01*
X0100685Y0066930D01*
X0100723Y0066980D01*
X0100765Y0067026D01*
X0100809Y0067070D01*
X0100857Y0067111D01*
X0100906Y0067149D01*
X0100958Y0067183D01*
X0101012Y0067214D01*
X0101068Y0067242D01*
X0101126Y0067266D01*
X0101185Y0067287D01*
X0101245Y0067303D01*
X0101306Y0067316D01*
X0101368Y0067325D01*
X0101430Y0067330D01*
X0101493Y0067331D01*
X0101555Y0067328D01*
X0101617Y0067321D01*
X0101679Y0067310D01*
X0101739Y0067295D01*
X0101799Y0067277D01*
X0101857Y0067255D01*
X0101914Y0067229D01*
X0101969Y0067199D01*
X0102022Y0067166D01*
X0102073Y0067130D01*
X0102121Y0067091D01*
X0102167Y0067048D01*
X0102210Y0067003D01*
X0102250Y0066955D01*
X0102287Y0066905D01*
X0102321Y0066852D01*
X0102352Y0066798D01*
X0102378Y0066742D01*
X0102402Y0066684D01*
X0102421Y0066624D01*
X0102437Y0066564D01*
X0102449Y0066502D01*
X0102457Y0066441D01*
X0102461Y0066378D01*
X0102461Y0066316D01*
X0102457Y0066253D01*
X0102449Y0066192D01*
X0102437Y0066130D01*
X0102421Y0066070D01*
X0102402Y0066010D01*
X0102378Y0065952D01*
X0102352Y0065896D01*
X0102321Y0065842D01*
X0102287Y0065789D01*
X0102250Y0065739D01*
X0102210Y0065691D01*
X0102167Y0065646D01*
X0102121Y0065603D01*
X0102073Y0065564D01*
X0102022Y0065528D01*
X0101969Y0065495D01*
X0101914Y0065465D01*
X0101857Y0065439D01*
X0101799Y0065417D01*
X0101739Y0065399D01*
X0101679Y0065384D01*
X0101617Y0065373D01*
X0101555Y0065366D01*
X0101493Y0065363D01*
X0101430Y0065364D01*
X0101368Y0065369D01*
X0101306Y0065378D01*
X0101245Y0065391D01*
X0101185Y0065407D01*
X0101126Y0065428D01*
X0101068Y0065452D01*
X0101012Y0065480D01*
X0100958Y0065511D01*
X0100906Y0065545D01*
X0100857Y0065583D01*
X0100809Y0065624D01*
X0100765Y0065668D01*
X0100723Y0065714D01*
X0100685Y0065764D01*
X0100649Y0065815D01*
X0100617Y0065869D01*
X0100589Y0065924D01*
X0100563Y0065981D01*
X0100542Y0066040D01*
X0100525Y0066100D01*
X0100511Y0066161D01*
X0100501Y0066222D01*
X0100495Y0066285D01*
X0100493Y0066347D01*
X0100493Y0072347D02*
X0100495Y0072409D01*
X0100501Y0072472D01*
X0100511Y0072533D01*
X0100525Y0072594D01*
X0100542Y0072654D01*
X0100563Y0072713D01*
X0100589Y0072770D01*
X0100617Y0072825D01*
X0100649Y0072879D01*
X0100685Y0072930D01*
X0100723Y0072980D01*
X0100765Y0073026D01*
X0100809Y0073070D01*
X0100857Y0073111D01*
X0100906Y0073149D01*
X0100958Y0073183D01*
X0101012Y0073214D01*
X0101068Y0073242D01*
X0101126Y0073266D01*
X0101185Y0073287D01*
X0101245Y0073303D01*
X0101306Y0073316D01*
X0101368Y0073325D01*
X0101430Y0073330D01*
X0101493Y0073331D01*
X0101555Y0073328D01*
X0101617Y0073321D01*
X0101679Y0073310D01*
X0101739Y0073295D01*
X0101799Y0073277D01*
X0101857Y0073255D01*
X0101914Y0073229D01*
X0101969Y0073199D01*
X0102022Y0073166D01*
X0102073Y0073130D01*
X0102121Y0073091D01*
X0102167Y0073048D01*
X0102210Y0073003D01*
X0102250Y0072955D01*
X0102287Y0072905D01*
X0102321Y0072852D01*
X0102352Y0072798D01*
X0102378Y0072742D01*
X0102402Y0072684D01*
X0102421Y0072624D01*
X0102437Y0072564D01*
X0102449Y0072502D01*
X0102457Y0072441D01*
X0102461Y0072378D01*
X0102461Y0072316D01*
X0102457Y0072253D01*
X0102449Y0072192D01*
X0102437Y0072130D01*
X0102421Y0072070D01*
X0102402Y0072010D01*
X0102378Y0071952D01*
X0102352Y0071896D01*
X0102321Y0071842D01*
X0102287Y0071789D01*
X0102250Y0071739D01*
X0102210Y0071691D01*
X0102167Y0071646D01*
X0102121Y0071603D01*
X0102073Y0071564D01*
X0102022Y0071528D01*
X0101969Y0071495D01*
X0101914Y0071465D01*
X0101857Y0071439D01*
X0101799Y0071417D01*
X0101739Y0071399D01*
X0101679Y0071384D01*
X0101617Y0071373D01*
X0101555Y0071366D01*
X0101493Y0071363D01*
X0101430Y0071364D01*
X0101368Y0071369D01*
X0101306Y0071378D01*
X0101245Y0071391D01*
X0101185Y0071407D01*
X0101126Y0071428D01*
X0101068Y0071452D01*
X0101012Y0071480D01*
X0100958Y0071511D01*
X0100906Y0071545D01*
X0100857Y0071583D01*
X0100809Y0071624D01*
X0100765Y0071668D01*
X0100723Y0071714D01*
X0100685Y0071764D01*
X0100649Y0071815D01*
X0100617Y0071869D01*
X0100589Y0071924D01*
X0100563Y0071981D01*
X0100542Y0072040D01*
X0100525Y0072100D01*
X0100511Y0072161D01*
X0100501Y0072222D01*
X0100495Y0072285D01*
X0100493Y0072347D01*
X0100493Y0077847D02*
X0100495Y0077909D01*
X0100501Y0077972D01*
X0100511Y0078033D01*
X0100525Y0078094D01*
X0100542Y0078154D01*
X0100563Y0078213D01*
X0100589Y0078270D01*
X0100617Y0078325D01*
X0100649Y0078379D01*
X0100685Y0078430D01*
X0100723Y0078480D01*
X0100765Y0078526D01*
X0100809Y0078570D01*
X0100857Y0078611D01*
X0100906Y0078649D01*
X0100958Y0078683D01*
X0101012Y0078714D01*
X0101068Y0078742D01*
X0101126Y0078766D01*
X0101185Y0078787D01*
X0101245Y0078803D01*
X0101306Y0078816D01*
X0101368Y0078825D01*
X0101430Y0078830D01*
X0101493Y0078831D01*
X0101555Y0078828D01*
X0101617Y0078821D01*
X0101679Y0078810D01*
X0101739Y0078795D01*
X0101799Y0078777D01*
X0101857Y0078755D01*
X0101914Y0078729D01*
X0101969Y0078699D01*
X0102022Y0078666D01*
X0102073Y0078630D01*
X0102121Y0078591D01*
X0102167Y0078548D01*
X0102210Y0078503D01*
X0102250Y0078455D01*
X0102287Y0078405D01*
X0102321Y0078352D01*
X0102352Y0078298D01*
X0102378Y0078242D01*
X0102402Y0078184D01*
X0102421Y0078124D01*
X0102437Y0078064D01*
X0102449Y0078002D01*
X0102457Y0077941D01*
X0102461Y0077878D01*
X0102461Y0077816D01*
X0102457Y0077753D01*
X0102449Y0077692D01*
X0102437Y0077630D01*
X0102421Y0077570D01*
X0102402Y0077510D01*
X0102378Y0077452D01*
X0102352Y0077396D01*
X0102321Y0077342D01*
X0102287Y0077289D01*
X0102250Y0077239D01*
X0102210Y0077191D01*
X0102167Y0077146D01*
X0102121Y0077103D01*
X0102073Y0077064D01*
X0102022Y0077028D01*
X0101969Y0076995D01*
X0101914Y0076965D01*
X0101857Y0076939D01*
X0101799Y0076917D01*
X0101739Y0076899D01*
X0101679Y0076884D01*
X0101617Y0076873D01*
X0101555Y0076866D01*
X0101493Y0076863D01*
X0101430Y0076864D01*
X0101368Y0076869D01*
X0101306Y0076878D01*
X0101245Y0076891D01*
X0101185Y0076907D01*
X0101126Y0076928D01*
X0101068Y0076952D01*
X0101012Y0076980D01*
X0100958Y0077011D01*
X0100906Y0077045D01*
X0100857Y0077083D01*
X0100809Y0077124D01*
X0100765Y0077168D01*
X0100723Y0077214D01*
X0100685Y0077264D01*
X0100649Y0077315D01*
X0100617Y0077369D01*
X0100589Y0077424D01*
X0100563Y0077481D01*
X0100542Y0077540D01*
X0100525Y0077600D01*
X0100511Y0077661D01*
X0100501Y0077722D01*
X0100495Y0077785D01*
X0100493Y0077847D01*
X0100493Y0083847D02*
X0100495Y0083909D01*
X0100501Y0083972D01*
X0100511Y0084033D01*
X0100525Y0084094D01*
X0100542Y0084154D01*
X0100563Y0084213D01*
X0100589Y0084270D01*
X0100617Y0084325D01*
X0100649Y0084379D01*
X0100685Y0084430D01*
X0100723Y0084480D01*
X0100765Y0084526D01*
X0100809Y0084570D01*
X0100857Y0084611D01*
X0100906Y0084649D01*
X0100958Y0084683D01*
X0101012Y0084714D01*
X0101068Y0084742D01*
X0101126Y0084766D01*
X0101185Y0084787D01*
X0101245Y0084803D01*
X0101306Y0084816D01*
X0101368Y0084825D01*
X0101430Y0084830D01*
X0101493Y0084831D01*
X0101555Y0084828D01*
X0101617Y0084821D01*
X0101679Y0084810D01*
X0101739Y0084795D01*
X0101799Y0084777D01*
X0101857Y0084755D01*
X0101914Y0084729D01*
X0101969Y0084699D01*
X0102022Y0084666D01*
X0102073Y0084630D01*
X0102121Y0084591D01*
X0102167Y0084548D01*
X0102210Y0084503D01*
X0102250Y0084455D01*
X0102287Y0084405D01*
X0102321Y0084352D01*
X0102352Y0084298D01*
X0102378Y0084242D01*
X0102402Y0084184D01*
X0102421Y0084124D01*
X0102437Y0084064D01*
X0102449Y0084002D01*
X0102457Y0083941D01*
X0102461Y0083878D01*
X0102461Y0083816D01*
X0102457Y0083753D01*
X0102449Y0083692D01*
X0102437Y0083630D01*
X0102421Y0083570D01*
X0102402Y0083510D01*
X0102378Y0083452D01*
X0102352Y0083396D01*
X0102321Y0083342D01*
X0102287Y0083289D01*
X0102250Y0083239D01*
X0102210Y0083191D01*
X0102167Y0083146D01*
X0102121Y0083103D01*
X0102073Y0083064D01*
X0102022Y0083028D01*
X0101969Y0082995D01*
X0101914Y0082965D01*
X0101857Y0082939D01*
X0101799Y0082917D01*
X0101739Y0082899D01*
X0101679Y0082884D01*
X0101617Y0082873D01*
X0101555Y0082866D01*
X0101493Y0082863D01*
X0101430Y0082864D01*
X0101368Y0082869D01*
X0101306Y0082878D01*
X0101245Y0082891D01*
X0101185Y0082907D01*
X0101126Y0082928D01*
X0101068Y0082952D01*
X0101012Y0082980D01*
X0100958Y0083011D01*
X0100906Y0083045D01*
X0100857Y0083083D01*
X0100809Y0083124D01*
X0100765Y0083168D01*
X0100723Y0083214D01*
X0100685Y0083264D01*
X0100649Y0083315D01*
X0100617Y0083369D01*
X0100589Y0083424D01*
X0100563Y0083481D01*
X0100542Y0083540D01*
X0100525Y0083600D01*
X0100511Y0083661D01*
X0100501Y0083722D01*
X0100495Y0083785D01*
X0100493Y0083847D01*
X0100493Y0112347D02*
X0100495Y0112409D01*
X0100501Y0112472D01*
X0100511Y0112533D01*
X0100525Y0112594D01*
X0100542Y0112654D01*
X0100563Y0112713D01*
X0100589Y0112770D01*
X0100617Y0112825D01*
X0100649Y0112879D01*
X0100685Y0112930D01*
X0100723Y0112980D01*
X0100765Y0113026D01*
X0100809Y0113070D01*
X0100857Y0113111D01*
X0100906Y0113149D01*
X0100958Y0113183D01*
X0101012Y0113214D01*
X0101068Y0113242D01*
X0101126Y0113266D01*
X0101185Y0113287D01*
X0101245Y0113303D01*
X0101306Y0113316D01*
X0101368Y0113325D01*
X0101430Y0113330D01*
X0101493Y0113331D01*
X0101555Y0113328D01*
X0101617Y0113321D01*
X0101679Y0113310D01*
X0101739Y0113295D01*
X0101799Y0113277D01*
X0101857Y0113255D01*
X0101914Y0113229D01*
X0101969Y0113199D01*
X0102022Y0113166D01*
X0102073Y0113130D01*
X0102121Y0113091D01*
X0102167Y0113048D01*
X0102210Y0113003D01*
X0102250Y0112955D01*
X0102287Y0112905D01*
X0102321Y0112852D01*
X0102352Y0112798D01*
X0102378Y0112742D01*
X0102402Y0112684D01*
X0102421Y0112624D01*
X0102437Y0112564D01*
X0102449Y0112502D01*
X0102457Y0112441D01*
X0102461Y0112378D01*
X0102461Y0112316D01*
X0102457Y0112253D01*
X0102449Y0112192D01*
X0102437Y0112130D01*
X0102421Y0112070D01*
X0102402Y0112010D01*
X0102378Y0111952D01*
X0102352Y0111896D01*
X0102321Y0111842D01*
X0102287Y0111789D01*
X0102250Y0111739D01*
X0102210Y0111691D01*
X0102167Y0111646D01*
X0102121Y0111603D01*
X0102073Y0111564D01*
X0102022Y0111528D01*
X0101969Y0111495D01*
X0101914Y0111465D01*
X0101857Y0111439D01*
X0101799Y0111417D01*
X0101739Y0111399D01*
X0101679Y0111384D01*
X0101617Y0111373D01*
X0101555Y0111366D01*
X0101493Y0111363D01*
X0101430Y0111364D01*
X0101368Y0111369D01*
X0101306Y0111378D01*
X0101245Y0111391D01*
X0101185Y0111407D01*
X0101126Y0111428D01*
X0101068Y0111452D01*
X0101012Y0111480D01*
X0100958Y0111511D01*
X0100906Y0111545D01*
X0100857Y0111583D01*
X0100809Y0111624D01*
X0100765Y0111668D01*
X0100723Y0111714D01*
X0100685Y0111764D01*
X0100649Y0111815D01*
X0100617Y0111869D01*
X0100589Y0111924D01*
X0100563Y0111981D01*
X0100542Y0112040D01*
X0100525Y0112100D01*
X0100511Y0112161D01*
X0100501Y0112222D01*
X0100495Y0112285D01*
X0100493Y0112347D01*
X0100493Y0117847D02*
X0100495Y0117909D01*
X0100501Y0117972D01*
X0100511Y0118033D01*
X0100525Y0118094D01*
X0100542Y0118154D01*
X0100563Y0118213D01*
X0100589Y0118270D01*
X0100617Y0118325D01*
X0100649Y0118379D01*
X0100685Y0118430D01*
X0100723Y0118480D01*
X0100765Y0118526D01*
X0100809Y0118570D01*
X0100857Y0118611D01*
X0100906Y0118649D01*
X0100958Y0118683D01*
X0101012Y0118714D01*
X0101068Y0118742D01*
X0101126Y0118766D01*
X0101185Y0118787D01*
X0101245Y0118803D01*
X0101306Y0118816D01*
X0101368Y0118825D01*
X0101430Y0118830D01*
X0101493Y0118831D01*
X0101555Y0118828D01*
X0101617Y0118821D01*
X0101679Y0118810D01*
X0101739Y0118795D01*
X0101799Y0118777D01*
X0101857Y0118755D01*
X0101914Y0118729D01*
X0101969Y0118699D01*
X0102022Y0118666D01*
X0102073Y0118630D01*
X0102121Y0118591D01*
X0102167Y0118548D01*
X0102210Y0118503D01*
X0102250Y0118455D01*
X0102287Y0118405D01*
X0102321Y0118352D01*
X0102352Y0118298D01*
X0102378Y0118242D01*
X0102402Y0118184D01*
X0102421Y0118124D01*
X0102437Y0118064D01*
X0102449Y0118002D01*
X0102457Y0117941D01*
X0102461Y0117878D01*
X0102461Y0117816D01*
X0102457Y0117753D01*
X0102449Y0117692D01*
X0102437Y0117630D01*
X0102421Y0117570D01*
X0102402Y0117510D01*
X0102378Y0117452D01*
X0102352Y0117396D01*
X0102321Y0117342D01*
X0102287Y0117289D01*
X0102250Y0117239D01*
X0102210Y0117191D01*
X0102167Y0117146D01*
X0102121Y0117103D01*
X0102073Y0117064D01*
X0102022Y0117028D01*
X0101969Y0116995D01*
X0101914Y0116965D01*
X0101857Y0116939D01*
X0101799Y0116917D01*
X0101739Y0116899D01*
X0101679Y0116884D01*
X0101617Y0116873D01*
X0101555Y0116866D01*
X0101493Y0116863D01*
X0101430Y0116864D01*
X0101368Y0116869D01*
X0101306Y0116878D01*
X0101245Y0116891D01*
X0101185Y0116907D01*
X0101126Y0116928D01*
X0101068Y0116952D01*
X0101012Y0116980D01*
X0100958Y0117011D01*
X0100906Y0117045D01*
X0100857Y0117083D01*
X0100809Y0117124D01*
X0100765Y0117168D01*
X0100723Y0117214D01*
X0100685Y0117264D01*
X0100649Y0117315D01*
X0100617Y0117369D01*
X0100589Y0117424D01*
X0100563Y0117481D01*
X0100542Y0117540D01*
X0100525Y0117600D01*
X0100511Y0117661D01*
X0100501Y0117722D01*
X0100495Y0117785D01*
X0100493Y0117847D01*
X0100493Y0123347D02*
X0100495Y0123409D01*
X0100501Y0123472D01*
X0100511Y0123533D01*
X0100525Y0123594D01*
X0100542Y0123654D01*
X0100563Y0123713D01*
X0100589Y0123770D01*
X0100617Y0123825D01*
X0100649Y0123879D01*
X0100685Y0123930D01*
X0100723Y0123980D01*
X0100765Y0124026D01*
X0100809Y0124070D01*
X0100857Y0124111D01*
X0100906Y0124149D01*
X0100958Y0124183D01*
X0101012Y0124214D01*
X0101068Y0124242D01*
X0101126Y0124266D01*
X0101185Y0124287D01*
X0101245Y0124303D01*
X0101306Y0124316D01*
X0101368Y0124325D01*
X0101430Y0124330D01*
X0101493Y0124331D01*
X0101555Y0124328D01*
X0101617Y0124321D01*
X0101679Y0124310D01*
X0101739Y0124295D01*
X0101799Y0124277D01*
X0101857Y0124255D01*
X0101914Y0124229D01*
X0101969Y0124199D01*
X0102022Y0124166D01*
X0102073Y0124130D01*
X0102121Y0124091D01*
X0102167Y0124048D01*
X0102210Y0124003D01*
X0102250Y0123955D01*
X0102287Y0123905D01*
X0102321Y0123852D01*
X0102352Y0123798D01*
X0102378Y0123742D01*
X0102402Y0123684D01*
X0102421Y0123624D01*
X0102437Y0123564D01*
X0102449Y0123502D01*
X0102457Y0123441D01*
X0102461Y0123378D01*
X0102461Y0123316D01*
X0102457Y0123253D01*
X0102449Y0123192D01*
X0102437Y0123130D01*
X0102421Y0123070D01*
X0102402Y0123010D01*
X0102378Y0122952D01*
X0102352Y0122896D01*
X0102321Y0122842D01*
X0102287Y0122789D01*
X0102250Y0122739D01*
X0102210Y0122691D01*
X0102167Y0122646D01*
X0102121Y0122603D01*
X0102073Y0122564D01*
X0102022Y0122528D01*
X0101969Y0122495D01*
X0101914Y0122465D01*
X0101857Y0122439D01*
X0101799Y0122417D01*
X0101739Y0122399D01*
X0101679Y0122384D01*
X0101617Y0122373D01*
X0101555Y0122366D01*
X0101493Y0122363D01*
X0101430Y0122364D01*
X0101368Y0122369D01*
X0101306Y0122378D01*
X0101245Y0122391D01*
X0101185Y0122407D01*
X0101126Y0122428D01*
X0101068Y0122452D01*
X0101012Y0122480D01*
X0100958Y0122511D01*
X0100906Y0122545D01*
X0100857Y0122583D01*
X0100809Y0122624D01*
X0100765Y0122668D01*
X0100723Y0122714D01*
X0100685Y0122764D01*
X0100649Y0122815D01*
X0100617Y0122869D01*
X0100589Y0122924D01*
X0100563Y0122981D01*
X0100542Y0123040D01*
X0100525Y0123100D01*
X0100511Y0123161D01*
X0100501Y0123222D01*
X0100495Y0123285D01*
X0100493Y0123347D01*
X0100493Y0151847D02*
X0100495Y0151909D01*
X0100501Y0151972D01*
X0100511Y0152033D01*
X0100525Y0152094D01*
X0100542Y0152154D01*
X0100563Y0152213D01*
X0100589Y0152270D01*
X0100617Y0152325D01*
X0100649Y0152379D01*
X0100685Y0152430D01*
X0100723Y0152480D01*
X0100765Y0152526D01*
X0100809Y0152570D01*
X0100857Y0152611D01*
X0100906Y0152649D01*
X0100958Y0152683D01*
X0101012Y0152714D01*
X0101068Y0152742D01*
X0101126Y0152766D01*
X0101185Y0152787D01*
X0101245Y0152803D01*
X0101306Y0152816D01*
X0101368Y0152825D01*
X0101430Y0152830D01*
X0101493Y0152831D01*
X0101555Y0152828D01*
X0101617Y0152821D01*
X0101679Y0152810D01*
X0101739Y0152795D01*
X0101799Y0152777D01*
X0101857Y0152755D01*
X0101914Y0152729D01*
X0101969Y0152699D01*
X0102022Y0152666D01*
X0102073Y0152630D01*
X0102121Y0152591D01*
X0102167Y0152548D01*
X0102210Y0152503D01*
X0102250Y0152455D01*
X0102287Y0152405D01*
X0102321Y0152352D01*
X0102352Y0152298D01*
X0102378Y0152242D01*
X0102402Y0152184D01*
X0102421Y0152124D01*
X0102437Y0152064D01*
X0102449Y0152002D01*
X0102457Y0151941D01*
X0102461Y0151878D01*
X0102461Y0151816D01*
X0102457Y0151753D01*
X0102449Y0151692D01*
X0102437Y0151630D01*
X0102421Y0151570D01*
X0102402Y0151510D01*
X0102378Y0151452D01*
X0102352Y0151396D01*
X0102321Y0151342D01*
X0102287Y0151289D01*
X0102250Y0151239D01*
X0102210Y0151191D01*
X0102167Y0151146D01*
X0102121Y0151103D01*
X0102073Y0151064D01*
X0102022Y0151028D01*
X0101969Y0150995D01*
X0101914Y0150965D01*
X0101857Y0150939D01*
X0101799Y0150917D01*
X0101739Y0150899D01*
X0101679Y0150884D01*
X0101617Y0150873D01*
X0101555Y0150866D01*
X0101493Y0150863D01*
X0101430Y0150864D01*
X0101368Y0150869D01*
X0101306Y0150878D01*
X0101245Y0150891D01*
X0101185Y0150907D01*
X0101126Y0150928D01*
X0101068Y0150952D01*
X0101012Y0150980D01*
X0100958Y0151011D01*
X0100906Y0151045D01*
X0100857Y0151083D01*
X0100809Y0151124D01*
X0100765Y0151168D01*
X0100723Y0151214D01*
X0100685Y0151264D01*
X0100649Y0151315D01*
X0100617Y0151369D01*
X0100589Y0151424D01*
X0100563Y0151481D01*
X0100542Y0151540D01*
X0100525Y0151600D01*
X0100511Y0151661D01*
X0100501Y0151722D01*
X0100495Y0151785D01*
X0100493Y0151847D01*
X0100493Y0157847D02*
X0100495Y0157909D01*
X0100501Y0157972D01*
X0100511Y0158033D01*
X0100525Y0158094D01*
X0100542Y0158154D01*
X0100563Y0158213D01*
X0100589Y0158270D01*
X0100617Y0158325D01*
X0100649Y0158379D01*
X0100685Y0158430D01*
X0100723Y0158480D01*
X0100765Y0158526D01*
X0100809Y0158570D01*
X0100857Y0158611D01*
X0100906Y0158649D01*
X0100958Y0158683D01*
X0101012Y0158714D01*
X0101068Y0158742D01*
X0101126Y0158766D01*
X0101185Y0158787D01*
X0101245Y0158803D01*
X0101306Y0158816D01*
X0101368Y0158825D01*
X0101430Y0158830D01*
X0101493Y0158831D01*
X0101555Y0158828D01*
X0101617Y0158821D01*
X0101679Y0158810D01*
X0101739Y0158795D01*
X0101799Y0158777D01*
X0101857Y0158755D01*
X0101914Y0158729D01*
X0101969Y0158699D01*
X0102022Y0158666D01*
X0102073Y0158630D01*
X0102121Y0158591D01*
X0102167Y0158548D01*
X0102210Y0158503D01*
X0102250Y0158455D01*
X0102287Y0158405D01*
X0102321Y0158352D01*
X0102352Y0158298D01*
X0102378Y0158242D01*
X0102402Y0158184D01*
X0102421Y0158124D01*
X0102437Y0158064D01*
X0102449Y0158002D01*
X0102457Y0157941D01*
X0102461Y0157878D01*
X0102461Y0157816D01*
X0102457Y0157753D01*
X0102449Y0157692D01*
X0102437Y0157630D01*
X0102421Y0157570D01*
X0102402Y0157510D01*
X0102378Y0157452D01*
X0102352Y0157396D01*
X0102321Y0157342D01*
X0102287Y0157289D01*
X0102250Y0157239D01*
X0102210Y0157191D01*
X0102167Y0157146D01*
X0102121Y0157103D01*
X0102073Y0157064D01*
X0102022Y0157028D01*
X0101969Y0156995D01*
X0101914Y0156965D01*
X0101857Y0156939D01*
X0101799Y0156917D01*
X0101739Y0156899D01*
X0101679Y0156884D01*
X0101617Y0156873D01*
X0101555Y0156866D01*
X0101493Y0156863D01*
X0101430Y0156864D01*
X0101368Y0156869D01*
X0101306Y0156878D01*
X0101245Y0156891D01*
X0101185Y0156907D01*
X0101126Y0156928D01*
X0101068Y0156952D01*
X0101012Y0156980D01*
X0100958Y0157011D01*
X0100906Y0157045D01*
X0100857Y0157083D01*
X0100809Y0157124D01*
X0100765Y0157168D01*
X0100723Y0157214D01*
X0100685Y0157264D01*
X0100649Y0157315D01*
X0100617Y0157369D01*
X0100589Y0157424D01*
X0100563Y0157481D01*
X0100542Y0157540D01*
X0100525Y0157600D01*
X0100511Y0157661D01*
X0100501Y0157722D01*
X0100495Y0157785D01*
X0100493Y0157847D01*
X0100493Y0163347D02*
X0100495Y0163409D01*
X0100501Y0163472D01*
X0100511Y0163533D01*
X0100525Y0163594D01*
X0100542Y0163654D01*
X0100563Y0163713D01*
X0100589Y0163770D01*
X0100617Y0163825D01*
X0100649Y0163879D01*
X0100685Y0163930D01*
X0100723Y0163980D01*
X0100765Y0164026D01*
X0100809Y0164070D01*
X0100857Y0164111D01*
X0100906Y0164149D01*
X0100958Y0164183D01*
X0101012Y0164214D01*
X0101068Y0164242D01*
X0101126Y0164266D01*
X0101185Y0164287D01*
X0101245Y0164303D01*
X0101306Y0164316D01*
X0101368Y0164325D01*
X0101430Y0164330D01*
X0101493Y0164331D01*
X0101555Y0164328D01*
X0101617Y0164321D01*
X0101679Y0164310D01*
X0101739Y0164295D01*
X0101799Y0164277D01*
X0101857Y0164255D01*
X0101914Y0164229D01*
X0101969Y0164199D01*
X0102022Y0164166D01*
X0102073Y0164130D01*
X0102121Y0164091D01*
X0102167Y0164048D01*
X0102210Y0164003D01*
X0102250Y0163955D01*
X0102287Y0163905D01*
X0102321Y0163852D01*
X0102352Y0163798D01*
X0102378Y0163742D01*
X0102402Y0163684D01*
X0102421Y0163624D01*
X0102437Y0163564D01*
X0102449Y0163502D01*
X0102457Y0163441D01*
X0102461Y0163378D01*
X0102461Y0163316D01*
X0102457Y0163253D01*
X0102449Y0163192D01*
X0102437Y0163130D01*
X0102421Y0163070D01*
X0102402Y0163010D01*
X0102378Y0162952D01*
X0102352Y0162896D01*
X0102321Y0162842D01*
X0102287Y0162789D01*
X0102250Y0162739D01*
X0102210Y0162691D01*
X0102167Y0162646D01*
X0102121Y0162603D01*
X0102073Y0162564D01*
X0102022Y0162528D01*
X0101969Y0162495D01*
X0101914Y0162465D01*
X0101857Y0162439D01*
X0101799Y0162417D01*
X0101739Y0162399D01*
X0101679Y0162384D01*
X0101617Y0162373D01*
X0101555Y0162366D01*
X0101493Y0162363D01*
X0101430Y0162364D01*
X0101368Y0162369D01*
X0101306Y0162378D01*
X0101245Y0162391D01*
X0101185Y0162407D01*
X0101126Y0162428D01*
X0101068Y0162452D01*
X0101012Y0162480D01*
X0100958Y0162511D01*
X0100906Y0162545D01*
X0100857Y0162583D01*
X0100809Y0162624D01*
X0100765Y0162668D01*
X0100723Y0162714D01*
X0100685Y0162764D01*
X0100649Y0162815D01*
X0100617Y0162869D01*
X0100589Y0162924D01*
X0100563Y0162981D01*
X0100542Y0163040D01*
X0100525Y0163100D01*
X0100511Y0163161D01*
X0100501Y0163222D01*
X0100495Y0163285D01*
X0100493Y0163347D01*
D12*
X0104960Y0146647D02*
X0104960Y0128147D01*
X0104960Y0107147D02*
X0104960Y0088947D01*
X0104960Y0060947D02*
X0104960Y0048547D01*
M02*
