%
M48
M72
T01C0.0140
T02C0.0197
T03C0.0320
T04C0.0400
%
T01
X4006Y2010
X5390Y2102
X7956Y3335
X1806Y7385
X6169Y12806
X1506Y12885
X1506Y13885
T02
X10148Y15185
X10148Y15785
X10148Y16335
X10148Y12335
X10148Y11785
X10148Y11235
X10148Y8385
X10148Y7785
X10148Y7235
X10148Y6635
X10148Y4385
X10148Y3885
X10148Y3335
T03
X5906Y4535
X1906Y4535
X8806Y14985
X8806Y15985
T04
X606Y3015
X606Y4015
X606Y5015
X606Y6015
X606Y7015
X606Y8015
X606Y9015
X606Y10015
X606Y11885
X606Y12885
X606Y13885
X606Y14885
X606Y15885
X2606Y14035
X3606Y14035
X4606Y14035
X5606Y14035
X6606Y14035
X7606Y14035
X9606Y10015
X9606Y9015
X9606Y8015
X9606Y7015
X9606Y6015
X9606Y5015
X9606Y4015
X9606Y3015
X11556Y1585
X12556Y1585
X13556Y1585
X14556Y1585
X6106Y635
X5106Y635
X4106Y635
X3106Y635
M30
