G75*
%MOIN*%
%OFA0B0*%
%FSLAX25Y25*%
%IPPOS*%
%LPD*%
%AMOC8*
5,1,8,0,0,1.08239X$1,22.5*
%
%ADD10C,0.00500*%
%ADD11C,0.00600*%
%ADD12C,0.00800*%
%ADD13R,0.03400X0.02400*%
D10*
X0010955Y0029047D02*
X0011406Y0028597D01*
X0012306Y0028597D01*
X0012757Y0029047D01*
X0013902Y0029498D02*
X0013902Y0031299D01*
X0012757Y0030849D02*
X0012306Y0031299D01*
X0011406Y0031299D01*
X0010955Y0030849D01*
X0010955Y0030399D01*
X0011406Y0029948D01*
X0010955Y0029498D01*
X0010955Y0029047D01*
X0011406Y0029948D02*
X0011856Y0029948D01*
X0013902Y0029498D02*
X0014803Y0028597D01*
X0015703Y0029498D01*
X0015703Y0031299D01*
X0016848Y0030849D02*
X0016848Y0030399D01*
X0017299Y0029948D01*
X0016848Y0029498D01*
X0016848Y0029047D01*
X0017299Y0028597D01*
X0018199Y0028597D01*
X0018650Y0029047D01*
X0017749Y0029948D02*
X0017299Y0029948D01*
X0016848Y0030849D02*
X0017299Y0031299D01*
X0018199Y0031299D01*
X0018650Y0030849D01*
X0016256Y0038597D02*
X0014754Y0038597D01*
X0014254Y0039098D01*
X0014254Y0041099D01*
X0014754Y0041600D01*
X0016256Y0041600D01*
X0016256Y0038597D01*
X0013033Y0039098D02*
X0013033Y0039598D01*
X0012533Y0040098D01*
X0011532Y0040098D01*
X0011031Y0039598D01*
X0011031Y0039098D01*
X0011532Y0038597D01*
X0012533Y0038597D01*
X0013033Y0039098D01*
X0012533Y0040098D02*
X0013033Y0040599D01*
X0013033Y0041099D01*
X0012533Y0041600D01*
X0011532Y0041600D01*
X0011031Y0041099D01*
X0011031Y0040599D01*
X0011532Y0040098D01*
X0013033Y0048597D02*
X0013033Y0049098D01*
X0011031Y0051099D01*
X0011031Y0051600D01*
X0013033Y0051600D01*
X0014254Y0051099D02*
X0014754Y0051600D01*
X0016256Y0051600D01*
X0016256Y0048597D01*
X0014754Y0048597D01*
X0014254Y0049098D01*
X0014254Y0051099D01*
X0014754Y0058597D02*
X0014254Y0059098D01*
X0014254Y0061099D01*
X0014754Y0061600D01*
X0016256Y0061600D01*
X0016256Y0058597D01*
X0014754Y0058597D01*
X0013033Y0059098D02*
X0013033Y0060098D01*
X0011532Y0060098D01*
X0011031Y0059598D01*
X0011031Y0059098D01*
X0011532Y0058597D01*
X0012533Y0058597D01*
X0013033Y0059098D01*
X0013033Y0060098D02*
X0012032Y0061099D01*
X0011031Y0061600D01*
X0011532Y0068597D02*
X0011031Y0069098D01*
X0011031Y0070098D01*
X0011532Y0070599D01*
X0012032Y0070599D01*
X0013033Y0070098D01*
X0013033Y0071600D01*
X0011031Y0071600D01*
X0011532Y0068597D02*
X0012533Y0068597D01*
X0013033Y0069098D01*
X0014254Y0069098D02*
X0014254Y0071099D01*
X0014754Y0071600D01*
X0016256Y0071600D01*
X0016256Y0068597D01*
X0014754Y0068597D01*
X0014254Y0069098D01*
X0014754Y0078597D02*
X0014254Y0079098D01*
X0014254Y0081099D01*
X0014754Y0081600D01*
X0016256Y0081600D01*
X0016256Y0078597D01*
X0014754Y0078597D01*
X0013033Y0079098D02*
X0011031Y0081099D01*
X0011031Y0079098D01*
X0011532Y0078597D01*
X0012533Y0078597D01*
X0013033Y0079098D01*
X0013033Y0081099D01*
X0012533Y0081600D01*
X0011532Y0081600D01*
X0011031Y0081099D01*
X0011532Y0088597D02*
X0011031Y0089098D01*
X0011031Y0091099D01*
X0013033Y0089098D01*
X0012533Y0088597D01*
X0011532Y0088597D01*
X0013033Y0089098D02*
X0013033Y0091099D01*
X0012533Y0091600D01*
X0011532Y0091600D01*
X0011031Y0091099D01*
X0014254Y0090599D02*
X0014254Y0088597D01*
X0014254Y0090098D02*
X0016256Y0090098D01*
X0016256Y0090599D02*
X0015255Y0091600D01*
X0014254Y0090599D01*
X0016256Y0090599D02*
X0016256Y0088597D01*
X0016848Y0098597D02*
X0017749Y0099498D01*
X0017299Y0099498D02*
X0018650Y0099498D01*
X0018650Y0098597D02*
X0018650Y0101299D01*
X0017299Y0101299D01*
X0016848Y0100849D01*
X0016848Y0099948D01*
X0017299Y0099498D01*
X0015703Y0099047D02*
X0015253Y0098597D01*
X0014352Y0098597D01*
X0013902Y0099047D01*
X0013902Y0099498D01*
X0014352Y0099948D01*
X0015253Y0099948D01*
X0015703Y0100399D01*
X0015703Y0100849D01*
X0015253Y0101299D01*
X0014352Y0101299D01*
X0013902Y0100849D01*
X0012757Y0101299D02*
X0010955Y0101299D01*
X0011856Y0101299D02*
X0011856Y0098597D01*
X0025311Y0130152D02*
X0024810Y0130652D01*
X0024810Y0131653D01*
X0025311Y0132153D01*
X0025811Y0132153D01*
X0026312Y0131653D01*
X0026312Y0130652D01*
X0026812Y0130152D01*
X0027312Y0130152D01*
X0027813Y0130652D01*
X0027813Y0131653D01*
X0027312Y0132153D01*
X0027813Y0133374D02*
X0027813Y0134876D01*
X0027312Y0135376D01*
X0025311Y0135376D01*
X0024810Y0134876D01*
X0024810Y0133374D01*
X0027813Y0133374D01*
X0034810Y0133875D02*
X0034810Y0134876D01*
X0035311Y0135376D01*
X0037312Y0135376D01*
X0037813Y0134876D01*
X0037813Y0133875D01*
X0037312Y0133374D01*
X0035311Y0133374D01*
X0034810Y0133875D01*
X0035311Y0132153D02*
X0034810Y0131653D01*
X0034810Y0130652D01*
X0035311Y0130152D01*
X0036312Y0130652D02*
X0036312Y0131653D01*
X0035811Y0132153D01*
X0035311Y0132153D01*
X0036312Y0130652D02*
X0036812Y0130152D01*
X0037312Y0130152D01*
X0037813Y0130652D01*
X0037813Y0131653D01*
X0037312Y0132153D01*
X0044810Y0131653D02*
X0044810Y0130652D01*
X0045311Y0130152D01*
X0046312Y0130652D02*
X0046312Y0131653D01*
X0045811Y0132153D01*
X0045311Y0132153D01*
X0044810Y0131653D01*
X0045311Y0133374D02*
X0044810Y0133875D01*
X0044810Y0134876D01*
X0045311Y0135376D01*
X0047312Y0135376D02*
X0047813Y0134876D01*
X0047813Y0133875D01*
X0047312Y0133374D01*
X0045311Y0133374D01*
X0047312Y0132153D02*
X0047813Y0131653D01*
X0047813Y0130652D01*
X0047312Y0130152D01*
X0046812Y0130152D01*
X0046312Y0130652D01*
X0046770Y0123311D02*
X0043267Y0123311D01*
X0043267Y0121560D01*
X0043851Y0120976D01*
X0045019Y0120976D01*
X0045603Y0121560D01*
X0045603Y0123311D01*
X0045603Y0119628D02*
X0045603Y0117876D01*
X0045019Y0117293D01*
X0043851Y0117293D01*
X0043267Y0117876D01*
X0043267Y0119628D01*
X0043267Y0115945D02*
X0043267Y0114193D01*
X0043851Y0113609D01*
X0045019Y0113609D01*
X0045603Y0114193D01*
X0045603Y0115945D01*
X0045019Y0112262D02*
X0043851Y0112262D01*
X0043267Y0111678D01*
X0043267Y0109926D01*
X0046770Y0109926D01*
X0045603Y0109926D02*
X0045603Y0111678D01*
X0045019Y0112262D01*
X0045603Y0108579D02*
X0042684Y0108579D01*
X0042100Y0107995D01*
X0042100Y0107411D01*
X0043267Y0106827D02*
X0043267Y0108579D01*
X0043267Y0106827D02*
X0043851Y0106243D01*
X0045019Y0106243D01*
X0045603Y0106827D01*
X0045603Y0108579D01*
X0046770Y0104895D02*
X0043267Y0102560D01*
X0043267Y0101212D02*
X0043267Y0099461D01*
X0043851Y0098877D01*
X0045603Y0098877D01*
X0046770Y0097005D02*
X0043267Y0097005D01*
X0043267Y0096421D02*
X0043267Y0097589D01*
X0043267Y0095164D02*
X0043267Y0094580D01*
X0043851Y0094580D01*
X0043851Y0095164D01*
X0043267Y0095164D01*
X0043267Y0093292D02*
X0043851Y0092708D01*
X0046187Y0092708D01*
X0045603Y0092124D02*
X0045603Y0093292D01*
X0046770Y0096421D02*
X0046770Y0097005D01*
X0050681Y0096895D02*
X0050681Y0098063D01*
X0050681Y0097479D02*
X0053016Y0097479D01*
X0053016Y0096895D01*
X0054184Y0097479D02*
X0054768Y0097479D01*
X0052433Y0099350D02*
X0051265Y0099350D01*
X0050681Y0099934D01*
X0050681Y0101102D01*
X0051265Y0101686D01*
X0052433Y0101686D01*
X0053016Y0101102D01*
X0053016Y0099934D01*
X0052433Y0099350D01*
X0051265Y0095637D02*
X0050681Y0095637D01*
X0050681Y0095053D01*
X0051265Y0095053D01*
X0051265Y0095637D01*
X0050681Y0093766D02*
X0051265Y0093182D01*
X0053600Y0093182D01*
X0053016Y0092598D02*
X0053016Y0093766D01*
X0053016Y0090726D02*
X0050681Y0090726D01*
X0050681Y0090143D02*
X0050681Y0091310D01*
X0050681Y0088795D02*
X0050681Y0087043D01*
X0051265Y0086459D01*
X0052433Y0086459D01*
X0053016Y0087043D01*
X0053016Y0088795D01*
X0050097Y0088795D01*
X0049513Y0088211D01*
X0049513Y0087627D01*
X0046770Y0085986D02*
X0043267Y0085986D01*
X0043267Y0087737D01*
X0043851Y0088321D01*
X0045019Y0088321D01*
X0045603Y0087737D01*
X0045603Y0085986D01*
X0046770Y0084638D02*
X0043267Y0082303D01*
X0043267Y0078620D02*
X0046770Y0080955D01*
X0045603Y0077362D02*
X0045019Y0077362D01*
X0045019Y0076778D01*
X0045603Y0076778D01*
X0045603Y0077362D01*
X0043851Y0077362D02*
X0043851Y0076778D01*
X0043267Y0076778D01*
X0043267Y0077362D01*
X0043851Y0077362D01*
X0043851Y0075430D02*
X0044435Y0074846D01*
X0044435Y0073679D01*
X0045019Y0073095D01*
X0045603Y0073679D01*
X0045603Y0075430D01*
X0043851Y0075430D02*
X0043267Y0074846D01*
X0043267Y0073095D01*
X0043851Y0071747D02*
X0043267Y0071163D01*
X0043267Y0069412D01*
X0042100Y0069412D02*
X0045603Y0069412D01*
X0045603Y0071163D01*
X0045019Y0071747D01*
X0043851Y0071747D01*
X0043267Y0068124D02*
X0043851Y0067540D01*
X0046187Y0067540D01*
X0045603Y0066956D02*
X0045603Y0068124D01*
X0045603Y0065669D02*
X0045603Y0064501D01*
X0046187Y0065085D02*
X0043851Y0065085D01*
X0043267Y0065669D01*
X0043267Y0063153D02*
X0045019Y0063153D01*
X0045603Y0062569D01*
X0045603Y0061402D01*
X0045019Y0060818D01*
X0046770Y0060818D02*
X0043267Y0060818D01*
X0050681Y0061291D02*
X0054184Y0061291D01*
X0053016Y0061875D02*
X0053016Y0063043D01*
X0052433Y0063627D01*
X0050681Y0063627D01*
X0051265Y0065558D02*
X0050681Y0066142D01*
X0051265Y0065558D02*
X0053600Y0065558D01*
X0053016Y0064974D02*
X0053016Y0066142D01*
X0053016Y0067430D02*
X0053016Y0068598D01*
X0053600Y0068014D02*
X0051265Y0068014D01*
X0050681Y0068598D01*
X0050681Y0069885D02*
X0050681Y0071637D01*
X0051265Y0072221D01*
X0052433Y0072221D01*
X0053016Y0071637D01*
X0053016Y0069885D01*
X0049513Y0069885D01*
X0050681Y0073568D02*
X0050681Y0075320D01*
X0051265Y0075904D01*
X0051849Y0075320D01*
X0051849Y0074152D01*
X0052433Y0073568D01*
X0053016Y0074152D01*
X0053016Y0075904D01*
X0053016Y0077252D02*
X0052433Y0077252D01*
X0052433Y0077835D01*
X0053016Y0077835D01*
X0053016Y0077252D01*
X0051265Y0077252D02*
X0051265Y0077835D01*
X0050681Y0077835D01*
X0050681Y0077252D01*
X0051265Y0077252D01*
X0050681Y0079093D02*
X0054184Y0081428D01*
X0054184Y0085112D02*
X0050681Y0082776D01*
X0053016Y0090143D02*
X0053016Y0090726D01*
X0054184Y0090726D02*
X0054768Y0090726D01*
X0047354Y0090253D02*
X0046770Y0090253D01*
X0045603Y0090253D02*
X0043267Y0090253D01*
X0043267Y0089669D02*
X0043267Y0090837D01*
X0045603Y0090253D02*
X0045603Y0089669D01*
X0042100Y0100045D02*
X0042100Y0100628D01*
X0042684Y0101212D01*
X0045603Y0101212D01*
X0050681Y0103034D02*
X0054184Y0105369D01*
X0054184Y0107884D02*
X0054184Y0109052D01*
X0054184Y0108468D02*
X0051265Y0108468D01*
X0050681Y0107884D01*
X0050681Y0107301D01*
X0051265Y0106717D01*
X0051265Y0110400D02*
X0050681Y0110984D01*
X0050681Y0111568D01*
X0051265Y0112151D01*
X0054184Y0112151D01*
X0054184Y0111568D02*
X0054184Y0112735D01*
X0054184Y0114083D02*
X0050681Y0114083D01*
X0051849Y0114083D02*
X0050681Y0115835D01*
X0051265Y0117152D02*
X0050681Y0117736D01*
X0050681Y0118904D01*
X0051265Y0119488D01*
X0053600Y0119488D01*
X0054184Y0118904D01*
X0054184Y0117736D01*
X0053600Y0117152D01*
X0053016Y0117152D01*
X0052433Y0117736D01*
X0052433Y0119488D01*
X0053600Y0120835D02*
X0054184Y0121419D01*
X0054184Y0122587D01*
X0053600Y0123171D01*
X0053016Y0123171D01*
X0050681Y0120835D01*
X0050681Y0123171D01*
X0055311Y0131226D02*
X0054810Y0131726D01*
X0054810Y0132727D01*
X0055311Y0133228D01*
X0055811Y0133228D01*
X0056312Y0132727D01*
X0056312Y0131726D01*
X0056812Y0131226D01*
X0057312Y0131226D01*
X0057813Y0131726D01*
X0057813Y0132727D01*
X0057312Y0133228D01*
X0057813Y0134449D02*
X0057813Y0135449D01*
X0057813Y0134949D02*
X0054810Y0134949D01*
X0054810Y0134449D02*
X0054810Y0135449D01*
X0064810Y0134876D02*
X0065311Y0135376D01*
X0064810Y0134876D02*
X0064810Y0133875D01*
X0065311Y0133374D01*
X0067312Y0133374D01*
X0067813Y0133875D01*
X0067813Y0134876D01*
X0067312Y0135376D01*
X0067312Y0132153D02*
X0067813Y0131653D01*
X0067813Y0130652D01*
X0067312Y0130152D01*
X0065311Y0130152D01*
X0064810Y0130652D01*
X0064810Y0131653D01*
X0065311Y0132153D01*
X0065811Y0128931D02*
X0067813Y0128931D01*
X0065811Y0128931D02*
X0064810Y0127930D01*
X0065811Y0126929D01*
X0067813Y0126929D01*
X0074810Y0127429D02*
X0074810Y0128430D01*
X0075311Y0128931D01*
X0076312Y0128931D01*
X0076312Y0127930D01*
X0077312Y0128931D02*
X0077813Y0128430D01*
X0077813Y0127429D01*
X0077312Y0126929D01*
X0075311Y0126929D01*
X0074810Y0127429D01*
X0074810Y0130152D02*
X0077813Y0130152D01*
X0074810Y0132153D01*
X0077813Y0132153D01*
X0077813Y0133374D02*
X0077813Y0134876D01*
X0077312Y0135376D01*
X0075311Y0135376D01*
X0074810Y0134876D01*
X0074810Y0133374D01*
X0077813Y0133374D01*
X0053016Y0115835D02*
X0051849Y0114083D01*
X0086086Y0101600D02*
X0088088Y0098597D01*
X0086086Y0098597D02*
X0088088Y0101600D01*
X0089309Y0101600D02*
X0091310Y0101600D01*
X0090309Y0101600D02*
X0090309Y0098597D01*
X0089809Y0091600D02*
X0089309Y0091099D01*
X0089309Y0090098D01*
X0089809Y0089598D01*
X0091310Y0089598D01*
X0090309Y0089598D02*
X0089309Y0088597D01*
X0088088Y0088597D02*
X0086086Y0091600D01*
X0088088Y0091600D02*
X0086086Y0088597D01*
X0089809Y0091600D02*
X0091310Y0091600D01*
X0091310Y0088597D01*
X0091310Y0081600D02*
X0089809Y0081600D01*
X0089309Y0081099D01*
X0089309Y0079098D01*
X0089809Y0078597D01*
X0091310Y0078597D01*
X0091310Y0081600D01*
X0088088Y0080599D02*
X0087087Y0081600D01*
X0087087Y0078597D01*
X0088088Y0078597D02*
X0086086Y0078597D01*
X0086586Y0071600D02*
X0087587Y0071600D01*
X0088088Y0071099D01*
X0089309Y0071099D02*
X0089309Y0069098D01*
X0089809Y0068597D01*
X0091310Y0068597D01*
X0091310Y0071600D01*
X0089809Y0071600D01*
X0089309Y0071099D01*
X0088088Y0068597D02*
X0086086Y0070599D01*
X0086086Y0071099D01*
X0086586Y0071600D01*
X0086086Y0068597D02*
X0088088Y0068597D01*
X0087587Y0061600D02*
X0086586Y0061600D01*
X0086086Y0061099D01*
X0086086Y0060599D01*
X0086586Y0060098D01*
X0086086Y0059598D01*
X0086086Y0059098D01*
X0086586Y0058597D01*
X0087587Y0058597D01*
X0088088Y0059098D01*
X0089309Y0059098D02*
X0089309Y0061099D01*
X0089809Y0061600D01*
X0091310Y0061600D01*
X0091310Y0058597D01*
X0089809Y0058597D01*
X0089309Y0059098D01*
X0088088Y0061099D02*
X0087587Y0061600D01*
X0087087Y0060098D02*
X0086586Y0060098D01*
X0086586Y0051600D02*
X0088088Y0050098D01*
X0086086Y0050098D01*
X0086586Y0048597D02*
X0086586Y0051600D01*
X0089309Y0051099D02*
X0089309Y0049098D01*
X0089809Y0048597D01*
X0091310Y0048597D01*
X0091310Y0051600D01*
X0089809Y0051600D01*
X0089309Y0051099D01*
X0089959Y0041299D02*
X0090860Y0041299D01*
X0091310Y0040849D01*
X0091310Y0039047D01*
X0090860Y0038597D01*
X0089959Y0038597D01*
X0089509Y0039047D01*
X0089509Y0039948D01*
X0090409Y0039948D01*
X0089509Y0040849D02*
X0089959Y0041299D01*
X0088364Y0041299D02*
X0086562Y0038597D01*
X0086562Y0041299D01*
X0085417Y0041299D02*
X0084066Y0041299D01*
X0083616Y0040849D01*
X0083616Y0039047D01*
X0084066Y0038597D01*
X0085417Y0038597D01*
X0085417Y0041299D01*
X0088364Y0041299D02*
X0088364Y0038597D01*
X0088364Y0031299D02*
X0088364Y0029498D01*
X0087463Y0028597D01*
X0086562Y0029498D01*
X0086562Y0031299D01*
X0089509Y0031299D02*
X0091310Y0031299D01*
X0091310Y0029948D01*
X0090409Y0030399D01*
X0089959Y0030399D01*
X0089509Y0029948D01*
X0089509Y0029047D01*
X0089959Y0028597D01*
X0090860Y0028597D01*
X0091310Y0029047D01*
X0053016Y0061875D02*
X0052433Y0061291D01*
D11*
X0049059Y0055050D02*
X0050760Y0053349D01*
X0048492Y0053349D01*
X0049059Y0051647D02*
X0049059Y0055050D01*
X0047077Y0052214D02*
X0046510Y0052214D01*
X0046510Y0051647D01*
X0047077Y0051647D01*
X0047077Y0052214D01*
X0045236Y0052214D02*
X0045236Y0051647D01*
X0045236Y0052214D02*
X0042967Y0054483D01*
X0042967Y0055050D01*
X0045236Y0055050D01*
X0041552Y0055050D02*
X0041552Y0051647D01*
X0041552Y0052781D02*
X0039284Y0055050D01*
X0040985Y0053349D02*
X0039284Y0051647D01*
X0048560Y0049347D02*
X0029560Y0049347D01*
X0029060Y0049847D01*
X0027560Y0049847D01*
X0027500Y0049845D01*
X0027439Y0049840D01*
X0027380Y0049831D01*
X0027321Y0049818D01*
X0027262Y0049802D01*
X0027205Y0049782D01*
X0027150Y0049759D01*
X0027095Y0049732D01*
X0027043Y0049703D01*
X0026992Y0049670D01*
X0026943Y0049634D01*
X0026897Y0049596D01*
X0026853Y0049554D01*
X0026811Y0049510D01*
X0026773Y0049464D01*
X0026737Y0049415D01*
X0026704Y0049364D01*
X0026675Y0049312D01*
X0026648Y0049257D01*
X0026625Y0049202D01*
X0026605Y0049145D01*
X0026589Y0049086D01*
X0026576Y0049027D01*
X0026567Y0048968D01*
X0026562Y0048907D01*
X0026560Y0048847D01*
X0026560Y0041847D01*
X0026562Y0041787D01*
X0026567Y0041726D01*
X0026576Y0041667D01*
X0026589Y0041608D01*
X0026605Y0041549D01*
X0026625Y0041492D01*
X0026648Y0041437D01*
X0026675Y0041382D01*
X0026704Y0041330D01*
X0026737Y0041279D01*
X0026773Y0041230D01*
X0026811Y0041184D01*
X0026853Y0041140D01*
X0026897Y0041098D01*
X0026943Y0041060D01*
X0026992Y0041024D01*
X0027043Y0040991D01*
X0027095Y0040962D01*
X0027150Y0040935D01*
X0027205Y0040912D01*
X0027262Y0040892D01*
X0027321Y0040876D01*
X0027380Y0040863D01*
X0027439Y0040854D01*
X0027500Y0040849D01*
X0027560Y0040847D01*
X0029060Y0040847D01*
X0029560Y0041347D01*
X0048560Y0041347D01*
X0049060Y0040847D01*
X0050560Y0040847D01*
X0050620Y0040849D01*
X0050681Y0040854D01*
X0050740Y0040863D01*
X0050799Y0040876D01*
X0050858Y0040892D01*
X0050915Y0040912D01*
X0050970Y0040935D01*
X0051025Y0040962D01*
X0051077Y0040991D01*
X0051128Y0041024D01*
X0051177Y0041060D01*
X0051223Y0041098D01*
X0051267Y0041140D01*
X0051309Y0041184D01*
X0051347Y0041230D01*
X0051383Y0041279D01*
X0051416Y0041330D01*
X0051445Y0041382D01*
X0051472Y0041437D01*
X0051495Y0041492D01*
X0051515Y0041549D01*
X0051531Y0041608D01*
X0051544Y0041667D01*
X0051553Y0041726D01*
X0051558Y0041787D01*
X0051560Y0041847D01*
X0051560Y0048847D01*
X0051558Y0048907D01*
X0051553Y0048968D01*
X0051544Y0049027D01*
X0051531Y0049086D01*
X0051515Y0049145D01*
X0051495Y0049202D01*
X0051472Y0049257D01*
X0051445Y0049312D01*
X0051416Y0049364D01*
X0051383Y0049415D01*
X0051347Y0049464D01*
X0051309Y0049510D01*
X0051267Y0049554D01*
X0051223Y0049596D01*
X0051177Y0049634D01*
X0051128Y0049670D01*
X0051077Y0049703D01*
X0051025Y0049732D01*
X0050970Y0049759D01*
X0050915Y0049782D01*
X0050858Y0049802D01*
X0050799Y0049818D01*
X0050740Y0049831D01*
X0050681Y0049840D01*
X0050620Y0049845D01*
X0050560Y0049847D01*
X0049060Y0049847D01*
X0048560Y0049347D01*
X0041060Y0148347D02*
X0041060Y0153347D01*
X0041060Y0148347D02*
X0061060Y0148347D01*
X0061060Y0153347D01*
D12*
X0064476Y0147950D02*
X0066611Y0147950D01*
X0065543Y0147950D02*
X0065543Y0144747D01*
X0068159Y0144747D02*
X0068159Y0147950D01*
X0070294Y0147950D02*
X0068159Y0144747D01*
X0070294Y0144747D02*
X0070294Y0147950D01*
X0071842Y0147416D02*
X0071842Y0146348D01*
X0072376Y0145815D01*
X0073977Y0145815D01*
X0072910Y0145815D02*
X0071842Y0144747D01*
X0073977Y0144747D02*
X0073977Y0147950D01*
X0072376Y0147950D01*
X0071842Y0147416D01*
X0075525Y0147416D02*
X0075525Y0146348D01*
X0076059Y0145815D01*
X0077660Y0145815D01*
X0077660Y0144747D02*
X0077660Y0147950D01*
X0076059Y0147950D01*
X0075525Y0147416D01*
D13*
X0053260Y0045347D03*
X0024860Y0045347D03*
M02*
